<svg xmlns="http://www.w3.org/2000/svg" xmlns:xlink="http://www.w3.org/1999/xlink" width="537.211" height="534.978" viewBox="0 0 537.211 534.978">
  <defs>
    <linearGradient id="linear-gradient" x1="0.5" x2="0.5" y2="1" gradientUnits="objectBoundingBox">
      <stop offset="0" stop-color="#141c60"/>
      <stop offset="1" stop-color="#4549a4"/>
    </linearGradient>
    <linearGradient id="linear-gradient-2" x1="0.5" x2="0.5" y2="1" gradientUnits="objectBoundingBox">
      <stop offset="0" stop-color="#3f4894"/>
      <stop offset="1" stop-color="#686dd4"/>
    </linearGradient>
    <clipPath id="clip-path">
      <rect id="Rectangle_181" data-name="Rectangle 181" width="40.056" height="39.204" transform="translate(0 0)" fill="#fff" stroke="#707070" stroke-width="1"/>
    </clipPath>
    <clipPath id="clip-path-3">
      <rect id="Rectangle_180" data-name="Rectangle 180" width="28.5" height="27.966" transform="matrix(0.766, -0.643, 0.643, 0.766, 0, 18.32)" fill="#fff" stroke="#707070" stroke-width="1"/>
    </clipPath>
    <clipPath id="clip-path-4">
      <rect id="Rectangle_204" data-name="Rectangle 204" width="28.5" height="27.966" fill="#fff" stroke="#707070" stroke-width="1"/>
    </clipPath>
  </defs>
  <g id="b2" transform="translate(-288 -211.555)">
    <g id="Group_4811" data-name="Group 4811" transform="translate(288 212.055)">
      <g id="Construction-bro">
        <g id="freepik--background-simple--inject-2" transform="translate(22.998 33.696)">
          <path id="Path_6378" data-name="Path 6378" d="M206.174,26.374s-51.3,3.078-100.629,41.07c-42.941,33.13-66.762,82.59-69.242,136.4C34.657,239.368,43.143,274,53.4,307.733c13.177,43.39,21.684,92.817,49.161,129.9,42.844,57.71,125.669,82.055,194.932,71.721,44.747-6.669,92.026-32.061,105.8-78.016,5.1-17,7.588-35.267,16.3-50.988,10.431-18.831,29.368-29.828,43.742-45.164,17.751-18.937,24.912-42.535,29.336-67.5C507.058,186.573,476.3,117.77,420.792,67.445S229.793,18.156,206.174,26.374Z" transform="translate(-36.098 -22.109)" fill="#dcdcdc" opacity="0.63"/>
        </g>
        <g id="freepik--Clouds--inject-2" transform="translate(22.726 0)">
          <path id="Path_6379" data-name="Path 6379" d="M223.123,70.711c-7.3-3.982-10.631-.664-13.286-3.982s7.312-11.958-12.587-20.6c0,0-1.327-18.6-28.608-19.259s-19.923,18.6-27.235,23.241-9.292-2.655-16.6,2-3.971,13.949-9.933,15.277-13.949-5.985-21.25-1.327-7.358,8.628-10.654,8.628-9.967-2.655-13.949,0-8.628,5.985-8.628,5.985H228.444S230.447,74.693,223.123,70.711Z" transform="translate(-60.39 -26.855)" fill="none" stroke="#263238" stroke-linecap="round" stroke-linejoin="round" stroke-width="1"/>
          <path id="Path_6380" data-name="Path 6380" d="M116.105,62.79A22.372,22.372,0,0,1,113.13,64.2" transform="translate(-52.779 -21.669)" fill="none" stroke="#263238" stroke-linecap="round" stroke-linejoin="round" stroke-width="1"/>
          <path id="Path_6381" data-name="Path 6381" d="M151.221,35.68a11.352,11.352,0,0,0-6.488,8.1c-1.213,6.088-4.051,10.139-7.289,10.539s-15.4-.8-17.439,3.65a18.058,18.058,0,0,0-1.144,4.074" transform="translate(-51.952 -25.582)" fill="none" stroke="#263238" stroke-linecap="round" stroke-linejoin="round" stroke-width="1"/>
          <path id="Path_6382" data-name="Path 6382" d="M168.435,122.047c-2.849-1.556-4.142-.263-5.184-1.556s2.849-4.68-4.932-8.01c0,0-.515-7.266-11.157-7.53s-7.793,7.266-10.642,9.086-3.639-1.041-6.488.778-1.556,5.447-3.891,5.962-5.458-2.289-8.308-.515-2.861,3.433-4.154,3.433-3.891-1.041-5.447,0-3.433,2.289-3.433,2.289h65.661S171.3,123.6,168.435,122.047Z" transform="translate(-53.981 -15.586)" fill="none" stroke="#263238" stroke-linecap="round" stroke-linejoin="round" stroke-width="1"/>
          <path id="Path_6383" data-name="Path 6383" d="M126.614,119a9.407,9.407,0,0,1-1.144.538" transform="translate(-50.998 -13.557)" fill="none" stroke="#263238" stroke-linecap="round" stroke-linejoin="round" stroke-width="1"/>
          <path id="Path_6384" data-name="Path 6384" d="M140.345,108.36a4.44,4.44,0,0,0-2.54,3.17c-.469,2.38-1.579,3.959-2.849,4.12s-6.019-.32-6.809,1.419a6.867,6.867,0,0,0-.446,1.591" transform="translate(-50.676 -15.093)" fill="none" stroke="#263238" stroke-linecap="round" stroke-linejoin="round" stroke-width="1"/>
          <path id="Path_6385" data-name="Path 6385" d="M449.09,108.785c-2.861-1.556-4.154-.252-5.2-1.556s2.861-4.669-4.932-8.01c0,0-.515-7.266-11.157-7.518s-7.781,7.266-10.642,9.074-3.628-1.03-6.488.778-1.556,5.458-3.891,5.973-5.447-2.289-8.308-.515-2.849,3.364-4.154,3.364-3.891-1.03-5.447,0-3.376,2.266-3.376,2.266h65.661S451.939,110.353,449.09,108.785Z" transform="translate(-13.471 -17.498)" fill="none" stroke="#263238" stroke-linecap="round" stroke-linejoin="round" stroke-width="1"/>
          <path id="Path_6386" data-name="Path 6386" d="M407.274,105.7a8.084,8.084,0,0,1-1.144.549" transform="translate(-10.494 -15.477)" fill="none" stroke="#263238" stroke-linecap="round" stroke-linejoin="round" stroke-width="1"/>
          <path id="Path_6387" data-name="Path 6387" d="M420.993,95.11a4.406,4.406,0,0,0-2.529,3.17c-.481,2.369-1.591,3.959-2.861,4.108s-6.019-.309-6.809,1.43a6.568,6.568,0,0,0-.435,1.591" transform="translate(-10.172 -17.005)" fill="none" stroke="#263238" stroke-linecap="round" stroke-linejoin="round" stroke-width="1"/>
        </g>
        <g id="freepik--floor-1--inject-2" transform="translate(0 497.479)">
          <line id="Line_90" data-name="Line 90" x2="537.211" fill="#fff" stroke="#263238" stroke-miterlimit="10" stroke-width="1"/>
        </g>
      </g>
    </g>
    <g id="Group_336" data-name="Group 336" transform="translate(289.31 236.381)">
      <circle id="Ellipse_18" data-name="Ellipse 18" cx="3.294" cy="3.294" r="3.294" transform="translate(21.897 379.652)" fill="none" stroke="#ffc200" stroke-linecap="round" stroke-linejoin="round" stroke-width="1"/>
      <circle id="Ellipse_721" data-name="Ellipse 721" cx="3.294" cy="3.294" r="3.294" transform="translate(430.593 500.913)" fill="none" stroke="#ffc200" stroke-linecap="round" stroke-linejoin="round" stroke-width="1"/>
      <g id="Component_8_13" data-name="Component 8 – 13" transform="translate(55.707 503.562)">
        <path id="Path_80" data-name="Path 80" d="M389.37,300.506a3.294,3.294,0,1,1-3.294-3.294A3.3,3.3,0,0,1,389.37,300.506Z" transform="translate(-382.781 -297.212)" fill="url(#linear-gradient)"/>
      </g>
      <g id="Group_61" data-name="Group 61" transform="translate(0 123.862)">
        <line id="Line_21" data-name="Line 21" y2="7.088" transform="translate(3.544)" fill="none" stroke="#4549a4" stroke-linecap="round" stroke-linejoin="round" stroke-width="1"/>
        <line id="Line_22" data-name="Line 22" x1="7.088" transform="translate(0 3.544)" fill="none" stroke="#4549a4" stroke-linecap="round" stroke-linejoin="round" stroke-width="1"/>
      </g>
      <g id="Group_4810" data-name="Group 4810" transform="matrix(0.719, 0.695, -0.695, 0.719, 500.853, 158.325)">
        <line id="Line_21-2" data-name="Line 21" y2="7.088" transform="translate(3.544 0)" fill="none" stroke="#ffc200" stroke-linecap="round" stroke-linejoin="round" stroke-width="1"/>
        <line id="Line_22-2" data-name="Line 22" x1="7.088" transform="translate(0 3.544)" fill="none" stroke="#ffc200" stroke-linecap="round" stroke-linejoin="round" stroke-width="1"/>
      </g>
      <g id="Group_4833" data-name="Group 4833" transform="matrix(0.105, 0.995, -0.995, 0.105, 276.094, 125.441)">
        <line id="Line_21-3" data-name="Line 21" y2="7.088" transform="translate(3.544 0)" fill="none" stroke="#ffc200" stroke-linecap="round" stroke-linejoin="round" stroke-width="1"/>
        <line id="Line_22-3" data-name="Line 22" x1="7.088" transform="translate(0 3.544)" fill="none" stroke="#ffc200" stroke-linecap="round" stroke-linejoin="round" stroke-width="1"/>
      </g>
      <path id="Path_46" data-name="Path 46" d="M144.074,228.1a4.118,4.118,0,1,1-4.118-4.12A4.118,4.118,0,0,1,144.074,228.1Z" transform="translate(301.756 122.965)" fill="#4549a4"/>
      <g id="Component_6_12" data-name="Component 6 – 12" transform="translate(325.314 0)">
        <path id="Path_323" data-name="Path 323" d="M144.074,228.1a4.118,4.118,0,1,1-4.118-4.12A4.118,4.118,0,0,1,144.074,228.1Z" transform="translate(-135.838 -223.977)" fill="#4549a4"/>
      </g>
      <g id="Component_6_13" data-name="Component 6 – 13" transform="translate(94.423 196.837)">
        <path id="Path_323-2" data-name="Path 323" d="M140.583,226.351a2.372,2.372,0,1,1-2.372-2.374A2.372,2.372,0,0,1,140.583,226.351Z" transform="translate(-135.838 -223.977)" fill="#4549a4"/>
      </g>
      <g id="Component_6_14" data-name="Component 6 – 14" transform="translate(309.423 273.837)">
        <path id="Path_323-3" data-name="Path 323" d="M140.583,226.351a2.372,2.372,0,1,1-2.372-2.374A2.372,2.372,0,0,1,140.583,226.351Z" transform="translate(-135.838 -223.977)" fill="url(#linear-gradient-2)"/>
      </g>
      <g id="Component_7_19" data-name="Component 7 – 19" transform="translate(326.027 288.433) rotate(39)">
        <line id="Line_25" data-name="Line 25" y2="3.313" transform="translate(1.656)" fill="none" stroke="#5f27cd" stroke-linecap="round" stroke-linejoin="round" stroke-width="1"/>
        <line id="Line_26" data-name="Line 26" x1="3.313" transform="translate(0 1.656)" fill="none" stroke="#5f27cd" stroke-linecap="round" stroke-linejoin="round" stroke-width="1"/>
      </g>
    </g>
    <g id="Mask_Group_8" data-name="Mask Group 8" transform="matrix(-0.839, 0.545, -0.545, -0.839, 536.011, 492.747)" opacity="0.79" clip-path="url(#clip-path)">
      <g id="paint-roller" transform="translate(1.76 0)">
        <path id="Path_352" data-name="Path 352" d="M17.121,16.578H15.658a.593.593,0,0,1,0-1.186h1.463a3.225,3.225,0,0,0,3.221-3.221V9.628a3.225,3.225,0,0,0-3.221-3.221H4.407A4.412,4.412,0,0,1,0,2V.593a.593.593,0,1,1,1.186,0V2A3.225,3.225,0,0,0,4.407,5.221H17.121a4.412,4.412,0,0,1,4.407,4.407v2.543A4.412,4.412,0,0,1,17.121,16.578Z" transform="translate(15.01 18.013)" fill="#989898"/>
        <path id="Path_353" data-name="Path 353" d="M3.762.077A1.326,1.326,0,0,0,4.205,0V2.069A1.328,1.328,0,0,1,2.877,3.4H1.328A1.328,1.328,0,0,1,0,2.069V0C.291.1.121.077,3.762.077Z" transform="translate(13.611 15.114)" fill="#e1e1e1"/>
        <path id="Path_354" data-name="Path 354" d="M29.877,10.291H1.328A1.328,1.328,0,0,1,0,8.963V1.328A1.328,1.328,0,0,1,1.328,0H29.877a1.328,1.328,0,0,1,1.328,1.328V8.963A1.328,1.328,0,0,1,29.877,10.291Z" transform="translate(0 28.913)" fill="#cacbcc"/>
        <path id="Path_355" data-name="Path 355" d="M29.877,4.671H1.328A1.328,1.328,0,0,0,0,6V1.328A1.328,1.328,0,0,1,1.328,0H29.877a1.328,1.328,0,0,1,1.328,1.328V6A1.328,1.328,0,0,0,29.877,4.671Z" transform="translate(0 28.913)" fill="#bababa"/>
        <path id="Path_359" data-name="Path 359" d="M0,10.291H26.219V0H0Z" transform="translate(2.523 28.913)" fill="#ffcf60"/>
        <rect id="Rectangle_200" data-name="Rectangle 200" width="26.219" height="4.671" transform="translate(2.523 28.913)" fill="#ffc200"/>
        <path id="Path_356" data-name="Path 356" d="M1.679,2.069A1.327,1.327,0,0,0,2.942,3.394c-.1,0,.193,0-1.614,0A1.328,1.328,0,0,1,0,2.069V0C.28.1.342.077,1.679.077Z" transform="translate(13.611 15.114)" fill="#bababa"/>
        <path id="Path_357" data-name="Path 357" d="M4.648,15.271H1.328A1.328,1.328,0,0,1,0,13.943V1.328A1.328,1.328,0,0,1,1.328,0h3.32A1.328,1.328,0,0,1,5.976,1.328c0,1.9,0,12.414,0,12.615A1.328,1.328,0,0,1,4.648,15.271Z" transform="translate(12.725 0)" fill="#4549a4"/>
        <path id="Path_358" data-name="Path 358" d="M1.679,1.328V13.943a1.328,1.328,0,0,0,1.328,1.328H1.328A1.328,1.328,0,0,1,0,13.943V1.328A1.328,1.328,0,0,1,1.328,0H3.007A1.328,1.328,0,0,0,1.679,1.328Z" transform="translate(12.725 0)" fill="#141c60"/>
      </g>
    </g>
    <g id="Mask_Group_105" data-name="Mask Group 105" transform="matrix(0.921, 0.391, -0.391, 0.921, 663.653, 346.804)" opacity="0.81" clip-path="url(#clip-path)">
      <g id="paint-can_2_" data-name="paint-can (2)" transform="translate(5.354 0)">
        <path id="Path_6388" data-name="Path 6388" d="M19.548,0H9.8C4.4,0,0,4.03,0,8.983v4.394a2.634,2.634,0,0,0,2.72,2.531H4.563a.6.6,0,0,0,0-1.2H2.72A1.436,1.436,0,0,1,1.2,13.376V8.983C1.2,4.692,5.058,1.2,9.8,1.2h9.748c4.742,0,8.6,3.491,8.6,7.782v4.394a1.436,1.436,0,0,1-1.519,1.331h-2.09a.6.6,0,0,0,0,1.2h2.09a2.634,2.634,0,0,0,2.72-2.531V8.983C29.348,4.03,24.951,0,19.548,0Z" transform="translate(0 1.588)" fill="#787680"/>
        <path id="Path_6389" data-name="Path 6389" d="M21.035,1.753V25.4a3.711,3.711,0,0,1-3.71,3.71H3.71A3.72,3.72,0,0,1,0,25.4V1.753a1.685,1.685,0,0,1,.014-.221A1.752,1.752,0,0,1,1.753,0H19.282a1.752,1.752,0,0,1,1.738,1.533A1.671,1.671,0,0,1,21.035,1.753Z" transform="translate(4.156 10.098)" fill="#ffc200"/>
        <path id="Path_6390" data-name="Path 6390" d="M17.794,1.753V25.4a3.7,3.7,0,0,1-.09.809,3.706,3.706,0,0,1-.379.019H3.71A3.72,3.72,0,0,1,0,22.515V0H16.041a1.752,1.752,0,0,1,1.738,1.533A1.658,1.658,0,0,1,17.794,1.753Z" transform="translate(7.398 10.098)" fill="#ffcf60"/>
        <path id="Path_6391" data-name="Path 6391" d="M19.282,0H1.753A1.753,1.753,0,0,0,0,1.753V4.239H2.554A1.631,1.631,0,0,1,4.185,5.87v4.467a1.932,1.932,0,0,0,1.759,1.941,1.906,1.906,0,0,0,2.046-1.9l0,5.558a1.9,1.9,0,0,0,3.805,0V5.87A1.631,1.631,0,0,1,13.427,4.24h.541A1.631,1.631,0,0,1,15.6,5.87v4.467a1.932,1.932,0,0,0,1.759,1.941,1.906,1.906,0,0,0,2.046-1.9V5.87A1.631,1.631,0,0,1,21.035,4.24h0V1.753A1.753,1.753,0,0,0,19.282,0Z" transform="translate(4.156 10.098)" fill="#fff"/>
        <path id="Path_6392" data-name="Path 6392" d="M10.289.96V3.349a.963.963,0,0,1-.96.96H.96A.963.963,0,0,1,0,3.349V.96A.963.963,0,0,1,.96,0H9.329A.963.963,0,0,1,10.289.96Z" transform="translate(9.529 0)" fill="#341f97"/>
        <path id="Path_6393" data-name="Path 6393" d="M7.568.96V2.068H.96A.963.963,0,0,1,0,1.108V0H6.608A.963.963,0,0,1,7.568.96Z" transform="translate(12.25 0)" fill="#847bff"/>
        <g id="Group_4809" data-name="Group 4809" transform="translate(8.341 17.728)">
          <path id="Path_6394" data-name="Path 6394" d="M5.709,7.5a1.908,1.908,0,0,1-1.9-1.9L3.8.256c-.008-.016-.012,0-.012,0a1.9,1.9,0,0,1-.547,1.131,1.9,1.9,0,0,1-1.487.553A1.932,1.932,0,0,1,0,0V2.708A1.932,1.932,0,0,0,1.759,4.649,1.907,1.907,0,0,0,3.8,2.752l0,5.558a1.9,1.9,0,0,0,3.8,0V5.6a1.906,1.906,0,0,1-1.9,1.9Z" fill="#dfdfdf"/>
          <path id="Path_6395" data-name="Path 6395" d="M3.247,1.388a1.9,1.9,0,0,1-1.488.553A1.932,1.932,0,0,1,0,0V2.708A1.932,1.932,0,0,0,1.759,4.649,1.905,1.905,0,0,0,3.8,2.752V.043A1.9,1.9,0,0,1,3.247,1.388Z" transform="translate(11.414)" fill="#dfdfdf"/>
        </g>
      </g>
    </g>
    <g id="Mask_Group_7" data-name="Mask Group 7" transform="matrix(-0.999, -0.035, 0.035, -0.999, 453.509, 392.888)" opacity="0.65" clip-path="url(#clip-path-3)">
      <g id="brush" transform="matrix(0.788, -0.616, 0.616, 0.788, 7.496, 14.069)">
        <path id="Path_341" data-name="Path 341" d="M2.563,0A2.563,2.563,0,0,0,0,2.563L.712,9.969h3.76l.712-7.406A2.563,2.563,0,0,0,2.563,0Zm.029,3.367a.813.813,0,1,1,.813-.813A.813.813,0,0,1,2.592,3.367Z" transform="translate(4.137 0.004)" fill="#4549a4"/>
        <path id="Path_342" data-name="Path 342" d="M3.091.047A2.578,2.578,0,0,0,0,2.567L.712,9.973h1L1,2.567A2.564,2.564,0,0,1,3.091.047Z" transform="translate(4.137 0)" fill="#141c60"/>
        <path id="Path_343" data-name="Path 343" d="M12.391,0H1.066A1.066,1.066,0,0,0,0,1.066v5.2H13.457v-5.2A1.066,1.066,0,0,0,12.391,0Z" transform="translate(0 9.925)" fill="#777371"/>
        <path id="Path_344" data-name="Path 344" d="M8.533,0H.928A11.117,11.117,0,0,0,0,4.46,11.234,11.234,0,0,0,.147,6.27H9.6v-5.2A1.066,1.066,0,0,0,8.533,0Z" transform="translate(3.859 9.925)" fill="#989898"/>
        <path id="Path_345" data-name="Path 345" d="M0,0V6.55A1.066,1.066,0,0,0,1.066,7.616H12.391A1.066,1.066,0,0,0,13.457,6.55V0Z" transform="translate(0 15.778)" fill="#f7830f"/>
        <path id="Path_346" data-name="Path 346" d="M4.49,7.616H8.446A1.066,1.066,0,0,0,9.512,6.55V0H0A11.147,11.147,0,0,0,4.49,7.616Z" transform="translate(3.945 15.778)" fill="#ffa92c"/>
        <g id="Group_345" data-name="Group 345" transform="translate(1.968 18.865)">
          <path id="Path_347" data-name="Path 347" d="M.354,0A.354.354,0,0,0,0,.354V4.529H.707V.354A.354.354,0,0,0,.354,0Z" fill="#fcc454"/>
          <path id="Path_348" data-name="Path 348" d="M.354,0A.354.354,0,0,0,0,.354V3.187H.707V.354A.354.354,0,0,0,.354,0Z" transform="translate(2.271 1.342)" fill="#fcc454"/>
          <path id="Path_349" data-name="Path 349" d="M.354,0A.354.354,0,0,0,0,.354V4.529H.707V.354A.354.354,0,0,0,.354,0Z" transform="translate(6.491)" fill="#fcc454"/>
          <path id="Path_350" data-name="Path 350" d="M.354,0A.354.354,0,0,0,0,.354V3.187H.707V.354A.354.354,0,0,0,.354,0Z" transform="translate(8.762 1.342)" fill="#fcc454"/>
        </g>
        <rect id="Rectangle_198" data-name="Rectangle 198" width="13.457" height="1.931" transform="translate(0 14.265)" fill="#c4c2c2"/>
        <path id="Path_351" data-name="Path 351" d="M0,.121a11.234,11.234,0,0,0,.147,1.81H9.6V0H0C0,.04,0,.081,0,.121Z" transform="translate(3.859 14.264)" fill="#e1e1e1"/>
      </g>
    </g>
    <g id="Mask_Group_10" data-name="Mask Group 10" transform="translate(686.023 500.526)" clip-path="url(#clip-path-4)">
      <g id="brush_1_" data-name="brush (1)" transform="translate(0.265 0)">
        <path id="Path_377" data-name="Path 377" d="M10.463,19.013c-.074-.044.206.227-3.405-3.385a.283.283,0,0,0-.365-.03C-.394,20.675.023,20.323.007,20.51s-.325-.184,5.325,5.467a.283.283,0,0,0,.428-.033l4.785-6.521A.283.283,0,0,0,10.463,19.013Z" transform="translate(0 1.906)" fill="#cc7954"/>
        <path id="Path_378" data-name="Path 378" d="M.807,21.17c7.226-5.175,6.833-4.9,6.875-4.917l-.625-.625a.283.283,0,0,0-.365-.03L.124,20.3a.283.283,0,0,0-.035.43l.605.605A.294.294,0,0,1,.807,21.17Z" transform="translate(0.001 1.906)" fill="#b25f42"/>
        <g id="Group_347" data-name="Group 347" transform="translate(6.829 10.454)">
          <path id="Path_379" data-name="Path 379" d="M12.577,9.313l-2.986,2.62,4.129,4.129,2.622-2.984Z" transform="translate(-5.651 -9.313)" fill="#bababa"/>
          <path id="Path_380" data-name="Path 380" d="M10.276,19.452l2.438-2.438L8.626,12.926,6.344,15.208a.894.894,0,0,0,0,1.264l2.845,2.845A.893.893,0,0,0,10.276,19.452Z" transform="translate(-6.082 -8.869)" fill="#bababa"/>
        </g>
        <path id="Path_381" data-name="Path 381" d="M7.132,15.969,9.4,13.7l-.775-.775L6.344,15.208a.894.894,0,0,0,0,1.264l.608.608A.963.963,0,0,1,7.132,15.969Z" transform="translate(0.747 1.585)" fill="#949992"/>
        <path id="Path_382" data-name="Path 382" d="M26.07.419C24.988-.663,23.387.7,23.353.732L12.087,10.617,15.872,14.4,25.757,3.136C25.787,3.1,27.152,1.5,26.07.419Z" transform="translate(1.484 -0.002)" fill="rgba(255,194,0,0.55)"/>
        <path id="Path_383" data-name="Path 383" d="M10.468,12.753l2.956-2.594h0l-.847-.847-2.986,2.62Z" transform="translate(1.178 1.141)" fill="#949992"/>
        <path id="Path_384" data-name="Path 384" d="M12.964,11.437h0L24.23,1.552A2.671,2.671,0,0,1,26.388.889,1.412,1.412,0,0,0,26.07.419C24.988-.663,23.387.7,23.353.732L12.087,10.617l.847.847Z" transform="translate(1.484 -0.002)" fill="#ffc200"/>
        <g id="Group_348" data-name="Group 348" transform="translate(1.422 21.32)">
          <path id="Path_385" data-name="Path 385" d="M3.794,19.115,1.266,21.642l.6.6,2.527-2.527a.424.424,0,0,0-.6-.6Z" transform="translate(-1.266 -18.991)" fill="#ffa92c"/>
          <path id="Path_386" data-name="Path 386" d="M4.065,21.4,2.6,22.862l.6.6L4.665,22a.424.424,0,0,0-.6-.6Z" transform="translate(-1.102 -18.71)" fill="#ffa92c"/>
        </g>
        <path id="Path_387" data-name="Path 387" d="M13.928,15.709,9.88,11.661a1,1,0,0,0-1.415,0,1.091,1.091,0,0,0-.414.828.993.993,0,0,0,.293.708l4.048,4.048a.994.994,0,0,0,.708.293,1.091,1.091,0,0,0,.828-.414A1,1,0,0,0,13.928,15.709Z" transform="translate(0.989 1.393)" fill="#efefef"/>
        <path id="Path_388" data-name="Path 388" d="M13.071,16.472,9.023,12.424a1,1,0,0,1-.255-.979,1.275,1.275,0,0,0-.424.328,1,1,0,0,0,0,1.415l4.048,4.048a.994.994,0,0,0,.708.293,1.091,1.091,0,0,0,.828-.414.993.993,0,0,0,.255-.436A1,1,0,0,1,13.071,16.472Z" transform="translate(0.989 1.403)" fill="#e1e1e1"/>
      </g>
    </g>
  </g>
</svg>
