<svg xmlns="http://www.w3.org/2000/svg" xmlns:xlink="http://www.w3.org/1999/xlink" width="53" height="53" viewBox="0 0 53 53">
  <defs>
    <clipPath id="clip-path">
      <rect id="Rectangle_2516" data-name="Rectangle 2516" width="53" height="53" transform="translate(413 2637)" fill="#141c60" stroke="#707070" stroke-width="1"/>
    </clipPath>
  </defs>
  <g id="car2" transform="translate(-413 -2637)" clip-path="url(#clip-path)">
    <g id="bag_1_" data-name="bag (1)" transform="translate(413 2637)">
      <g id="Group_4918" data-name="Group 4918">
        <g id="Group_4917" data-name="Group 4917">
          <path id="Path_8848" data-name="Path 8848" d="M14.532,36.514v-4.03a.855.855,0,1,0-1.71,0v4.03c0,3.434,3.452,6.228,7.694,6.228s7.694-2.794,7.694-6.228v-4.03a.855.855,0,1,0-1.71,0v4.03c0,2.492-2.684,4.519-5.984,4.519S14.532,39.005,14.532,36.514Z" fill="#141c60"/>
          <path id="Path_8849" data-name="Path 8849" d="M11.113,30.774a.855.855,0,0,0,.855-.855v-.3a1.36,1.36,0,0,1,.721-1.149,2,2,0,0,1,1.976,0,1.36,1.36,0,0,1,.721,1.149v.3a.855.855,0,1,0,1.71,0v-.3A3.053,3.053,0,0,0,15.534,27a3.711,3.711,0,0,0-3.713,0,3.051,3.051,0,0,0-1.563,2.623v.3A.855.855,0,0,0,11.113,30.774Z" fill="#141c60"/>
          <path id="Path_8850" data-name="Path 8850" d="M24.79,30.774a.855.855,0,0,0,.855-.855v-.3a1.36,1.36,0,0,1,.721-1.149,2,2,0,0,1,1.976,0,1.36,1.36,0,0,1,.721,1.149v.3a.855.855,0,0,0,1.71,0v-.3A3.053,3.053,0,0,0,29.212,27,3.711,3.711,0,0,0,25.5,27a3.051,3.051,0,0,0-1.563,2.623v.3A.855.855,0,0,0,24.79,30.774Z" fill="#141c60"/>
          <path id="Path_8851" data-name="Path 8851" d="M51.29,6.839H43.6V4.986A4.992,4.992,0,0,0,38.611,0h-4.56a4.992,4.992,0,0,0-4.986,4.986V6.839H21.371a.855.855,0,0,0-.855.855v5.984H1.71a.849.849,0,0,0-.305.062.827.827,0,0,0-.085.045.905.905,0,0,0-.171.115.944.944,0,0,0-.076.079.811.811,0,0,0-.109.162.842.842,0,0,0-.049.1c-.006.017-.018.031-.023.049a.817.817,0,0,0-.024.185c0,.021-.012.038-.012.058V52.145A.855.855,0,0,0,1.71,53H39.323a.855.855,0,0,0,.855-.855V47.016H51.29a.855.855,0,0,0,.855-.855V7.694A.855.855,0,0,0,51.29,6.839ZM30.774,4.986A3.281,3.281,0,0,1,34.051,1.71h4.56a3.281,3.281,0,0,1,3.277,3.277V6.839H30.774Zm5.677,10.4-4.138,2.7a.855.855,0,0,0,0,1.431l4.138,2.7H4.581l4.137-2.7a.855.855,0,0,0,0-1.431l-4.137-2.7Zm-33.887.728,4.124,2.691L2.565,21.5Zm35.9,35.175H2.565V23.935h35.9Zm0-29.789-4.124-2.694,4.124-2.694ZM50.435,45.306H40.177V14.532c0-.021-.01-.038-.012-.058a.817.817,0,0,0-.024-.185c-.005-.018-.017-.032-.023-.049a.842.842,0,0,0-.049-.1.811.811,0,0,0-.109-.162.943.943,0,0,0-.076-.079.905.905,0,0,0-.171-.115.735.735,0,0,0-.391-.107h-17.1V8.548H44.452v3.091l-2.345,2.606a.849.849,0,0,0-.22.571v5.7a.855.855,0,0,0,.855.855h5.129a.855.855,0,0,0,.855-.855v-5.7a.849.849,0,0,0-.22-.571l-2.345-2.606V8.548h4.274ZM45.306,13.25l1.71,1.9v4.512H43.6V15.145Z" fill="#141c60"/>
        </g>
      </g>
    </g>
  </g>
</svg>
