<svg xmlns="http://www.w3.org/2000/svg" xmlns:xlink="http://www.w3.org/1999/xlink" width="53" height="53" viewBox="0 0 53 53">
  <defs>
    <clipPath id="clip-path">
      <rect id="Rectangle_2516" data-name="Rectangle 2516" width="53" height="53" transform="translate(413 2637)" fill="#341f97" stroke="#707070" stroke-width="1"/>
    </clipPath>
  </defs>
  <g id="car3" transform="translate(-413 -2637)" clip-path="url(#clip-path)">
    <g id="smartphone_4_" data-name="smartphone (4)" transform="translate(413 2637)">
      <g id="Group_4920" data-name="Group 4920">
        <g id="Group_4919" data-name="Group 4919">
          <path id="Path_8852" data-name="Path 8852" d="M39.75,0H13.25A4.417,4.417,0,0,0,8.833,4.417V48.583A4.417,4.417,0,0,0,13.25,53h26.5a4.417,4.417,0,0,0,4.417-4.417V4.417A4.417,4.417,0,0,0,39.75,0ZM42.4,48.583a2.65,2.65,0,0,1-2.65,2.65H13.25a2.65,2.65,0,0,1-2.65-2.65V4.417a2.65,2.65,0,0,1,2.65-2.65h26.5a2.65,2.65,0,0,1,2.65,2.65Z" fill="#341f97"/>
          <path id="Path_8853" data-name="Path 8853" d="M26.5,43.283a3.533,3.533,0,1,0,3.533,3.533A3.533,3.533,0,0,0,26.5,43.283Zm0,5.3a1.767,1.767,0,1,1,1.767-1.767A1.767,1.767,0,0,1,26.5,48.583Z" fill="#341f97"/>
          <path id="Path_8854" data-name="Path 8854" d="M12.367,39.75a.883.883,0,0,0,.883.883h26.5a.883.883,0,0,0,.883-.883V3.533H12.367ZM35.333,5.3h3.533V8.833H35.333Zm0,5.3h3.533v1.767a1.767,1.767,0,1,1-3.533,0Zm-5.3-5.3h3.533V8.833H30.033Zm0,5.3h3.533v1.767a1.767,1.767,0,1,1-3.533,0Zm-5.3-5.3h3.533V8.833H24.733Zm0,5.3h3.533v1.767a1.767,1.767,0,1,1-3.533,0Zm-5.3-5.3h3.533V8.833H19.433Zm0,5.3h3.533v1.767a1.767,1.767,0,0,1-3.533,0Zm-5.3-5.3h3.533V8.833H14.133Zm0,5.3h3.533v1.767a1.767,1.767,0,0,1-3.533,0Zm0,4.809a3.463,3.463,0,0,0,4.417-.73,3.486,3.486,0,0,0,5.3,0,3.486,3.486,0,0,0,5.3,0,3.486,3.486,0,0,0,5.3,0,3.463,3.463,0,0,0,4.417.73V38.867H14.133Z" fill="#341f97"/>
          <path id="Path_8855" data-name="Path 8855" d="M30.917,34.892a1.325,1.325,0,1,0,1.325,1.325A1.325,1.325,0,0,0,30.917,34.892Zm0,1.767a.442.442,0,1,1,.442-.442A.442.442,0,0,1,30.917,36.658Z" fill="#341f97"/>
          <path id="Path_8856" data-name="Path 8856" d="M25.617,34.892a1.325,1.325,0,1,0,1.325,1.325A1.325,1.325,0,0,0,25.617,34.892Zm0,1.767a.442.442,0,1,1,.442-.442A.442.442,0,0,1,25.617,36.658Z" fill="#341f97"/>
          <path id="Path_8857" data-name="Path 8857" d="M35.645,21.257a.882.882,0,0,0-.312-.057H22.772l-.715-2.864a.883.883,0,0,0-.857-.67H17.667a.883.883,0,0,0,0,1.767H20.51L23.877,32.9a.883.883,0,0,0,.857.67H31.8a.883.883,0,1,0,0-1.767H25.423l-.442-1.767h7.7a.883.883,0,0,0,.828-.572l2.65-7.067A.883.883,0,0,0,35.645,21.257Zm-3.574,7.01H24.54l-1.325-5.3H34.059Z" fill="#341f97"/>
          <path id="Path_8858" data-name="Path 8858" d="M27.383,26.5h2.65a.883.883,0,0,0,0-1.767h-2.65a.883.883,0,0,0,0,1.767Z" fill="#341f97"/>
        </g>
      </g>
    </g>
  </g>
</svg>
