<svg xmlns="http://www.w3.org/2000/svg" xmlns:xlink="http://www.w3.org/1999/xlink" width="53" height="53" viewBox="0 0 53 53">
  <defs>
    <clipPath id="clip-path">
      <rect id="Rectangle_2516" data-name="Rectangle 2516" width="53" height="53" transform="translate(413 2637)" fill="#ff9200" stroke="#707070" stroke-width="1"/>
    </clipPath>
  </defs>
  <g id="crd1" transform="translate(-413 -2637)" clip-path="url(#clip-path)">
    <g id="supermarket" transform="translate(413 2637)">
      <g id="Group_4922" data-name="Group 4922">
        <g id="Group_4921" data-name="Group 4921">
          <path id="Path_8859" data-name="Path 8859" d="M52.117,16.783h-21.2V4.858A3.979,3.979,0,0,0,26.942.883h-.883a3.979,3.979,0,0,0-3.975,3.975V16.783H.883A.883.883,0,0,0,0,17.667v9.717a.883.883,0,0,0,.883.883H6.32l3.555,23.1a.883.883,0,0,0,.873.749h31.8a.883.883,0,0,0,.873-.749l3.554-23.1h5.143A.883.883,0,0,0,53,27.383V17.667A.883.883,0,0,0,52.117,16.783ZM23.85,4.858A2.208,2.208,0,0,1,26.058,2.65h.883A2.208,2.208,0,0,1,29.15,4.858v15.9a2.208,2.208,0,0,1-2.208,2.208h-.883a2.208,2.208,0,0,1-2.208-2.208ZM41.79,50.35H11.505l-3.4-22.083h37.08ZM51.233,26.5H1.767V18.55H22.083v2.208a3.979,3.979,0,0,0,3.975,3.975h.883a3.979,3.979,0,0,0,3.975-3.975V18.55H51.233Z" fill="#ff9200"/>
          <path id="Path_8860" data-name="Path 8860" d="M15.9,48.583a2.65,2.65,0,0,0,2.65-2.65V32.683a2.65,2.65,0,1,0-5.3,0v13.25A2.65,2.65,0,0,0,15.9,48.583Zm-.883-15.9a.883.883,0,1,1,1.767,0v13.25a.883.883,0,0,1-1.767,0Z" fill="#ff9200"/>
          <path id="Path_8861" data-name="Path 8861" d="M22.967,48.583a2.65,2.65,0,0,0,2.65-2.65V32.683a2.65,2.65,0,1,0-5.3,0v13.25A2.65,2.65,0,0,0,22.967,48.583Zm-.883-15.9a.883.883,0,1,1,1.767,0v13.25a.883.883,0,0,1-1.767,0Z" fill="#ff9200"/>
          <path id="Path_8862" data-name="Path 8862" d="M30.033,48.583a2.65,2.65,0,0,0,2.65-2.65V32.683a2.65,2.65,0,1,0-5.3,0v13.25A2.65,2.65,0,0,0,30.033,48.583Zm-.883-15.9a.883.883,0,1,1,1.767,0v13.25a.883.883,0,0,1-1.767,0Z" fill="#ff9200"/>
          <path id="Path_8863" data-name="Path 8863" d="M37.1,48.583a2.65,2.65,0,0,0,2.65-2.65V32.683a2.65,2.65,0,1,0-5.3,0v13.25A2.65,2.65,0,0,0,37.1,48.583Zm-.883-15.9a.883.883,0,1,1,1.767,0v13.25a.883.883,0,0,1-1.767,0Z" fill="#ff9200"/>
          <path id="Path_8864" data-name="Path 8864" d="M26.5,21.2a1.325,1.325,0,1,0-1.325-1.325A1.325,1.325,0,0,0,26.5,21.2Zm0-1.767a.442.442,0,1,1-.442.442A.442.442,0,0,1,26.5,19.433Z" fill="#ff9200"/>
        </g>
      </g>
    </g>
  </g>
</svg>
