<svg xmlns="http://www.w3.org/2000/svg" xmlns:xlink="http://www.w3.org/1999/xlink" width="900" height="551" viewBox="0 0 900 551">
  <defs>
    <clipPath id="clip-path">
      <rect id="Rectangle_6186" data-name="Rectangle 6186" width="900" height="551" transform="translate(145 1371)" fill="#fff" stroke="#707070" stroke-width="1"/>
    </clipPath>
    <linearGradient id="linear-gradient" x1="0.5" x2="0.5" y2="1" gradientUnits="objectBoundingBox">
      <stop offset="0" stop-color="#3f4894"/>
      <stop offset="1" stop-color="#686dd4"/>
    </linearGradient>
  </defs>
  <g id="fff" transform="translate(-145 -1371)" clip-path="url(#clip-path)">
    <g id="Component_7_20" data-name="Component 7 – 20" transform="translate(1034.76 1465.741) rotate(43)">
      <line id="Line_25" data-name="Line 25" y2="14.313" transform="translate(7.156)" fill="none" stroke="#141c60" stroke-linecap="round" stroke-linejoin="round" stroke-width="2"/>
      <line id="Line_26" data-name="Line 26" x1="14.313" transform="translate(0 7.156)" fill="none" stroke="#141c60" stroke-linecap="round" stroke-linejoin="round" stroke-width="2"/>
    </g>
    <g id="Component_7_21" data-name="Component 7 – 21" transform="translate(300.063 1899.217)">
      <line id="Line_25-2" data-name="Line 25" y2="15.629" transform="translate(7.815)" fill="none" stroke="#ffc200" stroke-linecap="round" stroke-linejoin="round" stroke-width="2"/>
      <line id="Line_26-2" data-name="Line 26" x1="15.629" transform="translate(0 7.814)" fill="none" stroke="#ffc200" stroke-linecap="round" stroke-linejoin="round" stroke-width="2"/>
    </g>
    <g id="Component_8_16" data-name="Component 8 – 16" transform="translate(835.14 1373.968)">
      <path id="Path_80" data-name="Path 80" d="M390.281,300.962a3.75,3.75,0,1,1-3.75-3.75A3.751,3.751,0,0,1,390.281,300.962Z" transform="translate(-382.781 -297.212)" fill="none" stroke="#ffc200" stroke-linecap="round" stroke-linejoin="round" stroke-width="2"/>
    </g>
    <g id="Component_6_19" data-name="Component 6 – 19" transform="translate(145 1736.51)">
      <path id="Path_323" data-name="Path 323" d="M146.032,229.076a5.1,5.1,0,1,1-5.1-5.1A5.1,5.1,0,0,1,146.032,229.076Z" transform="translate(-135.838 -223.977)" fill="url(#linear-gradient)"/>
    </g>
  </g>
</svg>
