<svg id="google" xmlns="http://www.w3.org/2000/svg" xmlns:xlink="http://www.w3.org/1999/xlink" width="187.58" height="55.594" viewBox="0 0 187.58 55.594">
  <defs>
    <linearGradient id="linear-gradient" x1="0.5" x2="0.5" y2="1" gradientUnits="objectBoundingBox">
      <stop offset="0" stop-color="gray" stop-opacity="0.522"/>
      <stop offset="0.502" stop-color="#414040" stop-opacity="0.388"/>
      <stop offset="0.703" stop-color="#666" stop-opacity="0.239"/>
      <stop offset="1" stop-color="#666" stop-opacity="0.18"/>
    </linearGradient>
    <linearGradient id="linear-gradient-2" x1="0.908" y1="1.032" x2="-0.383" y2="0.36" gradientUnits="objectBoundingBox">
      <stop offset="0" stop-color="#00a0ff"/>
      <stop offset="0.007" stop-color="#00a1ff"/>
      <stop offset="0.26" stop-color="#00beff"/>
      <stop offset="0.512" stop-color="#00d2ff"/>
      <stop offset="0.76" stop-color="#00dfff"/>
      <stop offset="1" stop-color="#00e3ff"/>
    </linearGradient>
    <linearGradient id="linear-gradient-3" x1="1.077" y1="0.729" x2="-1.307" y2="0.729" gradientUnits="objectBoundingBox">
      <stop offset="0" stop-color="#ffe000"/>
      <stop offset="0.409" stop-color="#ffbd00"/>
      <stop offset="0.775" stop-color="orange"/>
      <stop offset="1" stop-color="#ff9c00"/>
    </linearGradient>
    <linearGradient id="linear-gradient-4" x1="0.864" y1="-0.023" x2="-0.499" y2="-1.789" gradientUnits="objectBoundingBox">
      <stop offset="0" stop-color="#ff3a44"/>
      <stop offset="1" stop-color="#c31162"/>
    </linearGradient>
    <linearGradient id="linear-gradient-5" x1="-0.186" y1="2.701" x2="0.423" y2="1.909" gradientUnits="objectBoundingBox">
      <stop offset="0" stop-color="#32a071"/>
      <stop offset="0.069" stop-color="#2da771"/>
      <stop offset="0.476" stop-color="#15cf74"/>
      <stop offset="0.801" stop-color="#06e775"/>
      <stop offset="1" stop-color="#00f076"/>
    </linearGradient>
  </defs>
  <path id="Path_9643" data-name="Path 9643" d="M186.807,49.5a5.324,5.324,0,0,1-5.33,5.325H7.046A5.331,5.331,0,0,1,1.709,49.5V7.04A5.338,5.338,0,0,1,7.046,1.708h174.43a5.33,5.33,0,0,1,5.33,5.332V49.5Z" transform="translate(-0.471 -0.471)" fill="#fff"/>
  <path id="Path_9644" data-name="Path 9644" d="M181.006,55.594H6.574A6.576,6.576,0,0,1,0,49.03V6.57A6.58,6.58,0,0,1,6.574,0H181a6.583,6.583,0,0,1,6.574,6.57V49.03a6.575,6.575,0,0,1-6.573,6.563Z" fill="none"/>
  <path id="Path_9645" data-name="Path 9645" d="M186.807,49.5a5.324,5.324,0,0,1-5.33,5.325H7.046A5.331,5.331,0,0,1,1.709,49.5V7.04A5.338,5.338,0,0,1,7.046,1.708h174.43a5.33,5.33,0,0,1,5.33,5.332V49.5Z" transform="translate(-0.471 -0.471)" fill="#141c60"/>
  <path id="Path_9647" data-name="Path 9647" d="M214.349,0H120.919l36.6,55.594h56.835a6.58,6.58,0,0,0,6.574-6.567V6.57A6.581,6.581,0,0,0,214.349,0Z" transform="translate(-33.344)" fill="url(#linear-gradient)"/>
  <g id="Group_6204" data-name="Group 6204" transform="translate(12 8.473)">
    <path id="Path_9636" data-name="Path 9636" d="M19.792,14.389a2.964,2.964,0,0,0-.606,2.122V50.016a3,3,0,0,0,.758,2.122l.152.152,18.8-18.8v-.3Z" transform="translate(-19.185 -13.854)" fill="url(#linear-gradient-2)"/>
    <path id="Path_9637" data-name="Path 9637" d="M50.15,43.2l-6.216-6.216v-.455l6.216-6.216.152.152,7.429,4.245c2.123,1.213,2.123,3.184,0,4.4Z" transform="translate(-24.377 -17.194)" fill="url(#linear-gradient-3)"/>
    <path id="Path_9638" data-name="Path 9638" d="M45.271,44.738,38.9,38.37,19.953,57.321c.758.758,1.819.758,3.184.152L45.271,44.738" transform="translate(-19.346 -18.885)" fill="url(#linear-gradient-4)"/>
    <path id="Path_9639" data-name="Path 9639" d="M45.271,26.84,23.136,14.257c-1.364-.758-2.426-.606-3.184.152L38.9,33.207l6.367-6.367Z" transform="translate(-19.346 -13.722)" fill="url(#linear-gradient-5)"/>
    <path id="Path_9640" data-name="Path 9640" d="M45.119,46.236,23.136,58.668a2.479,2.479,0,0,1-3.032,0l-.152.152.152.152a2.479,2.479,0,0,0,3.032,0Z" transform="translate(-19.346 -20.535)" opacity="0.2"/>
    <path id="Path_9641" data-name="Path 9641" d="M19.792,57.018a2.964,2.964,0,0,1-.606-2.122v.152a3,3,0,0,0,.758,2.122v-.152h-.152ZM52.539,40.341l-7.58,4.245.152.152,7.429-4.245a2.52,2.52,0,0,0,1.516-2.122C54.055,39.128,53.448,39.735,52.539,40.341Z" transform="translate(-19.185 -18.885)" opacity="0.12"/>
    <path id="Path_9642" data-name="Path 9642" d="M22.975,14.4,52.539,31.227c.91.606,1.516,1.213,1.516,1.971a2.52,2.52,0,0,0-1.516-2.122L22.975,14.247c-2.122-1.213-3.79-.3-3.79,2.122v.152C19.185,14.247,20.853,13.186,22.975,14.4Z" transform="translate(-19.185 -13.712)" fill="#fff" opacity="0.25"/>
  </g>
  <path id="Path_9650" data-name="Path 9650" d="M116.981,39.444a5.941,5.941,0,0,0-6.073,6.073,6.028,6.028,0,0,0,6.073,6.073,5.941,5.941,0,0,0,6.073-6.073A5.859,5.859,0,0,0,116.981,39.444Zm0,9.6a3.684,3.684,0,0,1,0-7.344,3.421,3.421,0,0,1,3.389,3.672A3.505,3.505,0,0,1,116.981,49.047Zm-13.134-9.6a5.941,5.941,0,0,0-6.073,6.073,6.028,6.028,0,0,0,6.073,6.073,5.941,5.941,0,0,0,6.073-6.073A5.859,5.859,0,0,0,103.848,39.444Zm0,9.6a3.684,3.684,0,0,1,0-7.344,3.421,3.421,0,0,1,3.389,3.672A3.505,3.505,0,0,1,103.848,49.047ZM88.172,41.28v2.542h6.073a5.34,5.34,0,0,1-1.412,3.248,6.251,6.251,0,0,1-4.66,1.836,6.575,6.575,0,0,1-6.637-6.779,6.662,6.662,0,0,1,6.637-6.779,7,7,0,0,1,4.66,1.836l1.836-1.836a9.05,9.05,0,0,0-6.355-2.542,9.322,9.322,0,1,0,0,18.641,8.127,8.127,0,0,0,6.5-2.683,8.5,8.5,0,0,0,2.26-5.931,5.3,5.3,0,0,0-.141-1.553Zm64.115,1.977a5.487,5.487,0,0,0-5.084-3.813c-3.107,0-5.649,2.4-5.649,6.073a5.91,5.91,0,0,0,5.931,6.073,5.793,5.793,0,0,0,4.943-2.683l-1.977-1.412a3.442,3.442,0,0,1-2.966,1.695,3.064,3.064,0,0,1-2.966-1.836l8.05-3.389-.282-.706ZM144.1,45.234A3.431,3.431,0,0,1,147.2,41.7a2.5,2.5,0,0,1,2.26,1.271l-5.366,2.26Zm-6.637,5.79h2.683V33.372h-2.683Zm-4.237-10.309a4.65,4.65,0,0,0-3.248-1.412,6.068,6.068,0,0,0-5.79,6.073,5.848,5.848,0,0,0,5.79,5.931,4.055,4.055,0,0,0,3.107-1.412h.141v.847c0,2.26-1.271,3.531-3.248,3.531a3.138,3.138,0,0,1-2.966-2.118l-2.26.989a5.826,5.826,0,0,0,5.366,3.531c3.107,0,5.649-1.836,5.649-6.214V39.727h-2.542Zm-3.107,8.332a3.684,3.684,0,0,1,0-7.344,3.4,3.4,0,0,1,3.248,3.672A3.4,3.4,0,0,1,130.115,49.047Zm34.458-15.676h-6.355V51.024H160.9V44.387h3.672a5.515,5.515,0,1,0,0-11.015Zm.141,8.473H160.9V35.772h3.813a3.1,3.1,0,0,1,3.107,2.966,3.232,3.232,0,0,1-3.107,3.107ZM180.955,39.3a4.747,4.747,0,0,0-4.66,2.683l2.4.989a2.5,2.5,0,0,1,2.4-1.271,2.654,2.654,0,0,1,2.824,2.26V44.1a5.6,5.6,0,0,0-2.683-.706c-2.542,0-5.084,1.412-5.084,3.954a4.137,4.137,0,0,0,4.378,3.954,3.974,3.974,0,0,0,3.389-1.695h.141v1.412H186.6V44.246A5.345,5.345,0,0,0,180.955,39.3Zm-.282,9.744c-.847,0-2.118-.424-2.118-1.553,0-1.412,1.553-1.836,2.824-1.836a5.461,5.461,0,0,1,2.4.565A3.289,3.289,0,0,1,180.673,49.047ZM195.5,39.727l-2.966,7.626h-.141l-3.107-7.626h-2.824l4.66,10.733-2.683,5.931h2.683l7.2-16.664Zm-23.725,11.3h2.683V33.372h-2.683Z" transform="translate(-22.6 -15.567)" fill="#fff"/>
</svg>
