<svg xmlns="http://www.w3.org/2000/svg" xmlns:xlink="http://www.w3.org/1999/xlink" width="49" height="49" viewBox="0 0 49 49">
  <defs>
    <clipPath id="clip-path">
      <rect id="Rectangle_542" data-name="Rectangle 542" width="49" height="49" transform="translate(1292 1061)" fill="none"/>
    </clipPath>
  </defs>
  <g id="Group_1144" data-name="Group 1144" transform="translate(-1292 -1061)">
    <g id="Group_1143" data-name="Group 1143" clip-path="url(#clip-path)">
      <g id="Group_1142" data-name="Group 1142" style="isolation: isolate">
        <g id="Group_1141" data-name="Group 1141">
          <g id="Group_1140" data-name="Group 1140" clip-path="url(#clip-path)">
            <path id="Path_936" data-name="Path 936" d="M1296.9,1078.741a1.432,1.432,0,0,1,.56-.946l18.183-13.637a1.447,1.447,0,0,1,1.723,0l18.184,13.638a1.436,1.436,0,1,1-1.722,2.3l-16.462-12.346a1.434,1.434,0,0,0-1.722,0l-16.461,12.346a1.436,1.436,0,0,1-2.283-1.352Zm30.611-14.87h2.871v6.459l-2.871-2.153Zm-24.883,33.5V1081.1l13.877-10.407,13.877,10.407v16.27Zm-4.915-14.16a4.289,4.289,0,0,0,2.044-.2v15.8a1.435,1.435,0,0,0,1.436,1.435h30.625a1.435,1.435,0,0,0,1.435-1.435v-15.8a4.269,4.269,0,0,0,1.433.246,4.329,4.329,0,0,0,3.448-1.723,4.307,4.307,0,0,0-.862-6.03l-4.019-3.014v-10.048a1.436,1.436,0,0,0-1.435-1.436h-5.743a1.435,1.435,0,0,0-1.435,1.436v3.588l-5.552-4.164a4.334,4.334,0,0,0-5.167,0l-18.183,13.638a4.307,4.307,0,0,0,1.975,7.709Z" fill="#5f27cd"/>
            <path id="Path_937" data-name="Path 937" d="M1340.58,1103.721l-3.829-3.828a1.435,1.435,0,0,0-2.03,2.03l1.378,1.378h-39.2l1.378-1.378a1.435,1.435,0,0,0-2.03-2.03l-3.828,3.828a1.435,1.435,0,0,0,0,2.03l3.828,3.828a1.435,1.435,0,0,0,2.03-2.03l-1.378-1.377h39.2l-1.378,1.377a1.435,1.435,0,1,0,2.03,2.03l3.828-3.828a1.436,1.436,0,0,0,0-2.03Z" fill="#5f27cd"/>
            <path id="Path_938" data-name="Path 938" d="M1323.678,1089.711h-5.742v-5.742h5.742Zm-14.356-5.742h5.742v5.742h-5.742Zm15.791-2.871h-17.226a1.435,1.435,0,0,0-1.436,1.435v8.613a1.436,1.436,0,0,0,1.436,1.436h17.226a1.436,1.436,0,0,0,1.436-1.436v-8.613A1.435,1.435,0,0,0,1325.113,1081.1Z" fill="#5f27cd"/>
          </g>
        </g>
      </g>
    </g>
  </g>
</svg>
