<svg id="ios" xmlns="http://www.w3.org/2000/svg" xmlns:xlink="http://www.w3.org/1999/xlink" width="187.58" height="55.594" viewBox="0 0 187.58 55.594">
  <defs>
    <linearGradient id="linear-gradient" x1="0.5" x2="0.5" y2="1" gradientUnits="objectBoundingBox">
      <stop offset="0" stop-color="gray" stop-opacity="0.522"/>
      <stop offset="0.502" stop-color="#414040" stop-opacity="0.388"/>
      <stop offset="0.703" stop-color="#666" stop-opacity="0.239"/>
      <stop offset="1" stop-color="#666" stop-opacity="0.18"/>
    </linearGradient>
  </defs>
  <path id="Path_9643" data-name="Path 9643" d="M186.807,49.5a5.324,5.324,0,0,1-5.33,5.325H7.046A5.331,5.331,0,0,1,1.709,49.5V7.04A5.338,5.338,0,0,1,7.046,1.708h174.43a5.33,5.33,0,0,1,5.33,5.332V49.5Z" transform="translate(-0.471 -0.471)" fill="#fff"/>
  <path id="Path_9644" data-name="Path 9644" d="M181.006,55.594H6.574A6.576,6.576,0,0,1,0,49.03V6.57A6.58,6.58,0,0,1,6.574,0H181a6.583,6.583,0,0,1,6.574,6.57V49.03a6.575,6.575,0,0,1-6.573,6.563Z" fill="none"/>
  <path id="Path_9645" data-name="Path 9645" d="M186.807,49.5a5.324,5.324,0,0,1-5.33,5.325H7.046A5.331,5.331,0,0,1,1.709,49.5V7.04A5.338,5.338,0,0,1,7.046,1.708h174.43a5.33,5.33,0,0,1,5.33,5.332V49.5Z" transform="translate(-0.471 -0.471)" fill="#141c60"/>
  <path id="Path_9646" data-name="Path 9646" d="M48.656,30.8a8.059,8.059,0,0,1,3.838-6.762,8.254,8.254,0,0,0-6.5-3.514c-2.735-.288-5.387,1.636-6.78,1.636-1.421,0-3.566-1.608-5.878-1.561a8.655,8.655,0,0,0-7.285,4.443c-3.15,5.454-.8,13.469,2.218,17.877,1.51,2.16,3.274,4.57,5.583,4.485,2.259-.092,3.1-1.439,5.829-1.439,2.7,0,3.494,1.439,5.849,1.385,2.425-.038,3.951-2.169,5.408-4.347a17.825,17.825,0,0,0,2.473-5.037A7.8,7.8,0,0,1,48.656,30.8ZM44.207,17.619a7.933,7.933,0,0,0,1.816-5.685,8.081,8.081,0,0,0-5.225,2.7,7.549,7.549,0,0,0-1.863,5.475,6.674,6.674,0,0,0,5.272-2.493Z" transform="translate(-6.771 -3.291)" fill="#fff"/>
  <path id="Path_9647" data-name="Path 9647" d="M214.349,0H120.919l36.6,55.594h56.835a6.58,6.58,0,0,0,6.574-6.567V6.57A6.581,6.581,0,0,0,214.349,0Z" transform="translate(-33.344)" fill="url(#linear-gradient)"/>
  <g id="Group_6202" data-name="Group 6202" transform="translate(58.987 18.505)">
    <path id="Path_9648" data-name="Path 9648" d="M97.066,53.325H93.909l-1.729-5.434H86.168L84.52,53.325H81.447l5.957-18.5h3.679Zm-5.408-7.714L90.094,40.78q-.248-.74-.933-3.485h-.055q-.275,1.18-.879,3.485l-1.538,4.831h4.969Zm20.7.88a7.554,7.554,0,0,1-1.849,5.379,5.421,5.421,0,0,1-4.112,1.757,4.117,4.117,0,0,1-3.809-1.892v7H99.621V44.369q0-2.138-.11-4.385h2.607l.165,2.115h.055a5.273,5.273,0,0,1,8.44-.524A7.378,7.378,0,0,1,112.356,46.491Zm-3.02.108a5.5,5.5,0,0,0-.879-3.213,3.037,3.037,0,0,0-2.58-1.316,3.082,3.082,0,0,0-1.989.727,3.372,3.372,0,0,0-1.166,1.909,3.87,3.87,0,0,0-.138.9v2.226a3.569,3.569,0,0,0,.893,2.458,2.963,2.963,0,0,0,2.319,1A3.037,3.037,0,0,0,108.4,50,5.679,5.679,0,0,0,109.336,46.6Zm18.364-.108a7.555,7.555,0,0,1-1.849,5.379,5.425,5.425,0,0,1-4.114,1.757,4.117,4.117,0,0,1-3.809-1.892v7h-2.964V44.369q0-2.138-.11-4.385h2.607l.165,2.115h.056a5.274,5.274,0,0,1,8.441-.524,7.384,7.384,0,0,1,1.576,4.916Zm-3.021.108a5.5,5.5,0,0,0-.88-3.213,3.032,3.032,0,0,0-2.577-1.316,3.1,3.1,0,0,0-1.992.727,3.371,3.371,0,0,0-1.165,1.909,3.96,3.96,0,0,0-.139.9v2.226a3.582,3.582,0,0,0,.891,2.458,2.969,2.969,0,0,0,2.322,1A3.034,3.034,0,0,0,123.744,50,5.678,5.678,0,0,0,124.679,46.6Zm20.176,1.536a4.942,4.942,0,0,1-1.645,3.844,7.29,7.29,0,0,1-5.04,1.62,8.8,8.8,0,0,1-4.791-1.152l.685-2.47a8.246,8.246,0,0,0,4.282,1.154,4.04,4.04,0,0,0,2.607-.755,2.466,2.466,0,0,0,.936-2.016,2.583,2.583,0,0,0-.77-1.895,7.14,7.14,0,0,0-2.552-1.426q-4.859-1.812-4.86-5.3a4.679,4.679,0,0,1,1.716-3.733,6.783,6.783,0,0,1,4.543-1.455,8.978,8.978,0,0,1,4.2.879l-.744,2.416a7.344,7.344,0,0,0-3.555-.851,3.615,3.615,0,0,0-2.452.769,2.2,2.2,0,0,0-.744,1.677,2.266,2.266,0,0,0,.852,1.812,9.6,9.6,0,0,0,2.689,1.426,9.116,9.116,0,0,1,3.513,2.249,4.687,4.687,0,0,1,1.13,3.208Zm9.825-5.927h-3.267v6.477q0,2.471,1.73,2.469a5.213,5.213,0,0,0,1.317-.138l.082,2.251a6.712,6.712,0,0,1-2.305.328,3.553,3.553,0,0,1-2.746-1.072,5.256,5.256,0,0,1-.988-3.6V42.2h-1.946V39.979H148.5V37.536l2.911-.879v3.321h3.267v2.23Zm14.711,4.336a7.318,7.318,0,0,1-1.757,5.051,6.264,6.264,0,0,1-4.885,2.031,5.971,5.971,0,0,1-4.681-1.946,7.1,7.1,0,0,1-1.743-4.913,7.259,7.259,0,0,1,1.8-5.077,6.231,6.231,0,0,1,4.846-1.977,6.1,6.1,0,0,1,4.72,1.949A7,7,0,0,1,169.392,46.545Zm-3.072.068a5.973,5.973,0,0,0-.794-3.148,2.934,2.934,0,0,0-2.664-1.589,2.976,2.976,0,0,0-2.718,1.589,6.072,6.072,0,0,0-.8,3.2,5.956,5.956,0,0,0,.8,3.149,3.04,3.04,0,0,0,5.357-.026A6,6,0,0,0,166.319,46.613Zm12.71-4.022a5.147,5.147,0,0,0-.934-.082,2.8,2.8,0,0,0-2.416,1.182,4.451,4.451,0,0,0-.74,2.634v7h-2.964V44.186q0-2.3-.086-4.2h2.582l.108,2.552h.082a4.577,4.577,0,0,1,1.482-2.115,3.584,3.584,0,0,1,2.142-.715,4.745,4.745,0,0,1,.741.054Zm13.257,3.432a6.949,6.949,0,0,1-.109,1.344h-8.892a3.869,3.869,0,0,0,1.29,3.022,4.411,4.411,0,0,0,2.908.931,9.835,9.835,0,0,0,3.6-.63l.464,2.056a11.123,11.123,0,0,1-4.472.824,6.484,6.484,0,0,1-4.874-1.824,6.744,6.744,0,0,1-1.77-4.9,7.642,7.642,0,0,1,1.649-5.021,5.681,5.681,0,0,1,4.664-2.14,4.971,4.971,0,0,1,4.367,2.14A7.2,7.2,0,0,1,192.286,46.024Zm-2.826-.769a4.013,4.013,0,0,0-.576-2.279,2.588,2.588,0,0,0-2.361-1.237,2.81,2.81,0,0,0-2.359,1.208,4.427,4.427,0,0,0-.877,2.3Z" transform="translate(-81.447 -34.55)" fill="#fff"/>
  </g>
</svg>
