<svg xmlns="http://www.w3.org/2000/svg" width="344.793" height="73.203" viewBox="0 0 344.793 73.203">
  <g id="logo1" transform="translate(-239.102 -259.034)">
    <circle id="Ellipse_1" data-name="Ellipse 1" cx="9.923" cy="9.923" r="9.923" transform="translate(343.193 261.835)" fill="#ffc200"/>
    <g id="Group_1" data-name="Group 1" transform="translate(239.102 259.034)">
      <path id="Path_1" data-name="Path 1" d="M421,303c0-12.132-8.428-16.544-21.393-16.544-8.66,0-14.073,3.384-19.166,3.384a23.238,23.238,0,0,1-5.136-.623v39.549a4.9,4.9,0,0,0,4.9,4.9H390.4V302.21c0-5.178,3.474-7.761,7.761-7.761s7.761,2.583,7.761,7.761v26.552a4.9,4.9,0,0,0,4.894,4.9H423.53A10.488,10.488,0,0,1,421,326.814Z" transform="translate(-246.177 -260.458)" fill="#fff"/>
      <path id="Path_2" data-name="Path 2" d="M366.4,306.151v-7.756l0,0v-7.04a4.9,4.9,0,0,0-4.9-4.9H348.786a10.487,10.487,0,0,1,2.523,6.842V321.2l0,0v7.562a4.9,4.9,0,0,0,4.895,4.9h12.715a10.492,10.492,0,0,1-2.523-6.843Z" transform="translate(-244.8 -260.458)" fill="#fff"/>
      <path id="Path_3" data-name="Path 3" d="M574.532,330.145,556.05,306.889l-.1-.124L572.1,286.452H561.552l-10.872,13.68-6.633-8.347,0,0h-.006a14.833,14.833,0,0,0-11.4-5.336h-12.3l2.757,3.47,17.851,22.46-16.876,21.234h10.544l11.6-14.6,7.277,9.157.036.046a14.838,14.838,0,0,0,11.461,5.4h12.3Z" transform="translate(-253.711 -260.458)" fill="#fff"/>
      <path id="Path_4" data-name="Path 4" d="M457.483,325.362H450.46V314.184h8.019v-8.255H450.46v-7.534l0,0v-7.04a4.895,4.895,0,0,0-4.895-4.9H432.847a10.482,10.482,0,0,1,2.523,6.842v12.635h-3.923v8.255h3.923v7.02l0,0v7.562a4.9,4.9,0,0,0,4.9,4.9h12.714c-.011-.014-.022-.03-.034-.045h12.542c0-.079.011-.156.011-.236A8.018,8.018,0,0,0,457.483,325.362Z" transform="translate(-249.093 -260.458)" fill="#fff"/>
      <path id="Path_5" data-name="Path 5" d="M340.887,314.175V303c0-10.008-5.739-14.758-15.023-16.116a41.369,41.369,0,0,0-4.655-.4l-.072,0q-.789-.024-1.6-.025l-.165,0v0h-24.1c0,.046-.007.09-.007.137a7.9,7.9,0,0,0,7.875,7.875h14.607l.049,0c.085,0,.168-.012.254-.012l.032,0,.032,0c4.171,0,7.562,2.452,7.743,7.353l0,4.124h-30.6v11.192c0,12.132,8.428,16.544,21.393,16.544a38.627,38.627,0,0,0,10.463-1.569c3.269-.885,6.033-1.815,8.7-1.815a23.3,23.3,0,0,1,5.136.623v-2.965a10.671,10.671,0,0,1-.064-1.121Zm-15.023.179V317.9a10.662,10.662,0,0,1-.063,1.108l0,.016h0a6.9,6.9,0,0,1-4.887,6.22l-.1.027c-.187.057-.374.11-.568.154-.065.015-.134.024-.2.038-.163.033-.325.067-.492.092-.123.018-.251.028-.376.041s-.225.028-.339.037q-.363.026-.734.026c-4.288,0-7.761-2.582-7.761-7.76v-3.729h15.522Z" transform="translate(-242.019 -260.458)" fill="#fff"/>
      <path id="Path_6" data-name="Path 6" d="M492.469,286.452a38.628,38.628,0,0,0-10.463,1.569c-3.269.885-6.033,1.815-8.7,1.815a23.239,23.239,0,0,1-5.136-.623v2.966a10.63,10.63,0,0,1,.064,1.12v23.82c0,10.007,5.739,14.757,15.023,16.116a41.614,41.614,0,0,0,4.655.4l.072,0q.789.024,1.6.025c.055,0,.109,0,.165,0h0v0h24.1c0-.046.007-.091.007-.137a7.9,7.9,0,0,0-7.875-7.875H491.38l-.049,0c-.085,0-.168.012-.254.012h-.064c-4.171,0-7.562-2.451-7.743-7.352l0-4.125h30.6V303C513.861,290.863,505.432,286.452,492.469,286.452Zm6.306,19.486H483.254V302.21a10.647,10.647,0,0,1,.063-1.108l0-.017h0a6.9,6.9,0,0,1,4.887-6.22c.032-.01.066-.017.1-.027.187-.057.374-.111.568-.155.065-.015.134-.025.2-.038.163-.033.325-.067.492-.092.123-.018.25-.027.376-.041s.225-.029.339-.037c.242-.017.486-.027.734-.027,4.288,0,7.76,2.583,7.76,7.761Z" transform="translate(-251.001 -260.458)" fill="#fff"/>
      <path id="Path_7" data-name="Path 7" d="M263.4,259.034c-8.66,0-14.073,3.384-19.166,3.384a23.313,23.313,0,0,1-5.137-.623v65.543a4.9,4.9,0,0,0,4.9,4.9H254.19V312.794H267.7a17.09,17.09,0,0,0,17.1-17.08V275.577C284.8,263.445,276.368,259.034,263.4,259.034Zm6.306,19.689v17.046h0a8.77,8.77,0,0,1-8.769,8.77H254.19V274.791c0-5.178,3.474-7.76,7.761-7.76s7.76,2.582,7.76,7.76Z" transform="translate(-239.102 -259.034)" fill="#fff"/>
    </g>
    <g id="Group_3" data-name="Group 3" transform="translate(569.437 285.028)">
      <g id="Group_2" data-name="Group 2" transform="translate(0 0)">
        <path id="Path_8" data-name="Path 8" d="M601.995,293.681a7.229,7.229,0,1,1-7.218-7.229A7.219,7.219,0,0,1,601.995,293.681Zm-7.223-6.356a6.357,6.357,0,1,0,6.351,6.361A6.366,6.366,0,0,0,594.771,287.325Z" transform="translate(-587.536 -286.452)" fill="#ffc200"/>
        <path id="Path_9" data-name="Path 9" d="M598.894,292.583l-.97,3.833h-.967l-.964-3.833-.016,0v3.831h-.922v-4.952h.093c.43,0,.861,0,1.291,0,.082,0,.117.021.138.1q.42,1.6.848,3.195c0,.016.009.032.023.074l.132-.491q.367-1.392.732-2.786c.018-.069.043-.1.12-.1.436,0,.872,0,1.308,0h.093v4.951h-.915v-3.831Z" transform="translate(-587.927 -286.712)" fill="#ffc200"/>
        <path id="Path_10" data-name="Path 10" d="M592.695,296.418h-1V292.3h-1.469v-.832h3.932v.828h-1.466Z" transform="translate(-587.676 -286.713)" fill="#ffc200"/>
      </g>
    </g>
  </g>
</svg>
