<svg xmlns="http://www.w3.org/2000/svg" width="139" height="29.511" viewBox="0 0 139 29.511">
  <g id="logo" transform="translate(-239.102 -259.034)">
    <circle id="Ellipse_2" data-name="Ellipse 2" cx="4" cy="4" r="4" transform="translate(281.065 260.163)" fill="#ffc200"/>
    <g id="Group_18" data-name="Group 18" transform="translate(239.102 259.034)">
      <g id="Group_17" data-name="Group 17">
        <path id="Path_269" data-name="Path 269" d="M393.729,293.121c0-4.891-3.4-6.669-8.624-6.669-3.491,0-5.673,1.364-7.727,1.364a9.365,9.365,0,0,1-2.07-.251v15.944a1.974,1.974,0,0,0,1.974,1.975h4.108V292.8a3.129,3.129,0,0,1,6.257,0v10.7a1.974,1.974,0,0,0,1.973,1.975h5.128a4.228,4.228,0,0,1-1.019-2.76Z" transform="translate(-323.25 -275.973)" fill="#341f97"/>
        <path id="Path_270" data-name="Path 270" d="M355.886,294.393v-3.127h0v-2.838a1.973,1.973,0,0,0-1.974-1.975h-5.126a4.228,4.228,0,0,1,1.017,2.758v14.3a1.974,1.974,0,0,0,1.973,1.976H356.9a4.23,4.23,0,0,1-1.017-2.759Z" transform="translate(-306.865 -275.973)" fill="#341f97"/>
        <path id="Path_271" data-name="Path 271" d="M542.185,304.066l-7.451-9.375-.04-.05,6.508-8.189h-4.25l-4.383,5.515-2.674-3.365h0a5.98,5.98,0,0,0-4.6-2.151h-4.957l1.111,1.4,7.2,9.055-6.8,8.56h4.251l4.678-5.886,2.934,3.692.015.018a5.982,5.982,0,0,0,4.62,2.176H543.3Z" transform="translate(-412.849 -275.973)" fill="#341f97"/>
        <path id="Path_272" data-name="Path 272" d="M441.943,302.138h-2.831v-4.506h3.233V294.3h-3.233v-3.037h0v-2.838a1.973,1.973,0,0,0-1.973-1.975h-5.126a4.226,4.226,0,0,1,1.017,2.758V294.3h-1.581v3.328h1.581v5.877A1.974,1.974,0,0,0,435,305.484h5.126l-.014-.018h5.056c0-.032,0-.063,0-.1A3.233,3.233,0,0,0,441.943,302.138Z" transform="translate(-357.933 -275.973)" fill="#341f97"/>
        <path id="Path_273" data-name="Path 273" d="M313.652,297.628v-4.507c0-4.034-2.313-5.95-6.056-6.5a16.679,16.679,0,0,0-1.877-.161h-.029q-.318-.01-.647-.01l-.067,0H295.26c0,.018,0,.036,0,.055a3.185,3.185,0,0,0,3.175,3.175h5.908c.034,0,.068,0,.1,0h.026a2.906,2.906,0,0,1,3.121,2.964l0,1.663H295.257v4.512c0,4.891,3.4,6.669,8.624,6.669a15.573,15.573,0,0,0,4.218-.633,14.259,14.259,0,0,1,3.509-.732,9.393,9.393,0,0,1,2.07.251v-1.2a4.3,4.3,0,0,1-.026-.452Zm-6.056.072v1.431a4.286,4.286,0,0,1-.025.447v.006h0a2.783,2.783,0,0,1-1.97,2.508l-.04.011c-.075.023-.151.044-.229.062-.026.006-.054.01-.081.015-.066.013-.131.027-.2.037-.05.007-.1.011-.152.016s-.091.012-.137.015q-.146.01-.3.01a2.921,2.921,0,0,1-3.129-3.128v-1.5H307.6Z" transform="translate(-273.795 -275.973)" fill="#341f97"/>
        <path id="Path_274" data-name="Path 274" d="M477.964,286.452a15.571,15.571,0,0,0-4.218.633,14.277,14.277,0,0,1-3.509.732,9.366,9.366,0,0,1-2.07-.251v1.2a4.281,4.281,0,0,1,.026.451v9.6c0,4.034,2.314,5.949,6.056,6.5a16.78,16.78,0,0,0,1.877.161h.029q.318.01.647.01l.067,0h9.717c0-.019,0-.037,0-.055a3.185,3.185,0,0,0-3.175-3.175h-5.908c-.034,0-.068,0-.1,0h-.026a2.905,2.905,0,0,1-3.121-2.964l0-1.663h12.335v-4.512C486.588,288.23,483.19,286.452,477.964,286.452Zm2.542,7.856h-6.257v-1.5a4.3,4.3,0,0,1,.025-.447v-.007h0a2.783,2.783,0,0,1,1.97-2.508l.04-.011c.075-.023.151-.045.229-.062.026-.006.054-.01.081-.015.066-.013.131-.027.2-.037.05-.007.1-.011.152-.016s.091-.012.137-.015c.1-.007.2-.011.3-.011a2.921,2.921,0,0,1,3.128,3.129Z" transform="translate(-380.619 -275.973)" fill="#341f97"/>
        <path id="Path_275" data-name="Path 275" d="M248.9,259.034c-3.491,0-5.673,1.364-7.727,1.364a9.4,9.4,0,0,1-2.071-.251V286.57a1.974,1.974,0,0,0,1.974,1.975h4.108v-7.838h5.447a6.89,6.89,0,0,0,6.892-6.886V265.7C257.524,260.812,254.126,259.034,248.9,259.034Zm2.542,7.938v6.872h0a3.535,3.535,0,0,1-3.535,3.535h-2.722V265.386a3.128,3.128,0,0,1,6.257,0Z" transform="translate(-239.102 -259.034)" fill="#341f97"/>
      </g>
    </g>
    <g id="Group_20" data-name="Group 20" transform="translate(372.273 269.513)">
      <g id="Group_19" data-name="Group 19" transform="translate(0 0)">
        <path id="Path_276" data-name="Path 276" d="M593.365,289.366a2.914,2.914,0,1,1-2.91-2.914A2.91,2.91,0,0,1,593.365,289.366Zm-2.912-2.562a2.563,2.563,0,1,0,2.56,2.564A2.566,2.566,0,0,0,590.453,286.8Z" transform="translate(-587.536 -286.452)" fill="#ffc200"/>
        <path id="Path_277" data-name="Path 277" d="M596.6,291.914l-.391,1.545h-.39l-.389-1.545h-.006v1.544h-.372v-2h.037c.173,0,.347,0,.521,0,.033,0,.047.008.056.042q.169.644.342,1.288l.009.03.053-.2q.148-.561.3-1.123c.007-.028.017-.039.048-.039.176,0,.352,0,.527,0h.037v2h-.369v-1.544Z" transform="translate(-592.181 -289.547)" fill="#ffc200"/>
        <path id="Path_278" data-name="Path 278" d="M591.223,293.465h-.4v-1.659h-.592v-.336h1.585v.334h-.591Z" transform="translate(-589.2 -289.552)" fill="#ffc200"/>
      </g>
    </g>
  </g>
</svg>
