<svg xmlns="http://www.w3.org/2000/svg" xmlns:xlink="http://www.w3.org/1999/xlink" width="53" height="53" viewBox="0 0 53 53">
  <defs>
    <clipPath id="clip-path">
      <rect id="Rectangle_2516" data-name="Rectangle 2516" width="53" height="53" transform="translate(413 2637)" fill="#141c60" stroke="#707070" stroke-width="1"/>
    </clipPath>
  </defs>
  <g id="Mask_Group_193" data-name="Mask Group 193" transform="translate(-413 -2637)" clip-path="url(#clip-path)">
    <path id="paint-can_3_" data-name="paint-can (3)" d="M52.021,13.019H46.97V6.451A3.858,3.858,0,0,0,43.116,2.6H9.883A3.858,3.858,0,0,0,6.03,6.451v6.568H.978A.979.979,0,0,0,0,14V25.586c0,4.109,1.417,6.484,4.6,7.7a11.981,11.981,0,0,0,1.435.438V46.549A3.858,3.858,0,0,0,9.884,50.4H43.116a3.858,3.858,0,0,0,3.854-3.854V33.724a12.036,12.036,0,0,0,1.434-.438c3.178-1.217,4.6-3.591,4.6-7.7V14A.979.979,0,0,0,52.021,13.019Zm-27.6-.578a3.461,3.461,0,0,0-3.409,3.494.986.986,0,0,0-.018.186V19.2a1.831,1.831,0,1,1-3.649,0V4.554h18.31v11.2c0,1.055-.137,1.073-1.028,1.194-1.031.14-2.95.4-2.95,3.657v3.179a1.922,1.922,0,1,1-3.843,0v-5.1l.014-2.309C27.848,14.06,26.439,12.441,24.422,12.441ZM7.987,6.451a1.9,1.9,0,0,1,1.9-1.9h5.5V19.2a3.785,3.785,0,1,0,7.563,0V16.378c0-.2.041-1.981,1.47-1.981s1.47,1.778,1.47,1.975l-.014,2.309v5.1a3.879,3.879,0,1,0,7.757,0V20.606c0-1.548.317-1.591,1.256-1.718s2.722-.37,2.722-3.133V4.554h5.5a1.9,1.9,0,0,1,1.9,1.9V32.113a63.066,63.066,0,0,1-8.509.4V31.328a1.8,1.8,0,0,0-1.817-1.783H18.313A1.8,1.8,0,0,0,16.5,31.328v1.185a63.036,63.036,0,0,1-8.509-.4V6.451ZM18.453,31.5H34.547v3.982H18.453ZM5.3,31.459c-1.734-.664-3.338-1.834-3.338-5.873V14.976H6.03V31.7C5.774,31.626,5.526,31.547,5.3,31.459Zm39.718,15.09a1.9,1.9,0,0,1-1.9,1.9H9.883a1.9,1.9,0,0,1-1.9-1.9V34.087a67.71,67.71,0,0,0,8.509.384v1.187a1.8,1.8,0,0,0,1.817,1.783H34.687A1.8,1.8,0,0,0,36.5,35.658V34.47a67.72,67.72,0,0,0,8.509-.384V46.549Zm6.03-20.963c0,4.038-1.6,5.209-3.338,5.873-.231.088-.479.167-.735.241V14.976h4.073Z" transform="translate(413 2637)" fill="#141c60"/>
  </g>
</svg>
