<svg xmlns="http://www.w3.org/2000/svg" xmlns:xlink="http://www.w3.org/1999/xlink" width="53" height="53" viewBox="0 0 53 53">
  <defs>
    <clipPath id="clip-path">
      <rect id="Rectangle_2516" data-name="Rectangle 2516" width="53" height="53" transform="translate(413 2637)" fill="#341f97" stroke="#707070" stroke-width="1"/>
    </clipPath>
  </defs>
  <g id="Mask_Group_194" data-name="Mask Group 194" transform="translate(-413 -2637)" clip-path="url(#clip-path)">
    <g id="building_1_" data-name="building (1)" transform="translate(413 2637)">
      <g id="Group_4929" data-name="Group 4929">
        <g id="Group_4928" data-name="Group 4928">
          <path id="Path_8870" data-name="Path 8870" d="M52.117,51.233h-5.3V22.083a.883.883,0,0,0-.883-.883H33.567V.883A.883.883,0,0,0,32.683,0H9.717a.883.883,0,0,0-.883.883v50.35H.883A.883.883,0,1,0,.883,53H52.117a.883.883,0,1,0,0-1.767Zm-33.567,0H15.017v-7.95A.883.883,0,0,1,15.9,42.4h1.767a.883.883,0,0,1,.883.883Zm3.533-29.15v29.15H20.317v-7.95a2.65,2.65,0,0,0-2.65-2.65H15.9a2.65,2.65,0,0,0-2.65,2.65v7.95H10.6V1.767H31.8V21.2H22.967A.883.883,0,0,0,22.083,22.083ZM45.05,51.233H23.85V22.967h21.2Z" fill="#341f97"/>
          <path id="Path_8871" data-name="Path 8871" d="M28.267,12.367h-5.3a.883.883,0,0,0-.883.883v5.3a.883.883,0,0,0,.883.883h5.3a.883.883,0,0,0,.883-.883v-5.3A.883.883,0,0,0,28.267,12.367Zm-.883,5.3H23.85V14.133h3.533Z" fill="#341f97"/>
          <path id="Path_8872" data-name="Path 8872" d="M28.267,3.533h-5.3a.883.883,0,0,0-.883.883v5.3a.883.883,0,0,0,.883.883h5.3a.883.883,0,0,0,.883-.883v-5.3A.883.883,0,0,0,28.267,3.533Zm-.883,5.3H23.85V5.3h3.533Z" fill="#341f97"/>
          <path id="Path_8873" data-name="Path 8873" d="M19.433,12.367h-5.3a.883.883,0,0,0-.883.883v5.3a.883.883,0,0,0,.883.883h5.3a.883.883,0,0,0,.883-.883v-5.3A.883.883,0,0,0,19.433,12.367Zm-.883,5.3H15.017V14.133H18.55Z" fill="#341f97"/>
          <path id="Path_8874" data-name="Path 8874" d="M19.433,3.533h-5.3a.883.883,0,0,0-.883.883v5.3a.883.883,0,0,0,.883.883h5.3a.883.883,0,0,0,.883-.883v-5.3A.883.883,0,0,0,19.433,3.533Zm-.883,5.3H15.017V5.3H18.55Z" fill="#341f97"/>
          <path id="Path_8875" data-name="Path 8875" d="M19.433,21.2h-5.3a.883.883,0,0,0-.883.883v5.3a.883.883,0,0,0,.883.883h5.3a.883.883,0,0,0,.883-.883v-5.3A.883.883,0,0,0,19.433,21.2Zm-.883,5.3H15.017V22.967H18.55Z" fill="#341f97"/>
          <path id="Path_8876" data-name="Path 8876" d="M19.433,30.033h-5.3a.883.883,0,0,0-.883.883v5.3a.883.883,0,0,0,.883.883h5.3a.883.883,0,0,0,.883-.883v-5.3A.883.883,0,0,0,19.433,30.033Zm-.883,5.3H15.017V31.8H18.55Z" fill="#341f97"/>
          <path id="Path_8877" data-name="Path 8877" d="M36.217,40.633h5.3a.883.883,0,0,0,.883-.883v-5.3a.883.883,0,0,0-.883-.883h-5.3a.883.883,0,0,0-.883.883v5.3A.883.883,0,0,0,36.217,40.633Zm.883-5.3h3.533v3.533H37.1Z" fill="#341f97"/>
          <path id="Path_8878" data-name="Path 8878" d="M36.217,31.8h5.3a.883.883,0,0,0,.883-.883v-5.3a.883.883,0,0,0-.883-.883h-5.3a.883.883,0,0,0-.883.883v5.3A.883.883,0,0,0,36.217,31.8Zm.883-5.3h3.533v3.533H37.1Z" fill="#341f97"/>
          <path id="Path_8879" data-name="Path 8879" d="M36.217,49.467h5.3a.883.883,0,0,0,.883-.883v-5.3a.883.883,0,0,0-.883-.883h-5.3a.883.883,0,0,0-.883.883v5.3A.883.883,0,0,0,36.217,49.467Zm.883-5.3h3.533V47.7H37.1Z" fill="#341f97"/>
          <path id="Path_8880" data-name="Path 8880" d="M27.383,40.633h5.3a.883.883,0,0,0,.883-.883v-5.3a.883.883,0,0,0-.883-.883h-5.3a.883.883,0,0,0-.883.883v5.3A.883.883,0,0,0,27.383,40.633Zm.883-5.3H31.8v3.533H28.267Z" fill="#341f97"/>
          <path id="Path_8881" data-name="Path 8881" d="M27.383,31.8h5.3a.883.883,0,0,0,.883-.883v-5.3a.883.883,0,0,0-.883-.883h-5.3a.883.883,0,0,0-.883.883v5.3A.883.883,0,0,0,27.383,31.8Zm.883-5.3H31.8v3.533H28.267Z" fill="#341f97"/>
          <path id="Path_8882" data-name="Path 8882" d="M27.383,49.467h5.3a.883.883,0,0,0,.883-.883v-5.3a.883.883,0,0,0-.883-.883h-5.3a.883.883,0,0,0-.883.883v5.3A.883.883,0,0,0,27.383,49.467Zm.883-5.3H31.8V47.7H28.267Z" fill="#341f97"/>
        </g>
      </g>
    </g>
  </g>
</svg>
