<svg id="nav-bg" xmlns="http://www.w3.org/2000/svg" xmlns:xlink="http://www.w3.org/1999/xlink" width="149.375" height="38.398" viewBox="0 0 149.375 38.398">
  <defs>
    <linearGradient id="linear-gradient" x1="-5.051" y1="14.202" x2="-19.093" y2="13.578" gradientUnits="objectBoundingBox">
      <stop offset="0" stop-color="#3f4894"/>
      <stop offset="1" stop-color="#686dd4"/>
    </linearGradient>
  </defs>
  <path id="Path_6396" data-name="Path 6396" d="M1010.786,624.127c-.53-.073-.3-.308-.009-.452.1-.049.225-.009.279-.019s.035,0,.047,0c.2.035.179.156.393.176.1-.085.315-.078.463-.1a.607.607,0,0,1-.043.073c-.057.084-.11.157,0,.234a.166.166,0,0,0,.043.019,2.225,2.225,0,0,0,.654.06c.086,0,.185-.013.209-.074l0,0,0-.012c-.01-.029-.136-.067-.214-.064a.938.938,0,0,1-.314-.019c-.049-.031.015-.068.043-.12s.094-.166-.022-.21-.214.011-.3-.067c-.006-.006.027-.006.017-.019-.125-.154-.757-.063-.837-.016l-.023.014c-.042.013-.053,0-.082,0-.156,0-.3.009-.459.022l.02-.018a10.638,10.638,0,0,0-4.173.234C1006.872,624.762,1009.632,624.286,1010.786,624.127Z" transform="translate(-880.762 -618.148)" fill="url(#linear-gradient)"/>
  <path id="Path_6397" data-name="Path 6397" d="M1031.367,624.526a.434.434,0,0,1,.1,0c.206.051.458.059.321.233.457.012.75-.15,1.219-.118-.046-.106.006-.24-.153-.3-.556.114-.917-.178-1.384.111h-.095c-.034,0-.105.007-.106.037S1031.333,624.526,1031.367,624.526Z" transform="translate(-898.298 -618.776)" fill="url(#linear-gradient)"/>
  <path id="Path_6398" data-name="Path 6398" d="M982.355,618.593a3.782,3.782,0,0,0-2.567-.484c0,.106-.051.178-.188.24a4.2,4.2,0,0,1,.852.242C981.1,618.447,981.711,618.721,982.355,618.593Z" transform="translate(-861.748 -614.365)" fill="url(#linear-gradient)"/>
  <path id="Path_6399" data-name="Path 6399" d="M800.008,615.6h1.1A2.459,2.459,0,0,0,800.008,615.6Z" transform="translate(-700.856 -612.56)" fill="url(#linear-gradient)"/>
  <path id="Path_6400" data-name="Path 6400" d="M728.105,614.282c.072.012.138-.011.147-.061.013-.066-.046-.11-.141-.133-.076,0-.137.023-.152.069C727.938,614.227,728.011,614.266,728.105,614.282Z" transform="translate(-641.097 -611.538)" fill="url(#linear-gradient)"/>
  <path id="Path_6401" data-name="Path 6401" d="M726.845,611.638c-.156,0-.158.117-.174.2h.29C726.927,611.768,727.039,611.641,726.845,611.638Z" transform="translate(-640.033 -609.805)" fill="url(#linear-gradient)"/>
  <path id="Path_6402" data-name="Path 6402" d="M797.151,615.581a.245.245,0,0,0,.088-.042c-.044-.048-.119-.04-.186-.036a.4.4,0,0,0-.116.031C796.974,615.608,797.073,615.584,797.151,615.581Z" transform="translate(-698.103 -612.537)" fill="url(#linear-gradient)"/>
  <path id="Path_6403" data-name="Path 6403" d="M727.721,612.347l-.06-.021.033.039Z" transform="translate(-640.796 -610.291)" fill="url(#linear-gradient)"/>
  <path id="Path_6404" data-name="Path 6404" d="M727.226,613.3l-.06-.021.033.039Z" transform="translate(-640.388 -610.963)" fill="url(#linear-gradient)"/>
  <path id="Path_6405" data-name="Path 6405" d="M650.249,610.426l-.29.093a.37.37,0,0,0,.29.092Z" transform="translate(-576.639 -608.947)" fill="url(#linear-gradient)"/>
  <path id="Path_6406" data-name="Path 6406" d="M650.979,611.086a.415.415,0,0,0,.117.031c.006,0,.023-.021.035-.033-.04-.011-.08-.023-.121-.032C650.932,611.037,650.917,611.052,650.979,611.086Z" transform="translate(-577.43 -609.386)" fill="url(#linear-gradient)"/>
  <path id="Path_6407" data-name="Path 6407" d="M646.989,611.261h.145C647.086,611.2,647.037,611.2,646.989,611.261Z" transform="translate(-574.156 -609.504)" fill="url(#linear-gradient)"/>
  <path id="Path_6408" data-name="Path 6408" d="M647.545,611.4l-.06-.021.033.039Z" transform="translate(-574.548 -609.619)" fill="url(#linear-gradient)"/>
  <path id="Path_6409" data-name="Path 6409" d="M650.982,611.877l-.033.039.061-.021Z" transform="translate(-577.411 -609.974)" fill="url(#linear-gradient)"/>
  <path id="Path_6410" data-name="Path 6410" d="M1042.622,678c.345.068.683.016,1.035.061C1043.735,677.841,1042.8,677.914,1042.622,678Z" transform="translate(-906.332 -657.996)" fill="url(#linear-gradient)"/>
  <path id="Path_6411" data-name="Path 6411" d="M1025.632,616.214c.008-.045.021-.088.157-.073-.021-.091-.054-.176-.322-.15C1025.495,616.079,1025.447,616.2,1025.632,616.214Z" transform="translate(-894.196 -612.881)" fill="url(#linear-gradient)"/>
  <path id="Path_6412" data-name="Path 6412" d="M1027.8,616.009c-.008.045-.021.088-.156.074l0,.148C1028.037,616.345,1028.1,615.981,1027.8,616.009Z" transform="translate(-895.733 -612.896)" fill="url(#linear-gradient)"/>
  <path id="Path_6413" data-name="Path 6413" d="M1043.032,620.353c-.238.01-.584-.03-.632.07C1042.613,620.52,1042.994,620.521,1043.032,620.353Z" transform="translate(-906.175 -615.97)" fill="url(#linear-gradient)"/>
  <path id="Path_6414" data-name="Path 6414" d="M1036.362,620.834c-.248,0-.549-.013-.47.145C1036.165,620.982,1036.3,620.924,1036.362,620.834Z" transform="translate(-901.562 -616.31)" fill="url(#linear-gradient)"/>
  <path id="Path_6415" data-name="Path 6415" d="M1049.19,625.662c.01-.247.3-.389-.175-.517C1049.114,625.3,1048.834,625.63,1049.19,625.662Z" transform="translate(-910.846 -619.36)" fill="url(#linear-gradient)"/>
  <path id="Path_6416" data-name="Path 6416" d="M1037.822,675.669c.011-.115.4-.056.309-.219C1037.8,675.384,1037.427,675.637,1037.822,675.669Z" transform="translate(-902.817 -656.202)" fill="url(#linear-gradient)"/>
  <path id="Path_6417" data-name="Path 6417" d="M1018.393,715.212c.588.16.7-.37.147-.294A.267.267,0,0,1,1018.393,715.212Z" transform="translate(-889.192 -684.841)" fill="url(#linear-gradient)"/>
  <path id="Path_6418" data-name="Path 6418" d="M1015.206,715.4c-.01-.1.07-.161.151-.22l-.791,0C1014.524,715.37,1014.791,715.419,1015.206,715.4Z" transform="translate(-886.481 -685.028)" fill="url(#linear-gradient)"/>
  <path id="Path_6419" data-name="Path 6419" d="M1040.071,719.414c-.609-.2-.688.27,0,0Z" transform="translate(-904.184 -689.193)" fill="url(#linear-gradient)"/>
  <path id="Path_6420" data-name="Path 6420" d="M946.165,735.09c.054-.228-.772-.3-.794-.074C945.867,734.981,945.8,735.271,946.165,735.09Z" transform="translate(-833.381 -699.492)" fill="url(#linear-gradient)"/>
  <path id="Path_6421" data-name="Path 6421" d="M890.213,737.644c0,.074,0,.148.007.222C890.685,737.975,890.671,737.538,890.213,737.644Z" transform="translate(-775.2 -701.437)" fill="url(#linear-gradient)"/>
  <path id="Path_6422" data-name="Path 6422" d="M891.993,738.2c-.046.1-.221.14-.149.294l.476,0C892.359,738.324,892.273,738.215,891.993,738.2Z" transform="translate(-776.582 -701.84)" fill="url(#linear-gradient)"/>
  <path id="Path_6423" data-name="Path 6423" d="M920.579,739.424c-.04.1.108.288.163.147C920.782,739.472,920.636,739.284,920.579,739.424Z" transform="translate(-815.054 -702.673)" fill="url(#linear-gradient)"/>
  <path id="Path_6424" data-name="Path 6424" d="M946.641,740.592a.861.861,0,0,0,.785-.219C946.891,740.321,946.911,740.524,946.641,740.592Z" transform="translate(-834.317 -703.374)" fill="url(#linear-gradient)"/>
  <path id="Path_6425" data-name="Path 6425" d="M968.283,740.751c.1.005.188.011.161.074h.317C969,740.645,968.216,740.607,968.283,740.751Z" transform="translate(-850.249 -703.585)" fill="url(#linear-gradient)"/>
  <path id="Path_6426" data-name="Path 6426" d="M1041.424,741.444l.793,0c0-.048,0-.1,0-.146C1042.028,741.105,1041.6,741.4,1041.424,741.444Z" transform="translate(-905.485 -703.989)" fill="url(#linear-gradient)"/>
  <path id="Path_6427" data-name="Path 6427" d="M951.328,742.13c-1.017-.089-.34.224,0,0Z" transform="translate(-837.357 -704.611)" fill="url(#linear-gradient)"/>
  <path id="Path_6428" data-name="Path 6428" d="M1044.728,742.947c.393-.052.662.326.952.075-.373-.023-.362-.229-.642-.3C1045,742.831,1044.781,742.851,1044.728,742.947Z" transform="translate(-907.822 -705.045)" fill="url(#linear-gradient)"/>
  <path id="Path_6429" data-name="Path 6429" d="M1047.959,742.963c.042.246.993.286.951,0C1048.359,742.905,1048.246,743.1,1047.959,742.963Z" transform="translate(-910.108 -705.206)" fill="url(#linear-gradient)"/>
  <path id="Path_6430" data-name="Path 6430" d="M1012.211,743.906c-.145.128.585-.021.474-.072A.768.768,0,0,0,1012.211,743.906Z" transform="translate(-884.805 -705.815)" fill="url(#linear-gradient)"/>
  <path id="Path_6431" data-name="Path 6431" d="M1017.7,744.691c.389-.1.665.217.793,0C1018.392,744.651,1017.731,744.517,1017.7,744.691Z" transform="translate(-888.699 -706.373)" fill="url(#linear-gradient)"/>
  <path id="Path_6432" data-name="Path 6432" d="M1033.337,617.6c.146-.2-.894-.218-.8-.15C1032.75,617.528,1033.125,617.526,1033.337,617.6Z" transform="translate(-899.195 -613.892)" fill="url(#linear-gradient)"/>
  <path id="Path_6433" data-name="Path 6433" d="M1035.127,716.4h-.318l0-.148h-.159l0,.148,0,.146C1034.9,716.539,1035.205,716.558,1035.127,716.4Z" transform="translate(-900.689 -685.813)" fill="url(#linear-gradient)"/>
  <path id="Path_6434" data-name="Path 6434" d="M1031.377,717.727l-.353.147.033-.22c-.209,0-.15-.13-.322-.149l-.237.036-.239-.038c.12.2-.75-.056-.629.146.524.132-.175.3-.306.365.319.242.792-.02.958.225l.237-.036-.076.11c.1.023.617.185.635,0-.407-.1.561-.17.463-.366l-.083-.112.075-.111Z" transform="translate(-896.925 -687.874)" fill="url(#linear-gradient)"/>
  <path id="Path_6435" data-name="Path 6435" d="M968.346,740.417l-.082-.111-.24-.038c-.486.053-.31-.2-.8-.151l-.24-.038-.081-.109a6.866,6.866,0,0,1-2.354.729,6.359,6.359,0,0,0,1.9.08c-.415.187.28.12.484.221a.9.9,0,0,1,.947-.069c-.034-.162.121-.234.468-.219l-.081-.112a.79.79,0,0,0,.789-.069l-.561.049A.379.379,0,0,0,968.346,740.417Z" transform="translate(-847.829 -703.095)" fill="url(#linear-gradient)"/>
  <path id="Path_6436" data-name="Path 6436" d="M954.521,735.078a4.832,4.832,0,0,1,1.417-.217l-.083-.111-.082-.109c-.346-.09-1.021-.247-.648-.446h-.158l0-.074c-.343-.358-1.075.3-1.58.143-.032.139.183.162.168.3-.439-.016-.542.111-.311.219l.24.036-.076.11C954.277,735.112,954.473,734.69,954.521,735.078Z" transform="translate(-839.256 -698.88)" fill="url(#linear-gradient)"/>
  <path id="Path_6437" data-name="Path 6437" d="M945.527,737.8c-.025.161.137.235.482.221.112-.309,1.134-.2,1.412-.435-.894-.079.056-.122-.329-.371a7.912,7.912,0,0,1-3.485-.011l-.237.036-.082-.111c-.473.122-1.358.051-1.9.142l.083.111c-.846-.094-1.818-.069-2.207.361l1.974-.323c.184.113.459.181.639.295a1.842,1.842,0,0,0,.946-.143c.328.1.411.3.8.37C944.249,737.755,944.948,738.032,945.527,737.8Z" transform="translate(-829.464 -701.086)" fill="url(#linear-gradient)"/>
  <path id="Path_6438" data-name="Path 6438" d="M931.755,738.591c.069.014.111.059-.04.069l.083.135-.234.086c-.048.1-.222.141-.151.294a8.756,8.756,0,0,0,2.69-.139c-.028-.085.022-.208-.166-.22l-.238-.038.075-.111A18.4,18.4,0,0,1,931.755,738.591Z" transform="translate(-823.223 -702.119)" fill="url(#linear-gradient)"/>
  <path id="Path_6439" data-name="Path 6439" d="M924.453,737.294c-.015.09-.043.176-.314.147l.085.135-.235.086,0,.072c0,.074-.126.088-.155.148.59-.029.824-.066,1.741-.069l.181-.111.29.038C926.131,737.307,925,737.437,924.453,737.294Z" transform="translate(-817.61 -701.202)" fill="url(#linear-gradient)"/>
  <path id="Path_6440" data-name="Path 6440" d="M905.263,736.59c-.986-.47-2.172-.115-3.808-.161l-.237.036.076-.11c-.227-.029-.27-.089-.476,0l.085.137a3.342,3.342,0,0,0-.637-.1l.075-.11c-.426-.349-1.262-.118-1.9-.006l.082.11-.236.036c.3.134-.123.188.014.442a1.306,1.306,0,0,1,1.114.152c.49.058.3-.2.787-.146l-.083-.111a2.582,2.582,0,0,0,.793,0l-.076.111c.212.078.587.074.8.151.217-.044.014-.284.306-.294a8.311,8.311,0,0,0,3.169.01l-.083-.111Z" transform="translate(-784.028 -700.353)" fill="url(#linear-gradient)"/>
  <path id="Path_6441" data-name="Path 6441" d="M886.884,735.565l-.477-.074.236-.035c-.159-.1-.537-.1-.641-.225a23.289,23.289,0,0,1-3.013-.082c.127.253-.641.091-.463.367l.236-.037.084.111c.186.013.449-.011.476.074l.24.038-.075.111c.487-.054.2.256.8.15.042-.251.708-.183,1.574-.291l-.083-.111a1.8,1.8,0,0,0,.246.171c.3.009.733.086.866-.094l.237-.035Z" transform="translate(-770.175 -699.684)" fill="url(#linear-gradient)"/>
  <path id="Path_6442" data-name="Path 6442" d="M960.38,734.414a3.28,3.28,0,0,0,.627-.218l-.241-.087.075-.134c-.315-.034-1.037-.173-.63.071l.238.038-.236.036C960.181,734.259,960.4,734.283,960.38,734.414Z" transform="translate(-844.242 -698.804)" fill="url(#linear-gradient)"/>
  <path id="Path_6443" data-name="Path 6443" d="M945.664,739.4c-.074.035-.182-.015-.156.074C945.608,739.811,946.4,739.057,945.664,739.4Z" transform="translate(-833.454 -702.628)" fill="url(#linear-gradient)"/>
  <path id="Path_6444" data-name="Path 6444" d="M955.913,741.3l-.24-.037c-.7-.073-1.221-.041-1.417.216a7.97,7.97,0,0,0,2.851.009,5.18,5.18,0,0,0-1.118-.3Z" transform="translate(-840.095 -703.956)" fill="url(#linear-gradient)"/>
  <path id="Path_6445" data-name="Path 6445" d="M1042.366,720.509l.4-.072A1.174,1.174,0,0,0,1042.366,720.509Z" transform="translate(-906.151 -689.93)" fill="url(#linear-gradient)"/>
  <path id="Path_6446" data-name="Path 6446" d="M1018.926,724.1l.713.039A3.252,3.252,0,0,0,1018.926,724.1Z" transform="translate(-889.569 -691.864)" fill="url(#linear-gradient)"/>
  <path id="Path_6447" data-name="Path 6447" d="M1050.294,739.379l-.555-.037A4.465,4.465,0,0,0,1050.294,739.379Z" transform="translate(-911.367 -702.65)" fill="url(#linear-gradient)"/>
  <path id="Path_6448" data-name="Path 6448" d="M870.356,734.767l.792,0A5.421,5.421,0,0,0,870.356,734.767Z" transform="translate(-758.925 -699.402)" fill="url(#linear-gradient)"/>
  <path id="Path_6449" data-name="Path 6449" d="M1048.787,717.87l.392-.181A1.316,1.316,0,0,0,1048.787,717.87Z" transform="translate(-910.693 -688.052)" fill="url(#linear-gradient)"/>
  <path id="Path_6450" data-name="Path 6450" d="M1035.133,718.15l.268-.257A2.009,2.009,0,0,0,1035.133,718.15Z" transform="translate(-901.034 -688.185)" fill="url(#linear-gradient)"/>
  <path id="Path_6451" data-name="Path 6451" d="M1036.618,718.648c.225.022.41.033.557.039Z" transform="translate(-902.085 -688.714)" fill="url(#linear-gradient)"/>
  <path id="Path_6452" data-name="Path 6452" d="M1032.647,719.9l-.315.073A1.453,1.453,0,0,0,1032.647,719.9Z" transform="translate(-899.053 -689.563)" fill="url(#linear-gradient)"/>
  <path id="Path_6453" data-name="Path 6453" d="M1033.337,717.014l.387-.256C1033.6,716.821,1033.384,716.895,1033.337,717.014Z" transform="translate(-899.764 -686.177)" fill="url(#linear-gradient)"/>
  <path id="Path_6454" data-name="Path 6454" d="M1033.684,716.129l-.4-.26A1.228,1.228,0,0,0,1033.684,716.129Z" transform="translate(-899.723 -685.533)" fill="url(#linear-gradient)"/>
  <path id="Path_6455" data-name="Path 6455" d="M1028.961,715.968a.641.641,0,0,0,.234-.111Z" transform="translate(-896.668 -685.517)" fill="url(#linear-gradient)"/>
  <path id="Path_6456" data-name="Path 6456" d="M1044.844,738.694a2.576,2.576,0,0,0,.318.037Z" transform="translate(-907.904 -702.192)" fill="url(#linear-gradient)"/>
  <path id="Path_6457" data-name="Path 6457" d="M1039.421,742.472a.5.5,0,0,0-.057-.149Z" transform="translate(-904.027 -704.759)" fill="url(#linear-gradient)"/>
  <path id="Path_6458" data-name="Path 6458" d="M982.107,741.1h.317A.806.806,0,0,0,982.107,741.1Z" transform="translate(-863.522 -703.881)" fill="url(#linear-gradient)"/>
  <path id="Path_6459" data-name="Path 6459" d="M963.257,736.539l-.793,0C962.728,736.537,962.992,736.553,963.257,736.539Z" transform="translate(-845.983 -700.665)" fill="url(#linear-gradient)"/>
  <path id="Path_6460" data-name="Path 6460" d="M880.465,736.731a.3.3,0,0,1-.023.037l.711-.072A1.281,1.281,0,0,0,880.465,736.731Z" transform="translate(-767.237 -700.756)" fill="url(#linear-gradient)"/>
  <path id="Path_6461" data-name="Path 6461" d="M897.583,736.094l-.1.14C897.569,736.187,897.591,736.139,897.583,736.094Z" transform="translate(-781.131 -700.353)" fill="url(#linear-gradient)"/>
  <path id="Path_6462" data-name="Path 6462" d="M897.579,735.085a2.27,2.27,0,0,1-.216.1c.031.045.121.114.133.188l.205-.3C897.661,735.073,897.62,735.078,897.579,735.085Z" transform="translate(-781.105 -699.628)" fill="url(#linear-gradient)"/>
  <path id="Path_6463" data-name="Path 6463" d="M908.495,736.86l-.155.147A.406.406,0,0,0,908.495,736.86Z" transform="translate(-790.117 -700.895)" fill="url(#linear-gradient)"/>
  <path id="Path_6464" data-name="Path 6464" d="M921.357,737.913a6.7,6.7,0,0,0,.958.088Z" transform="translate(-815.689 -701.64)" fill="url(#linear-gradient)"/>
  <path id="Path_6465" data-name="Path 6465" d="M931.1,738.867l-.692-.174A2.055,2.055,0,0,0,931.1,738.867Z" transform="translate(-822.341 -702.191)" fill="url(#linear-gradient)"/>
  <path id="Path_6466" data-name="Path 6466" d="M953.291,736.978l.311-.22A1.192,1.192,0,0,0,953.291,736.978Z" transform="translate(-839.182 -700.823)" fill="url(#linear-gradient)"/>
  <path id="Path_6467" data-name="Path 6467" d="M959.429,734.551l.552-.035A3.83,3.83,0,0,0,959.429,734.551Z" transform="translate(-843.726 -699.236)" fill="url(#linear-gradient)"/>
  <path id="Path_6468" data-name="Path 6468" d="M967.347,734.756c.41.021.822.041,1.249.038Z" transform="translate(-849.62 -699.406)" fill="url(#linear-gradient)"/>
  <path id="Path_6469" data-name="Path 6469" d="M962.4,734.6l1.447.045C963.371,734.622,962.895,734.6,962.4,734.6Z" transform="translate(-845.99 -699.296)" fill="url(#linear-gradient)"/>
  <path id="Path_6470" data-name="Path 6470" d="M997.35,731.241l-.395.034A1.179,1.179,0,0,0,997.35,731.241Z" transform="translate(-874.026 -696.92)" fill="url(#linear-gradient)"/>
  <path id="Path_6471" data-name="Path 6471" d="M996.668,728.778l-1.7-.2A9.437,9.437,0,0,0,996.668,728.778Z" transform="translate(-872.619 -695.039)" fill="url(#linear-gradient)"/>
  <path id="Path_6472" data-name="Path 6472" d="M1041.888,739.276c.037-.069-.044-.143-.122-.216l-.381.478C1041.534,739.439,1041.706,739.375,1041.888,739.276Z" transform="translate(-905.456 -702.451)" fill="url(#linear-gradient)"/>
  <path id="Path_6473" data-name="Path 6473" d="M977.236,740.76l.048-.148A.47.47,0,0,0,977.236,740.76Z" transform="translate(-860.076 -703.549)" fill="url(#linear-gradient)"/>
  <path id="Path_6474" data-name="Path 6474" d="M977.236,741.118a2.666,2.666,0,0,0,.5.094Z" transform="translate(-860.076 -703.907)" fill="url(#linear-gradient)"/>
  <path id="Path_6475" data-name="Path 6475" d="M882.922,736.851a1.763,1.763,0,0,0,.9,0l-.953-.078Z" transform="translate(-769.32 -700.835)" fill="url(#linear-gradient)"/>
  <path id="Path_6476" data-name="Path 6476" d="M959.621,732.241c1.58.054,3.114.105,4.678.128Z" transform="translate(-844.203 -697.627)" fill="url(#linear-gradient)"/>
  <path id="Path_6477" data-name="Path 6477" d="M926.867,734.66l-.363.17a1.622,1.622,0,0,0,.286,0C926.877,734.772,926.905,734.711,926.867,734.66Z" transform="translate(-819.441 -699.338)" fill="url(#linear-gradient)"/>
  <path id="Path_6478" data-name="Path 6478" d="M959.707,740.849l-.088-.3A.553.553,0,0,0,959.707,740.849Z" transform="translate(-843.83 -703.508)" fill="url(#linear-gradient)"/>
  <path id="Path_6479" data-name="Path 6479" d="M1049.087,619.676c-.169.477.765.057,0,0Z" transform="translate(-910.891 -615.491)" fill="url(#linear-gradient)"/>
  <path id="Path_6480" data-name="Path 6480" d="M1082.335,640.352l-.336,0c0,.053-.008.105-.012.158l.336,0Z" transform="translate(-934.18 -630.745)" fill="url(#linear-gradient)"/>
  <path id="Path_6481" data-name="Path 6481" d="M1080.357,656.053c.135-.178.958-.018.862-.31C1080.858,655.441,1079.744,655.878,1080.357,656.053Z" transform="translate(-932.899 -641.842)" fill="url(#linear-gradient)"/>
  <path id="Path_6482" data-name="Path 6482" d="M376.415,621.4c-.294.094-.576.055-.69-.153.1-.3.381-.546.035-.738-.031.307-.5.273-.815.362.055-.442-.7-.31-.663-.743.594-.345.352-1.018-.136-1.331.292,0,.378-.165.511-.29l-.147-.04.009-.019.523-.02a1.4,1.4,0,0,0-.521.018l.044-.089a2.689,2.689,0,0,0-1.215-.561c.076-.009.171-.022.089-.043-.111,0-.195.011-.29.018a2.3,2.3,0,0,0-.389-.005c-.229-.007-.251,0-.219.032-.048.009-.1.012-.144.024a.2.2,0,0,0-.1-.12,1.923,1.923,0,0,0,.524-.042c.035-.013.091-.028-.01-.038a.657.657,0,0,0-.235.013.975.975,0,0,1-.337.019.164.164,0,0,1-.02-.024l.147-.015h0c.011,0,.013-.007.006-.011h0c.065-.024.262-.044.082-.073l-.081-.012.023-.047h.889c.109,0,.248,0,.248-.022s-.138-.014-.226-.017a1.39,1.39,0,0,1-.381-.032c.15,0,.284,0,.415,0,.1,0,.25,0,.137-.027h0c-.035-.014-.192-.009-.2-.032h.866c.343.021.682.006,1.022,0,.253.008.435,0,.43-.044,0,0,.2-.008.112-.027a.967.967,0,0,0-.22-.013c-.592.029-1.116-.019-1.674-.029h0a2.028,2.028,0,0,0-.282-.01c.208-.336,1.155-.1,1.3-.481-.093-.244-.61-.186-.78-.376-.179-.644,1.169-.354,1.416-.43a.775.775,0,0,1-.237-.286h.023c.089,0,.222,0,.216-.016s-.133-.028-.256-.031a.5.5,0,0,1-.02-.095c.069,0,.136,0,.193.008a1.4,1.4,0,0,0,.482,0c.134-.034.079-.106-.112-.118l-.563-.034c0-.006,0-.011,0-.017.67-.118,1.527-.09,1.818-.5-.664-.338-1.1-.068-1.89-.09a.376.376,0,0,1-.082-.369c-.7.24-1.3-.118-1.911.352a.515.515,0,0,0-.3-.2c.056,0,.088-.006.095-.014s-.111-.026-.229-.027h-.018c-.205-.047-.438-.074-.625-.134a1.285,1.285,0,0,1,.071-.231h.157c.329-.013.651.043,1.017.009-.175-.04-.544-.02-.672-.064-.028-.01-.071.017-.091.029a1.723,1.723,0,0,1-.384-.04l.01-.025a.458.458,0,0,1,.089-.024c.232-.041.245-.051-.053-.061l.047-.114h.039c.057,0,.152,0,.128.018s-.1.027.055.032a.947.947,0,0,0,.244-.018c.192-.054-.129-.051-.341-.059-.052,0-.086-.009-.109-.012l.007-.018c.051-.005.136-.009.184-.014l.188-.013h0c-.009-.04.041-.086-.326-.1.018-.051.035-.1.049-.151l.316-.017c-.032-.026-.278-.029-.3-.051h0s0-.006.006-.01a1.213,1.213,0,0,1,.32-.013c.325.041.325.041.428-.025h0l-.062-.072h0c.208-.026.25-.051-.02-.074a.024.024,0,0,0-.01-.009l-.037-.006v-.029l.06,0c.157,0,.36,0,.357-.028s-.185-.037-.374-.036l-.337-.023c-.063-.015-.331-.032.037-.039.3-.006.6-.018.89.005.154.017.364,0,.521.018a1.428,1.428,0,0,0,.438,0,.743.743,0,0,1-.2.157.462.462,0,0,0,.508-.218.44.44,0,0,0-.212.008c.006-.032-.048-.065-.154-.07-.386-.019-.735-.052-1.151-.058-.468-.019-.9-.048-1.3-.089l-.023,0c-.015,0-.026-.009-.042-.012l-.01.008c-.051,0-.1-.007-.156-.008a4.206,4.206,0,0,1-.675-.054h0a.9.9,0,0,0-.324-.048h0a2.363,2.363,0,0,0-.356-.068.625.625,0,0,1,.036-.063.684.684,0,0,0-.238.04c-.271-.027-.585-.046-.893-.066l-.085-.007q.048-.055.093-.114c.393.01.8.031,1.156.062.241.033.5.064.718.1a1.232,1.232,0,0,0,.315.016c.148-.01.175-.023.063-.042s-.019-.023.1-.024h0l.318.025h0l.185.067a.473.473,0,0,0,.211.018,2.573,2.573,0,0,0,.471-.041c.027-.02-.1-.03-.231-.036l-.515-.025-.1-.021c.125-.016.333-.013.426-.037h0c.23.016.439.04.791.04a8.761,8.761,0,0,0-.88-.089c-.469-.035-.952-.066-1.428-.1-.195-.024-.413-.042-.637-.058.037-.011.073-.033.075-.06a.034.034,0,0,1,0-.012.058.058,0,0,1-.008-.013.163.163,0,0,0-.152-.05.834.834,0,0,1-.2-.012,1.963,1.963,0,0,0-.226-.018c-.061,0-.12.019-.133.069,0,0,0,0,0,0a.024.024,0,0,1,0,.008.075.075,0,0,0,.039.041l-.093-.007h0l-.126-.011a1.437,1.437,0,0,0,.149-.86,1.476,1.476,0,0,1-.442.1c.04-.061.1-.114-.028-.155-.009.061-.1.117-.069.163a2.367,2.367,0,0,0-.969.175v0c-.464-.031-.965-.091-1.254.34,0,0,0,0,0,0-.031,0-.021-.009-.067-.006s-.163,0-.219,0-.122,0-.169,0a.247.247,0,0,0-.063.009c-.262-.015-.527-.028-.795-.041a.581.581,0,0,0-.839-.05c-.343-.018-.7-.031-1.047-.045h0c-.73-.047-1.523-.058-2.288-.085h0c-.1-.006-.2-.016-.307-.018q-1.558-.039-3.124-.071a.179.179,0,0,1-.108-.194,2.069,2.069,0,0,0,1.036-.167c-.1-.022-.194-.052-.2-.168a1.416,1.416,0,0,0,.933-.223,5.75,5.75,0,0,1-1.607-.326c.054-.011.1-.018.157-.025a.95.95,0,0,0,.355-.1c.016-.009.026-.015.023-.033s0-.03-.035-.039a.147.147,0,0,0-.13.009.773.773,0,0,1-.253.062,1.451,1.451,0,0,0-.252.05c-.317-.016-.954.194-1.226.055a.572.572,0,0,0-.058.04c-.1-.011-.192-.026-.279-.027-.2,0-.415.008-.627.02a.493.493,0,0,0,.159-.241h0l.43-.32c.1-.037.121-.144.13-.262h0c.236-.574.223-.592-.2-.615a6,6,0,0,1-1.34.021h-1.31c0-.042,0-.084,0-.125l1.091-.219c-.064-.127-.115-.177-.165-.174-.9.051-1.794.014-2.691.05-1.317.053-2.635.011-3.953.016a.667.667,0,0,0-.529.115,14.509,14.509,0,0,1,3.205.237c.028.009.069-.024.1-.05.211-.191.416-.289.6.061a.738.738,0,0,1,.654-.215c.036.009.08-.007.108.017a.654.654,0,0,0,.9.04c.132-.092.44-.092.337.382h0l-.437.01q-3.538,0-7.076,0c-.143,0-.3-.037-.407.142h0l-.216,0h0c-.061-.045-.122-.129-.184-.13q-1.027-.014-2.054,0c-.062,0-.124.082-.186.126h0l-.653.007h0l-1.432,0h0l-1.251,0-2.162,0h-2.321l.185-.1c.078-.022.095-.084.1-.154h0c.185-.336.174-.346-.158-.359a6.264,6.264,0,0,1-1.047.012h-1.024c0-.024,0-.049,0-.073l.853-.128c-.05-.075-.09-.1-.129-.1-.7.029-1.4.008-2.1.029-.878.026-1.757.014-2.635.011v-.06l1.091-.219c-.064-.127-.115-.177-.165-.174-.9.05-1.794.014-2.691.05-1.317.053-2.636.011-3.953.016a.668.668,0,0,0-.529.116,14.5,14.5,0,0,1,3.205.237c.028.009.069-.024.1-.05.211-.191.416-.289.6.061a.738.738,0,0,1,.654-.215c.036.009.08-.007.108.016a.654.654,0,0,0,.9.04.216.216,0,0,1,.354.183h-.122a.67.67,0,0,0-.413.068c.18.012.357.016.533.018a.8.8,0,0,1-.015.114h0l-.437.01q-3.538,0-7.076,0c-.143,0-.3-.037-.407.142h0l-.216,0h0c-.061-.045-.122-.129-.183-.13q-1.027-.013-2.054,0c-.062,0-.124.082-.186.126h0l-.586.006c.1-.044.193-.085.29-.124l-.013.022c.1.048.208.132.268.041a.117.117,0,0,0-.013-.156c.105-.037.211-.074.319-.106l-.449,0c0-.106.034-.254-.172-.161a.294.294,0,0,0,.159.161,21.819,21.819,0,0,1-2.278-.062h-.55q-.109-.222-.218,0h0c-.125.012-.224-.082-.331-.144-.114-.347-.126-.347-.33,0l-.219.141a.646.646,0,0,0-.452-.7c-.191-.094-.228.217-.356.322.123.187.292.2.368.38h0l-.551,0a.277.277,0,0,0-.075-.049.653.653,0,0,0-.8.051h0a25.391,25.391,0,0,1-2.807-.139,10.012,10.012,0,0,1-1.2-.035,10.55,10.55,0,0,0-2.208-.247l-.937-.065c-.4-.049-.891-.073-1.339-.109h0l-.03,0-.027-.013v.011c-.5-.046-1.014-.088-1.538-.127a.329.329,0,0,0-.009-.066.18.18,0,0,1-.043.062l-.448-.033a.179.179,0,0,0,.077-.076c.04-.074.136-.126.042-.211-.074-.068-.128,0-.167.059-.052.082-.1.145-.189.036-.149-.023-.289-.1-.45,0s-.221-.028-.238-.175c-.043.036-.1.065-.126.111a.592.592,0,0,0-.056.186l-.109-.005.012-.049c-.3-.118-.46-.121-.523.022l-.425-.022h0c-.534-.041-1.117-.062-1.7-.085h0c-.73-.047-1.523-.058-2.288-.085h0c-.1-.006-.2-.016-.307-.019l-.283-.007a.5.5,0,0,0,.156-.252c-.249-.153-.219.069-.219.251-1.272-.031-2.546-.061-3.829-.083h0c-.4-.022-.818-.027-1.235-.034.022-.037.039-.072.042-.078.034-.132.018-.15-.028-.094a1.74,1.74,0,0,0-.1.15l.022.02-.378-.008a.539.539,0,0,0,.113-.506c-.04.152-.23.223-.178.5l-.081,0h-.059a1.06,1.06,0,0,0-.269-.485.352.352,0,0,0,.057-.1c.052-.126.173-.215.054-.361-.1-.116-.163,0-.214.1-.067.139-.133.248-.242.061-.191-.04-.37-.165-.576,0-.223.182-.283-.048-.3-.3-.055.063-.133.11-.161.19-.079.229-.14.527.064.642.15.084.435.271.474-.257.009-.125.163-.219.209.029.017.09.045.259.079.2.1-.17.252-.12.389-.131a1.388,1.388,0,0,1-.01.434c-.09,0-.183,0-.269,0l0-.01-.044.01c-.163,0-.33,0-.495,0-.027,0-.058,0-.086,0a.13.13,0,0,0-.207-.008h-.162a.739.739,0,0,0-.172-.428l-.013-.006.046-.24c-.271-.142-.452-.187-.564-.117a.6.6,0,0,0-.238-.082.256.256,0,0,0,.1.375,2.1,2.1,0,0,0-.011.317.654.654,0,0,0-.572.112h-.022c.261-.507.255-.517-.118-.823-.118.13.267.522-.15.514-.073,0-.059.144-.009.234.013.024.026.05.038.074h-.169l-.159,0h0c-.162-.016-.343-.011-.521-.01l-.33,0h0a4.4,4.4,0,0,0-.518-.012h0a1.724,1.724,0,0,1-.265.025c-.62,0-1.251.012-1.853-.023h0a1.563,1.563,0,0,0-.26-.014c-.227-.005-.438,0-.64.007a.922.922,0,0,0-.1.005c-.123.006-.244.015-.361.025h0c-.356-.034-.745-.051-1.172-.051h0c-.75-.027-1.526-.02-2.286-.035-.091,0-.225-.005-.222.015a.549.549,0,0,0,.22.021l.083.025c-.788.013-1.576.023-2.369.011a2.194,2.194,0,0,0-.335-.022c-1.02-.005-2.03-.034-3.055-.027-.05,0-.1-.01-.15-.009-.342.006-.687.006-1.031.01l-.1-.224a.715.715,0,0,0-.188.227c-.415,0-.829.01-1.245.011s-.806.014-1.209.022c-.087,0-.187.005-.176.02a.677.677,0,0,0,.2.016c.293,0,.588.013.88.011.443,0,.881.033,1.324,0h.2a.246.246,0,0,0,0,.059,10.34,10.34,0,0,0-1.051.054c.36-.006.713-.009,1.064-.012a.344.344,0,0,0,.013.038.1.1,0,0,0,.008.011c-.427,0-.854,0-1.281.007-.2,0-.455.007-.433.042a1.433,1.433,0,0,0,.483.029c.715-.019,1.433,0,2.148-.009.06,0,.12.005.176,0,.427.011.86,0,1.289.006.1,0,.149-.01.159-.023a.612.612,0,0,0-.16-.013h0c.039-.019.185-.042-.091-.048l-2.069,0,.07-.051c.439,0,.879-.01,1.332-.022-.235-.021-.763-.027-1.294-.022l-.016-.037c.09,0,.183.006.281.007.56.026,1.135.006,1.7.011a2.419,2.419,0,0,1,.694.055,1.754,1.754,0,0,0,.451.037c.291,0,.579,0,.871,0,.385,0,.6-.019.62-.076h0c.764,0,1.531-.006,2.285.018-.208.023-.44.012-.653.02-.083,0-.173.007-.163.022a.5.5,0,0,0,.162.014,6.164,6.164,0,0,0,1.143-.038,1.736,1.736,0,0,0,.742.065,6.242,6.242,0,0,1,1.188.044,4.725,4.725,0,0,0,.866.007c.252-.008.34-.027.3-.066-.023-.023.163-.014.265-.015.777-.01,1.541.022,2.318.015.115.007.227.02.344.021.714,0,1.424.017,2.138.023l.034.068c-.195,0-.393,0-.585-.005a18.7,18.7,0,0,0-1.981-.036c-.093.005-.284-.02-.276.016s.15.034.326.035l1.432.011c.189.018.4.011.605.012h0c.162.01.332.011.5.011l.029.058c.019-.022.038-.039.057-.058.206,0,.413,0,.612.008l.056,0a1.23,1.23,0,0,1,.084.146.887.887,0,0,0-.417-.015l-.9,0c-.134-.014-.291-.01-.441-.01h0a1.449,1.449,0,0,0-.318.01c-.037.012.058.014.125.015.252.018.522.009.784.011h.165a3.473,3.473,0,0,0,.687.025h.341a.237.237,0,0,0,.1.1c-1.206-.04-2.43-.064-3.658-.084a7.963,7.963,0,0,0-3.034-.073l-.006.019h0l.01-.019c-.115-.167-.266-.125-.408-.127-.453-.008-.906-.013-1.359-.02l-.219,0-3.2.029h0a1.211,1.211,0,0,0-.421,0h-.044c-.919-.028-1.788.041-2.7.029a1.23,1.23,0,0,0-.154.019h-.318a21.416,21.416,0,0,0-2.726-.03c-.485.026-.953.03-1.442.028-.422,0-.843-.007-1.264-.011l-.087-.011a2.416,2.416,0,0,0-.406-.025c-.234,0-.467,0-.7,0a.168.168,0,0,0-.135,0c-.379,0-.759,0-1.138,0l-.005-.007a.224.224,0,0,0-.056.007c-.283,0-.566,0-.848,0-.319-.013-.642-.013-.965-.01-.046-.063-.092-.116-.133-.112a6.226,6.226,0,0,0-1.434.112q-1.357.012-2.713.022c-.14,0-.384.022-.423-.023h0c.173-.007.351-.012.516-.022.209-.012.318-.033.152-.065h0l-.181-.023c-.051-.016-.023-.021.111-.026.244-.008.514,0,.733-.025h0c.442-.021.922-.01,1.362-.033h0c.545,0,1.084-.019,1.637,0,.345.01.689.011,1.023,0a1.319,1.319,0,0,1,.281.057c.333.175.476.164.548-.1l.054,0c.562.04,1.1.008,1.653,0,.119,0,.227,0,.231-.026h0c.315-.042.81-.014,1.166-.058-.089-.006-.135-.011-.185-.013-.5-.016-1.006-.025-1.513-.032a.206.206,0,0,0,.064-.2c-.133-.3-.188-.715-.526-.762.02.339.1.706-.22.89.206.155.44-.235.652.066,0,0,.006,0,.009.006l-.55-.008c-.243,0-.532-.007-.805,0,.015-.1.027-.216.035-.364-.139-.144-.227-.019-.316.113,0,.005-.049.006-.049.006a.554.554,0,0,0-.01-.059.717.717,0,0,0-.176-.5c-.106-.066-.249.02-.33-.148a.567.567,0,0,0-.44-.3c-.185.424.33.318.264.691-.231.044-.479-.138-.783.144.279-.542.279-.542-.1-.854-.118.131.267.522-.15.514-.073,0-.059.143-.009.234.073.133.14.272.228.448.308-.351.591-.365.822.119a.067.067,0,0,1,0,.007c-.625.011-1.263.009-1.873.036a2.259,2.259,0,0,1-.244-.005,8.6,8.6,0,0,0-.9-.013l-.959.019c-.846.015-1.7.015-2.535.047h0c-.65-.007-1.284.012-1.922.026-1.455.031-2.892.076-4.326.122-.139,0-.285,0-.416.006-2.061.089-4.131.176-6.1.3-.9.057-1.823.107-2.642.187h0c-.806.038-1.524.1-2.176.176a1.922,1.922,0,0,0-.518.1l-.194.033h0a7.843,7.843,0,0,0-1.968.124h0c-.256.029-.366.073-.568.108s-.429.075-.567.118c-.179.055-.511.106-.374.175h0c-.679.05-.935.148-.647.245.031.01.03.023.045.035h0c-.164,0-.307.018-.48.013v.036a1.514,1.514,0,0,1,.235.025.494.494,0,0,1,.1.046c.04.042.29.079.213.12s-.04.071.114.1c-.065.02-.242.04-.006.061h0c.562.067.581.094.1.143-.3.036-.2.074-.016.112h0c.035.039-.021.082.267.108h0l.081.011h0c-.007.006,0,.016-.023.017-.568.043-.7.094-.485.191h0a2.476,2.476,0,0,0,.409.084h0c.029.022.251.042-.034.065-.369.028-.4.082-.117.141h0a.187.187,0,0,1,.048.009l-.048-.009c.107.031-.172.035-.206.055a.984.984,0,0,0,.22.016c.1,0,.2,0,.289,0,.213.009.166.028-.154.06H233.2a1.634,1.634,0,0,0-.4.02c-.049.024.147.032.256.042.249.023.231.045.032.071-.515.057-.516.067-.027.113a.358.358,0,0,1,.082.02c-.112.052-.316.1-.14.16.026,0,.036.006.041.011l-.041-.011c-.039.023.037.04.109.061.146.041.314.084.131.132a.842.842,0,0,0-.238.026c-.142.04-.293.08.027.117s.265.069-.015.1c-.072,0-.2-.007-.194.009a.746.746,0,0,0,.278.026h0c.521.045.558.058.316.109h0c-.083,0-.181,0-.246,0a3.183,3.183,0,0,0-.466.015,2.251,2.251,0,0,0,.472.031c.022.01.129.024.022.03-.286.016-.147.032-.018.049l.247.031c0,.057.28.073.594.085h0c.167.018.138.051.258.072.06.019.111.039.079.061a.15.15,0,0,0-.06.018.137.137,0,0,1,0-.023c-.284.117-.11.247-.1.474.15-.021.11-.181.1-.322a.224.224,0,0,0,.075.006.766.766,0,0,0,.09-.011.5.5,0,0,0-.079-.013.406.406,0,0,0-.085.009l0,0a.368.368,0,0,1,0-.119c-.009.016.092.026.185.032.427.028.364.072.229.12h0c-.057.016-.224,0-.275.02h0c-.17.03-.162.06.005.09.1.037,0,.083.247.113h0l.158.022h0s.008.01-.005.012c-.6.051-.739.111-.482.206h0l.066.013h0a1.5,1.5,0,0,0,.263.048h0c-.025.025.338.042.057.072-.323.034-.4.07-.264.117a.492.492,0,0,1-.115,0,.166.166,0,0,0-.152.05.046.046,0,0,1-.008.013.03.03,0,0,1,0,.012c0,.033.062.06.107.065a1.75,1.75,0,0,0,.317-.013.791.791,0,0,1,.166-.014.17.17,0,0,0,.075-.014c.075,0,.133,0,.141.02.018.033-.262.034-.438.043-.037,0-.083,0-.125,0a1.638,1.638,0,0,0-.4.019c-.052.024.13.033.244.042.244.02.269.042.06.069-.048,0-.107.006-.143.011-.354.054-.356.056.06.1.086.009.087.019.086.03a.69.69,0,0,0-.239-.039.574.574,0,0,1,.076.15.037.037,0,0,0,.008.024.51.51,0,0,1,.017.236.122.122,0,0,0-.027.008c-.115-.017-.24-.02-.209-.009-.21.156.038.155.185.143a.389.389,0,0,1-.058.073.054.054,0,0,0-.023.007s0,.008,0,.011a.414.414,0,0,1-.138.081,1.7,1.7,0,0,1-1.32-.5c-.8.154-.1,1.1-.027,1.519-.369.117-.921.107-1.078.371-.61-.46-1.212-.11-1.911-.345a.364.364,0,0,1-.082.362c-.79.022-1.225-.242-1.89.089.291.4,1.148.375,1.818.491a.58.58,0,0,1-.272.58c.247.075,1.6-.209,1.416.421-.17.186-.687.13-.78.368.151.385,1.145.128,1.319.5.582-.162,1.176-.034,1.313.35-.031.095-.171.115-.188.219a2.574,2.574,0,0,0-2.168.524l.055.108-.147.039c.133.122.219.282.511.284-.489.307-.731.966-.136,1.3.04.424-.718.3-.663.728-.312-.087-.784-.053-.815-.354-.346.188-.062.429.035.723-.115.2-.4.243-.69.15.033.232-.161.308-.071.58.494-.077.5.221.906.209l.1-.037.1.035c-.058.066.841-.163.78-.368-.037-.12.379.078.185-.291.205.073.355.377.4,0,.183.151.352.122.217.359.575-.229.943.2,1.4.152.029.086.063.183.1.293h0c.012.193.044.367.184.428l.611.52h0c.1.312.245.5.485.455h0q.3.109.6.227-.306.107-.614.2h0c-.169-.03-.272.088-.342.279h0l-.43.32c-.1.037-.121.144-.13.262h0c-.236.574-.223.592.2.615a8.688,8.688,0,0,0,.875-.064.463.463,0,0,0-.075.036,1.116,1.116,0,0,1-.594.092q-.012,0-.022.067a.185.185,0,0,0,.03.129,1.311,1.311,0,0,0,.767.19.371.371,0,0,0,.156-.164c-.017.114-.12.131-.145.234-.116.122-.362.119-.312.407a.211.211,0,0,0,.138.175l-1.575,0c-.489.209-.49.209-.468.926,0,.145.021.29.032.435a.152.152,0,0,0,.078.117c-.137.379.129.3.272.318.09.013.18.022.269.03a1.434,1.434,0,0,0-.6.106.365.365,0,0,0,.088.533c.734.022,1.467.005,2.2-.031a.61.61,0,0,0,.28.032.084.084,0,0,0-.006-.047l.155-.008c1.039-.061,2.08-.109,3.121-.133h0l.058,0h.015l.02-.006.24,0c-.157.054-.315.1-.473.154h0c-.169-.03-.272.088-.342.279h0l-.307.228-.071,0a14.359,14.359,0,0,1-1.994-.218.17.17,0,0,0-.15.03c-.025.028-.014,0-.011.031s.027.047.075.056a14.8,14.8,0,0,0,1.991.222.311.311,0,0,0-.092.238h0a2.75,2.75,0,0,0-.141.393h-.254c0,.045,0,.089,0,.135h.261c.036.064.142.076.339.087a6,6,0,0,1,1.339-.021h.626c-.092.023-.185.047-.278.076-.183-.005-.367-.006-.55-.013-1.274-.05-2.549,0-3.822-.07-.071,0-.143.066-.234.243l1.55.3c0,.058,0,.116,0,.174h-1.861a8.721,8.721,0,0,1-1.9-.029c-.6.032-.623.056-.288.855h0c.012.165.044.313.184.365l.611.444h0c.1.266.245.43.485.388h0a17.464,17.464,0,0,1,2.534.96.02.02,0,0,0,0,.011c0,.033.05.033.1.033l.046.021a.973.973,0,0,0,.07.085c-.1.034-.209.069-.313.1h0c-.169-.03-.272.088-.342.279h0l-.43.32c-.1.037-.121.144-.13.263h0c-.236.574-.223.591.2.615a2.779,2.779,0,0,0,.47-.025q-.2.067-.4.131h0a.254.254,0,0,0-.274.137c-.012-.006-.021-.012-.035-.018l.031.022a.744.744,0,0,0-.065.137h0l-.43.319c-.1.037-.121.144-.13.263h0c-.236.574-.223.592.2.615a6.027,6.027,0,0,1,1.34-.021h1.31c0,.042,0,.084,0,.125l-1.091.219c.064.128.115.177.165.175.857-.048,1.715-.019,2.573-.047q-.306.107-.615.2h0c-.169-.03-.272.088-.342.279h0l-.43.32c-.1.037-.121.144-.13.263h0c-.236.574-.223.592.2.615a6.018,6.018,0,0,1,1.339-.021h1.31c0,.042,0,.084,0,.125l-1.091.219c.064.127.115.177.165.175.9-.051,1.794-.014,2.691-.05,1.317-.053,2.635-.011,3.953-.016a.667.667,0,0,0,.529-.115,14.507,14.507,0,0,1-3.205-.237c-.028-.009-.069.024-.1.05-.211.191-.416.289-.6-.061a.738.738,0,0,1-.654.215c-.036-.008-.08.007-.108-.016a.654.654,0,0,0-.9-.04c-.132.092-.44.092-.337-.382h0l.437-.01q3.538,0,7.076,0c.143,0,.3.037.407-.142h0l.216,0h0c.061.045.122.129.183.129h.127c.007.083.014.166.021.25a.151.151,0,0,0,.078.117c-.065.181-.038.255.023.288l-1.216.051c.414-.009.825-.024,1.237-.042a1.3,1.3,0,0,0,.228.021c.09.013.179.022.269.03a1.432,1.432,0,0,0-.6.106.35.35,0,0,0,.011.456l-.447.021c.154,0,.3-.005.452-.014a.679.679,0,0,0,.071.071c.337.01.674.01,1.011.006.089.054.2.091.3.141a.2.2,0,0,1,.064-.147l.193-.006c-.014.127-.289.228-.448.291l-.049.1-.049.1a1.969,1.969,0,0,1,.842.2c.029-.355.145.031.662-.139l-.045-.1.142-.033c.137-.1.076-.215-.185-.2-.009-.118.109-.143.1-.259l.1-.005c1.48-.087,2.963-.148,4.443-.152q.837,0,1.673-.008c0,.087,0,.172-.005.257.483.26.763.087,1.414-.142.345.385,1.283.313,1.226-.134l1.887-.014c.189.183.655.094,1.078.016a.193.193,0,0,0,.1.144.116.116,0,0,0,.115-.11.224.224,0,0,0,0-.057c.384,0,.768,0,1.152,0a.188.188,0,0,0-.01.061l.139.078-.049.125c.322.11.417,0,.845.062l-.043-.152.143-.118v-.055l.5,0-.222.05.044.123-.143.081c-.074.208.256.127.181.336.264-.13.871-.011.947-.276.021.1.129.179.467.2-.246-.29.241-.224.292-.475a.3.3,0,0,1-.19-.03c1.348.016,2.7.047,4.044.1.675.027,1.351.039,2.027.045a.558.558,0,0,0,.116.134c.878.027,1.753,0,2.631-.053q.9-.053,1.793-.089h.078q.818,0,1.635,0a1,1,0,0,0,.307.208c.14.068.2-.08.268-.205h.32c-.007.021-.014.041-.022.068l-.034,0,.031,0-.033.114a.723.723,0,0,0,.259-.092,3.623,3.623,0,0,0,1.193-.088l.857,0c-.029.028-.065.051-.062.1-.034.078.225-.076.446-.1h.089a.205.205,0,0,1,.162.092c.041-.03.079-.06.119-.09,1.559.006,3.118.007,4.676-.015a.214.214,0,0,0,.095.034,3.068,3.068,0,0,0,.753-.03c.055-.009.107-.016.157-.022l.415-.008a.434.434,0,0,0,.114,0,1.7,1.7,0,0,0,.378-.023l.367.005.219,0,3.2-.029h0a1.209,1.209,0,0,0,.415,0q.923.024,1.846.059c.869.035,1.738.045,2.607.047a1.22,1.22,0,0,0-.2.129l.164.377c.12-.112.277-.242.178-.448a.122.122,0,0,0-.05-.057c1.314,0,2.628-.012,3.942-.013q1.545,0,3.09.01a1.37,1.37,0,0,0-.124.646c.139.144.227.019.316-.113,0,0,.049-.006.049-.006a.554.554,0,0,0,.01.059.717.717,0,0,0,.176.505h0c.106.066.249-.02.33.149a.566.566,0,0,0,.44.3c.185-.424-.33-.318-.264-.69.231-.044.479.138.783-.145-.279.542-.279.542.1.854.118-.131-.267-.522.15-.514.073,0,.059-.144.009-.233-.073-.133-.139-.272-.228-.448-.308.351-.591.365-.822-.119-.1-.212-.294-.118-.439-.194l-.091-.045,1.118.006a.06.06,0,0,0,.035.009c.04,0,.08-.005.12-.008,2.3.012,4.59.016,6.885-.037a1.2,1.2,0,0,0,.7-.115.556.556,0,0,1,.477-.085.065.065,0,0,0,.01.04c.041.07.118.071.215.061a2.06,2.06,0,0,1,.564.031,3,3,0,0,0,.753.031c.063-.008.128-.041.129-.085s.022.009-.009-.037a.113.113,0,0,0-.04-.034,5.377,5.377,0,0,0,.876-.07l.008,0,.232,0a1.183,1.183,0,0,1,.125.038.255.255,0,0,0,.2-.041c.656-.008,1.311-.017,1.967-.016l1.2,0a.271.271,0,0,0-.09.089q.139.114.288.224c.167-.27.747.123.7.006,0-.074-.076-.089-.092-.148l.4,0,.134-.095.172-.05c-.014-.009-.03-.017-.046-.025h.5l.269.015a.1.1,0,0,0,.139,0l.332-.01c.548-.005,1.086.321,1.629.173a11.206,11.206,0,0,1,2.62-.134,2.17,2.17,0,0,0,.458-.028l3.487.01c.706,0,1.412-.015,2.118-.018a3.252,3.252,0,0,0,.56.063.1.1,0,0,1,.027-.061c.417,0,.834.016,1.25.043l.989-.054h0c.164.008.329.024.493.024h.011a.253.253,0,0,1-.229.062c.051.256.538.19.292.485.338-.023.445-.108.467-.206.076.272.683.15.947.282-.075-.215.255-.132.181-.344l-.143-.082.044-.126c-.12-.026-.218-.05-.3-.071h.586l0,.073.143.121-.043.155c.428-.064.523.049.845-.063l-.05-.127.139-.08a.2.2,0,0,0-.012-.078h1.241l-.007.016c.458.082,1.017.221,1.224.006a.146.146,0,0,0-.04-.022h2.058l-.136.033c-.069.464.879.541,1.226.145.651.234.931.41,1.414.145,0-.092,0-.183-.006-.277a.224.224,0,0,1-.119-.047h.213c.256,0,.511.023.767.034a.1.1,0,0,0,.139,0l.332-.009c.548-.005,1.086.321,1.629.172a11.212,11.212,0,0,1,2.62-.134c.269-.01.556.054.775-.25a11.751,11.751,0,0,1,1.882-.737h0c.169.03.272-.088.342-.279h0l.028-.021.735.039c1.247.072,2.491.111,3.737.074a.5.5,0,0,0,.125-.741,2.073,2.073,0,0,0-.859-.148c.128-.011.255-.023.383-.041.2-.028.581.084.386-.442a.185.185,0,0,0,.042-.037,25.424,25.424,0,0,1,4.11.384c.045.018.078.256.191.07-.233-.11.448-.123.368-.344-.368.086-.248-.189-.381-.278-.247.174-.637-.023-.753,0-.054.009-.075.139-.185.138-.224,0-.621-.052-.849-.073-.5-.046-1.607-.148-2.219-.269.151-.05.3-.1.452-.147h0c.24.043.387-.125.486-.4h0l.61-.454c.141-.053.172-.2.185-.373h0a4.774,4.774,0,0,0,.2-.526.521.521,0,0,0,.247.029c0,.1-.392.215,0,.206.2-.038.2-.108.091-.205.227.03.2-.125.468-.068,0-.186-.159-.139-.006-.275-.172-.176-.908.065-.945-.211.283-.348,1.136,0,1.5-.269.025.122-.088.345.194.278.278-.342.3-.647.739-.687.474-.042.11.228.377,0,.083-.071.356-.024.456-.074.712-.014,1.425.036,2.137.01.1,0,.211,0,.317,0,0,.005,0,.009,0,.014l.02-.015h.052l.023.016a.056.056,0,0,1,.006-.017.813.813,0,0,0,.679-.35l.046-.022c.048,0,.1,0,.1-.033a.022.022,0,0,0,0-.011,17.245,17.245,0,0,1,2.534-.98h0c.24.042.386-.125.485-.4h0l.611-.454c.141-.053.172-.2.184-.373h0c.335-.815.316-.839-.288-.872a8.837,8.837,0,0,1-1.89.032c.06-.009.105-.02.041-.036-.169,0-.271.029-.453.021-.4-.016-.474-.016-.455.013h-.547a.981.981,0,0,1-.181-.049h0a1.1,1.1,0,0,1,.437-.036,3.341,3.341,0,0,0,.506-.022v.071c.254.049.179-.142.278-.2h-.282c0,.024,0,.049,0,.074a.581.581,0,0,0-.163.018,1.327,1.327,0,0,1-.473.007l.263-.026h0c.011,0,.013-.007.006-.011h0c.065-.023.262-.044.081-.073l-.081-.012.023-.047h.889c.109,0,.248,0,.248-.022s-.138-.014-.226-.017a1.386,1.386,0,0,1-.381-.033c.15,0,.284,0,.415,0,.1,0,.25,0,.137-.027h0c-.035-.014-.192-.009-.2-.032h.866c.343.021.682.006,1.022,0,.252.008.435,0,.43-.044,0,0,.2-.007.112-.027a.947.947,0,0,0-.22-.013c-.592.029-1.116-.019-1.674-.029h0a1.986,1.986,0,0,0-.315-.009c-.167.011-.321.012-.471.009-.073-.125-.135-.18-.194-.177-.629.036-1.259.041-1.889.043-.111-.03-.388-.013-.524-.04a1.532,1.532,0,0,0-.493,0,1.751,1.751,0,0,1-.27.009l-.322-.056c.529,0,1.057,0,1.581.008h0c.275.025.573.008.86.01l.691.019c.3.011.609,0,.914.007a1.65,1.65,0,0,0,.3,0c.045-.005.021-.014-.035-.018a2.285,2.285,0,0,0-.345-.012h0c-.268-.012-.546-.014-.825-.014-.194-.016-.406-.012-.615-.01l-.074,0s-.011-.007-.029-.009h0c-.309-.03-.663-.028-1.009-.033v-.028h.266l.293,0a2.435,2.435,0,0,0,.6-.023l.021,0h-.022a2.672,2.672,0,0,0-.557-.028c-.2-.007-.4-.007-.6-.007v-.023l-.282,0v.023c-.215,0-.427-.007-.624-.025.374-.03.774-.009,1.161-.01a1.454,1.454,0,0,0,.458-.038h0a.7.7,0,0,0,.195-.017c.009-.018-.107-.019-.2-.022-.115-.03-.521-.043-.254-.094h0c.282.036.638.029.971.035a1.544,1.544,0,0,0,.4-.018c.064-.027-.126-.031-.241-.041-.06,0-.13-.01-.1-.023a.453.453,0,0,1,.138-.009,1.224,1.224,0,0,0,.6-.054h.332c.337,0,.658.008.98.02a1.074,1.074,0,0,0,.255-.013c.03-.008-.009-.016-.066-.018l-.663-.025a1.713,1.713,0,0,1-.468-.034c-.088-.027.109-.043.205-.053.267-.027.29-.038-.057-.052s-.684-.022-1.037-.022a.41.41,0,0,0-.064,0h0c-.24-.02-.544,0-.773-.026-.034-.019,0-.033.155-.03a4.959,4.959,0,0,0,.845-.049,7.5,7.5,0,0,0,.938.01c.06,0,.155,0,.12.019s-.063.034.121.03c.143,0,.228-.019.188-.04a1.012,1.012,0,0,0-.347-.036c-.321-.028-.014-.033.079-.046h0c.087,0,.256-.005.218-.019-.1-.038-.044-.095-.507-.095-.226,0-.424-.017-.619-.032a.219.219,0,0,1-.061-.018l.061.018c-.046-.032.053-.041.255-.032a.844.844,0,0,0,.248,0c.03-.025-.135-.024-.258-.025h0c-.072-.015-.048-.024.08-.029a3.1,3.1,0,0,0,.346-.014h0l.462-.03c-.092-.026-.405-.029-.271-.064a1.5,1.5,0,0,1,.35,0c.451.042.3-.026.364-.044s-.091-.037-.054-.058c.276-.055.187-.076-.35-.085v-.025l.175-.011-.024,0h.007l.017,0a3.593,3.593,0,0,0,.438-.01c.207-.034-.009-.045-.163-.055-.2-.014-.407-.024-.611-.035h0c0-.012-.006-.028.105-.026.275,0,.541-.017.817-.005.158.037.458.008.65.029a1.408,1.408,0,0,0,.482-.005c.134-.034.078-.106-.112-.117-.361-.021-.709-.047-1.1-.057-.734-.021-1.3-.1-2.029-.123h0a2.718,2.718,0,0,0-.507-.081h0a1.63,1.63,0,0,0-.355-.06c-.043-.049.214-.018.326-.024h.025l0,.084h.188c0-.032,0-.065,0-.1.006,0,.011,0,.013-.006s0-.007-.013-.01v-.023h-.188v.015h-.016a2.5,2.5,0,0,1-.462-.035c.285.009.56-.007.759.01v.011h.092a.533.533,0,0,1,.093.023.873.873,0,0,0,.253.011c.126-.008.213-.021.107-.042h0a.906.906,0,0,1,.185-.014.833.833,0,0,1,.367.076.456.456,0,0,0,.228.024,2.368,2.368,0,0,0,.5-.044c.017-.023-.14-.034-.284-.037a5.516,5.516,0,0,1-.625-.045s-.005-.006-.016-.01a.84.84,0,0,1,.165-.01h0c.363,0,.711.009,1.049.031l.048-.013-.24-.045h0c-.019-.011-.059-.021.066-.027s.168-.02.016-.032h-.338c-.412.007-.788-.017-1.18-.028h0c-.172-.023-.443-.019-.6-.047-.34-.047-.782-.067-1.192-.1h0a.1.1,0,0,0-.013-.059q.549.013,1.11.014a.929.929,0,0,0,.245,0c.04-.006,0-.014-.051-.018h0c-.152-.016-.329-.012-.5-.013-.195-.016-.409-.011-.618-.011h0a.42.42,0,0,0-.061,0c-.048,0-.1,0-.151-.006-.091-.092-.315-.126-.354-.007a.279.279,0,0,1,.144,0h-.168l-.082,0h0a4,4,0,0,0-.44-.031,2.288,2.288,0,0,0-.413-.016h0a.138.138,0,0,0,.034-.014c.154.008.322,0,.482,0h0a1.145,1.145,0,0,0,.4-.027c.012-.029-.217-.025-.355-.029-.155,0-.322,0-.475-.006a.064.064,0,0,0-.011-.044,2.319,2.319,0,0,0,.437-.036c.088,0,.214,0,.22-.016s-.106-.024-.221-.024h0l-.251-.024c-.048-.023-.276-.042-.076-.07h0c.3.034.658.032,1.008.036a1.635,1.635,0,0,0,.37-.016c.082-.027-.093-.032-.212-.041-.073-.006-.166-.011-.112-.026a.752.752,0,0,1,.185-.005,1.128,1.128,0,0,0,.451-.03h0a3.519,3.519,0,0,1,.668-.028c.329-.013.651.043,1.017.009-.175-.04-.544-.02-.672-.064-.028-.009-.071.017-.091.029a2.017,2.017,0,0,1-.426-.047h0a.828.828,0,0,1,.14-.042c.26-.046.247-.053-.174-.065-.119,0-.245,0-.368,0-.192-.016-.4-.012-.609-.013h0c-.183-.018-.4,0-.594-.013h0l-.143-.012h0c-.1-.036.081-.031.237-.036a2.364,2.364,0,0,0,.581-.036l.167-.011a8.379,8.379,0,0,0,.936.011c.057,0,.152,0,.128.018s-.1.027.055.032a.952.952,0,0,0,.244-.018c.192-.055-.129-.051-.341-.059-.318-.028-.025-.032.083-.044l.188-.013h0c-.009-.041.045-.089-.356-.1-.269-.006-.5-.023-.735-.038-.027-.028.065-.037.246-.031.1,0,.252.018.27-.006s-.159-.023-.285-.024c-.03-.022.069-.026.187-.026a1.835,1.835,0,0,0,.316-.021l.4-.022c-.037-.03-.355-.029-.293-.062a1.219,1.219,0,0,1,.32-.013c.325.041.325.041.428-.025h0l-.062-.072h0c.208-.026.25-.051-.02-.074a.025.025,0,0,0-.01-.009l-.174-.029h0c.066,0,.132-.007.2-.008.157,0,.36,0,.357-.028s-.185-.037-.374-.036l-.337-.022c-.063-.015-.331-.032.037-.039.3-.006.6-.018.89.005.154.017.364,0,.521.017a1.368,1.368,0,0,0,.457,0c.13-.031.093-.112-.076-.12-.386-.019-.735-.052-1.151-.058-.468-.019-.9-.048-1.3-.089-.067-.007-.153-.014-.231-.014a4.16,4.16,0,0,1-.675-.054h0a.9.9,0,0,0-.324-.048h0a2.914,2.914,0,0,0-.489-.085c.02-.046.053-.1.075-.141l.128.01c.241.033.5.064.718.1a1.226,1.226,0,0,0,.315.016c.148-.01.175-.023.063-.042s-.019-.023.1-.023h0l.318.025h0l.185.067a.466.466,0,0,0,.211.018,2.56,2.56,0,0,0,.471-.041c.027-.02-.1-.031-.231-.036l-.515-.025-.1-.021c.125-.016.333-.012.426-.037h0c.23.016.439.041.791.04a8.694,8.694,0,0,0-.88-.089c-.469-.035-.952-.066-1.428-.1-.278-.034-.6-.056-.926-.078.312-.15.592-.331.454-.64a1.239,1.239,0,0,1-.308-.038.825.825,0,0,0,.352-.334c.095-.057.19-.112.286-.165a1.067,1.067,0,0,0,.691-.149l-.141-.035.008-.017.21-.1a2.206,2.206,0,0,0-.209.1l.037-.084-.03-.01a18.958,18.958,0,0,1,1.824-.764h0c.24.049.386-.146.486-.464h0l.611-.531c.141-.062.172-.24.184-.437h0c.039-.112.073-.211.1-.3.452.05.821-.388,1.4-.155-.135-.243.034-.213.217-.367.043.388.193.078.4,0-.195.377.221.175.185.3-.061.209.837.443.78.376l.075-.026-.129.121a.148.148,0,0,0,.151-.128l.006,0,.1.037c.408.012.412-.291.906-.213C376.576,621.714,376.382,621.638,376.415,621.4Zm-2.266-4.058c-.15-.006-.3-.01-.451-.013C373.85,617.329,374,617.331,374.149,617.343Zm-4.062-4.934h0ZM272.074,607.5h0Zm2.536-.109Zm6.086-.091h0Zm.355.068h0Zm-19.75.059h0Zm-3.27-.047,0,0-.024,0Zm-1.241.124h0Zm-23.549,2.3.027,0h.005Zm.018,1.018h-.007l0,0s0,0,0,0Zm.423.3.081,0,.009.006Zm.248.441v0h.006Zm.346-2.589h0Zm-.255,2.721Zm0-.3h0Zm.341-.62h0Zm-1.143,18.306a3.1,3.1,0,0,1-.449-.009c.216.006.432,0,.646,0C233.353,629.065,233.287,629.066,233.221,629.071ZM371.9,631.106c-.15-.006-.3-.01-.451-.013C371.6,631.093,371.755,631.1,371.9,631.106Zm-2.312-.429.026,0h-.053Zm-1.366.013v.017c-.05,0-.123,0-.12-.017Zm1.577-.413c-.008,0,.007,0,.009,0H369.8Zm2.021-.929s.005,0,0,0h-.006S371.819,629.35,371.82,629.349Zm-1.015.394h0l-.041,0Zm-2.205-2.222h0Zm-2.1.595h-.023C366.458,628.109,366.5,628.113,366.5,628.115Zm.647.436.01,0h-.013Zm-80.2-20.561a.254.254,0,0,1,.044.013c.048.025.09.044.13.062l-.19,0-.042-.072Zm-.671-.522-.254,0A.294.294,0,0,1,286.277,607.468Zm1.282.363c.278.006.555.014.835.016l.151,0a.548.548,0,0,1,.216.226l-.551,0a.271.271,0,0,0-.075-.049.632.632,0,0,0-.587-.07h-.021A.9.9,0,0,0,287.559,607.831Zm6.619-.163a2.92,2.92,0,0,0,.324.013c-.01.013-.019.027-.027.04a3.411,3.411,0,0,0-.623.025,1.8,1.8,0,0,1-.563.012.8.8,0,0,0-.291.018c-.054,0-.148,0-.154-.006a2.88,2.88,0,0,0-.765-.063c-.179,0-.356-.012-.536-.014-.529-.007-1.051-.03-1.588-.018-.252.006-.207.019-.02.033h0l.088.01c.125.017.285.008.429.012h0a3.365,3.365,0,0,0,.593.023h0c.333.032.744.018,1.1.038h0c.44.031.936.019,1.4.038.292.012.591.018.886.027a.276.276,0,0,0,.014.089l-.572-.019c-.455-.013-.93,0-1.365-.029a1.8,1.8,0,0,0-.612-.01,2.28,2.28,0,0,1-.642-.074c-.006-.006-.175-.009-.271-.011-.152,0-.319,0-.456-.01-.271-.016-.55-.014-.828-.01-.056-.145-.094-.144-.188,0-.113,0-.226,0-.339,0a.528.528,0,0,0-.12-.2h.047c.265,0,.531.008.8.01.985.006,1.93.055,2.92.055.276.017.57.01.856.012h.067C293.873,607.671,294.03,607.666,294.178,607.669Zm-6.3.414v0h0v0Zm2.253-.086c-.049,0-.111,0-.161-.006l-.132,0-.066-.042a4.07,4.07,0,0,1,.411.022A.084.084,0,0,0,290.133,608Zm.067-.029h.009a.036.036,0,0,1,.011.009A.085.085,0,0,0,290.2,607.968Zm-.112.1s0,.005-.006.01a.245.245,0,0,1-.1-.014Zm-.887-.124.069-.006.138,0-.206.133A.889.889,0,0,0,289.2,607.941Zm1.1.133h0Zm-3.627-.018c-.139,0-.279,0-.422,0h-.093c-.062,0-.124,0-.186-.008a.068.068,0,0,0-.043-.014c-.029,0-.057,0-.086.006-.378-.025-.755-.057-1.132-.088.668.01,1.334.02,2,.035A.15.15,0,0,0,286.673,608.056Zm-3.075-.122.322,0C283.812,607.94,283.7,607.94,283.6,607.934Zm13.709.2h0Zm65.824,4.4,0,0,.021,0Zm.336.292h.01a.058.058,0,0,1-.016,0Zm0-.462h0Zm2.454-.035h.008a.356.356,0,0,1-.16.038,1.265,1.265,0,0,0-.318-.05l.3.051c-.075.005-.164.007-.26.007l-.041-.058,0-.005c.09.007.208.012.3.016.052,0,.11,0,.166,0h0Zm4.585.615.007,0h0Zm-4.224,14.548a.024.024,0,0,0,0,.008h-.049Zm.123,1.927h0Zm-.029.036-.016,0-.045,0Zm.352,2.262c.333.01.592,0,.838.024.119.01.325.014.245-.019-.111-.047.075-.036.264-.04.239,0,.479,0,.715,0,0,.018-.006.036-.01.056h0l-.621.014h-1.225A1.439,1.439,0,0,1,366.725,631.714ZM350.119,612.17h.01l-.006,0Zm5.923.008a.405.405,0,0,1-.035.039.651.651,0,0,0-.222.021c-.054.022.026.035.146.043-.018.012-.036.023-.056.033-.05,0-.1,0-.15,0-.074,0-.151,0-.226,0-.05-.047-.1-.092-.154-.141l.082-.007C355.622,612.175,355.839,612.173,356.042,612.178Zm2.623-.05a1.788,1.788,0,0,0-.612-.01,2.571,2.571,0,0,1-.634-.069c.091,0,.182,0,.277.005s.191.005.277.006a.18.18,0,0,0,.09-.012s.008,0,0,0a.206.206,0,0,0-.1-.014c-.064,0-.171,0-.254-.006-.1,0-.2,0-.31-.005l.316-.013c.2,0,.4,0,.586.015h0c.258.019.535.022.813.025-.056.029-.111.059-.165.093C358.855,612.136,358.758,612.133,358.664,612.127Zm7.2.476h-.01l0,0Zm-6.629-.611c-.03,0-.058.01-.081.015-.054,0-.148,0-.155-.006a2.881,2.881,0,0,0-.765-.063h-.027a.082.082,0,0,0-.038-.072c.266.005.533.009.8.009.18.011.367.012.555.012A2.382,2.382,0,0,0,359.235,611.992Zm-54.585-3.684,0,0,.01-.02h0Zm68.035,8.908a1.568,1.568,0,0,1,.751.006A6.841,6.841,0,0,1,372.685,617.216Zm-6.575-4.906a2.42,2.42,0,0,0-.326-.024c-.093,0-.21-.015-.3-.021l.015-.022a.558.558,0,0,0,.049-.044c.056,0,.129.007.189.009.719.025,1.452.041,2.144.081h0c.136.019.269.037.409.053a1.051,1.051,0,0,1-.285.082C367.4,612.379,366.772,612.339,366.11,612.31Zm2.074-.467h.008a3.1,3.1,0,0,0,.154.27l-.327-.025C368.208,612.066,368.181,611.956,368.184,611.843Zm-1.78.235a.2.2,0,0,0,.077.016c.047,0,.1,0,.162,0s.165-.008.231,0a.929.929,0,0,1,.129.028.2.2,0,0,0-.082.007c-.007.009.08.019.125.029h0l-.094.025c-.363-.023-.758-.022-1.139-.032-.072,0-.156,0-.225,0a.285.285,0,0,0,.041-.066l.074,0C365.96,612.072,366.176,612.073,366.4,612.078Zm-4.8-.194a.579.579,0,0,0,.078,0c.538,0,1.049.043,1.6.023.187.014.364.032.562.041a4.689,4.689,0,0,0,.743.02h0l.167,0a1.08,1.08,0,0,1,.413.368c-.357-.051-.851-.028-1.267-.047h.006c-.365-.034-.793-.024-1.189-.036-.176-.019-.382-.023-.593-.025h0l-.051,0q-.141-.066-.289-.125c.365,0,.73.01,1.1.008l.5,0,.049,0c.113.009.248.006.365.013h0a2.832,2.832,0,0,0,.333.009,1.452,1.452,0,0,0,.327,0c.046-.006,0-.014-.057-.016-.853-.033-1.708-.065-2.534-.111l-.01,0h0l.014,0a1.743,1.743,0,0,0-.484-.05,4.24,4.24,0,0,0-.663-.15A3.679,3.679,0,0,1,361.606,611.884Zm-3.159-.127c.42.025.919.013,1.3.055h0c.028,0,.058,0,.087.005-.07.011-.139.023-.207.039l-1.749-.043a.109.109,0,0,1-.071-.067q.286.008.582.006h0Zm-22.67-1.84,0,.007h0Zm-3.846-1.105a.656.656,0,0,0,.475-.075c.1-.054.344-.054.263.223h0l-.342.006H331.9A.519.519,0,0,0,331.93,608.811Zm-.975-.107c-.063.007-.126.013-.189.018A.261.261,0,0,1,330.955,608.7Zm-18.385-.11v0l0,0Zm-10.851-.535.059.008a.3.3,0,0,0,.016.061.6.6,0,0,0,.056-.051c.1.014.2.027.311.039h0l.153.017-.727.006-.06-.023a.118.118,0,0,0-.132.024l-.269,0-.03,0,.017-.043a.876.876,0,0,0-.149.035c-.33-.021-.666-.039-1.014-.054l-.038-.005c.071,0,.143.01.217.013l.023-.091c.529.017,1.058.033,1.565.062Zm-.746-.191h.007c0,.013.008.026.012.037l-.059,0a.824.824,0,0,0-.155,0,.339.339,0,0,0,.01-.037C300.853,607.863,300.916,607.863,300.974,607.868Zm.155.031a.19.19,0,0,1-.075.009.173.173,0,0,1,.042-.029C301.13,607.884,301.148,607.89,301.129,607.9Zm-.355.011c.023.007.081.014.115.022h0l-.094.025-.045,0A.214.214,0,0,0,300.774,607.911Zm.186-.115-.154-.01C300.822,607.722,300.921,607.681,300.96,607.8Zm-.623.054a.16.16,0,0,0,.087.091l-.253-.006.022-.089Zm-4.888-.2a.548.548,0,0,0,.078,0c.538,0,1.049.043,1.6.023.187.014.364.032.562.041a4.7,4.7,0,0,0,.743.02h0a5.425,5.425,0,0,1,.656.036c-.037.05.037.1.456.077l.132-.005c0,.024-.005.048-.006.076h-.017a1.24,1.24,0,0,0-.356.017c-.041.026.146.031.276.036l.1,0c0,.024,0,.049,0,.076l-.052,0a2.455,2.455,0,0,0-.46-.014c-.073.031.233.041.429.05l.084,0s0,.006,0,.01.029-.006.043-.01h.046a1.15,1.15,0,0,1-.458.046h-.123l-.155-.023c-.358-.054-.864-.03-1.287-.049h.006c-.365-.033-.793-.024-1.189-.036-.176-.019-.382-.023-.593-.025h0c-.269-.01-.545-.018-.806-.031-.137-.007-.276-.012-.414-.018l.052-.038-.023-.053c.643.015,1.292.025,1.951.022l.5,0,.049,0c.113.009.248.006.365.013h0a2.888,2.888,0,0,0,.333.008,1.457,1.457,0,0,0,.327,0c.047-.006,0-.014-.058-.016-.853-.033-1.708-.065-2.533-.111l-.01,0h0l.014,0a2.292,2.292,0,0,0-.689-.047c-.095,0-.2,0-.3,0l-.027-.063c.088-.006.059-.013-.008-.018l-.03-.07A3.3,3.3,0,0,1,295.449,607.654Zm-6.364-.224s0,.006,0,.01l.01-.011c.056,0,.112-.006.167-.013a1.7,1.7,0,0,1,.285,0c.005,0,.01.007.01.006l0-.005a.827.827,0,0,1,.129.02.4.4,0,0,0,.174.024h0c.3-.005.541.031.843.026h0c.158.013.333.013.508.013h0c.325.021.67.025,1.021.024h0l.061,0c.42.026.919.013,1.3.056h0a1.891,1.891,0,0,0,.422,0c.182.006.38,0,.575,0-.02.019-.04.039-.058.059-.079,0-.162-.007-.25-.006h0c-.217-.016-.454-.009-.681-.013h0c-.938-.023-1.875-.048-2.815-.069-.563-.013-1.121-.044-1.7-.016l-.063,0-.03-.027c-.01-.026-.02-.053-.029-.079C289,607.438,289.043,607.433,289.085,607.43Zm-1.181,0,.151,0a.458.458,0,0,0-.212.152c.164.111.227.153.277.081h.021c.059,0,.156,0,.151-.013s-.077-.018-.155-.019a1.439,1.439,0,0,0,.068-.2l.269.005a.437.437,0,0,1-.21.257.19.19,0,0,0,.158.033.545.545,0,0,0,.052.052c-.113,0-.226,0-.346-.01-.182-.01-.371-.017-.556-.016.013-.092.023-.2.031-.333C287.7,607.429,287.8,607.432,287.9,607.433Zm-.55-.008c-.022.028-.044.06-.066.092,0,.005-.049.006-.049.006a.549.549,0,0,0-.01-.059c0-.014,0-.026,0-.039Zm-6.033-.062-.023-.01a2.44,2.44,0,0,1,.357-.015h.581c.57.032,1.173.032,1.771.037.247.018.514.01.774.012h.067c.193.016.405.009.61.01h.128l.029.057C284.173,607.436,282.715,607.431,281.321,607.363Zm4.984.244c-.149-.015-.309-.018-.473-.019a.848.848,0,0,1,.086-.067c.145,0,.29,0,.436,0a.63.63,0,0,1,.075.082Zm-11.51.12h0c0-.025,0-.05-.005-.075A.393.393,0,0,0,274.794,607.727Zm-1.726.037h0Zm-1.11-.041.029,0h-.012c-.007,0-.02,0-.021,0S271.933,607.727,271.958,607.723Zm-1.727.067,0,0-.03,0Zm-.619-.1h.016l-.01,0-.005,0h0Zm-1.185.1h0Zm.823.08-.768.052-.306,0a.653.653,0,0,0-.053-.056C268.5,607.861,268.875,607.865,269.251,607.869Zm-1.914,0a1.339,1.339,0,0,1,.371-.011c-.014.012-.027.027-.041.041-.121-.007-.226-.018-.33-.031Zm-12.13-.387h0Zm-.08-.049h0Zm-9.975,3.962-.063,0h-.05Zm-.282.909h0Zm-.084-.887Zm3.119-.85.01,0,.006,0Zm.07-.133H248l-.035.007Zm.879,2.55h0Zm4.913-5.539Zm-.086.374s0,0,0,0h-.024Zm-2.453.013h0Zm-2.041.365h0Zm-.033-.286s-.008,0-.015.008h-.033A.149.149,0,0,1,249.154,607.915Zm-.077.248a.387.387,0,0,1,.065.008c-.024,0-.053,0-.083.005A.027.027,0,0,0,249.077,608.163Zm-.225-.265h0Zm-.94,1.264h0Zm0-.244h0Zm-.042-.206h.049l-.056,0Zm-.036.255h-.011l0,0Zm-.169.364h0Zm-.254.51h0Zm-.431,1.178h0Zm-.277-1.2h.031a.617.617,0,0,1-.079.009Zm-.229-.9h0Zm-.165.486h0Zm-.116.434h0Zm-.561-1.83-.015,0h.015Zm-.085,1.166h0Zm-.084.036Zm-.125-1.25h.039l-.041.007S245.337,607.962,245.338,607.96Zm-.13.825-.006,0-.008,0Zm-.339.449h0Zm-.254,1.737-.028,0-.014,0Zm-.085.255h0Zm-9.579,10.6h-.041c.006-.007.012-.012.018-.02Zm6.613-9.251,0,0-.008,0Zm-.792-.219h.03a.478.478,0,0,1-.094.01A.62.62,0,0,0,240.772,612.356Zm-.055.036h0Zm0,.717h0Zm-.147-.741h-.053l-.01,0Zm-.274,1.1h0Zm-.085.486h-.121l.091,0Zm-.17-.389h0Zm-.254-.328h-.023l-.011,0Zm-.348.85h0Zm-1.008-.57h0Zm-.763-.6h-.024l.024,0Zm1.441.3h-.018l.007,0Zm-.862-2.867h0Zm-.744,3.182Zm-.342-.327h0Zm-.085.631h-.024l-.006,0Zm-.311-.316,0,0-.024,0Zm.057-3.1h0Zm5.829,3.6.01,0h-.01Zm.078.035h0Zm-.483-.316h0Zm2.2-3.122h0s0,0,0,0l-.014,0Zm-.158-.048h0Zm-.011-1.592h0Zm-.424.28h0Zm0,.729-.033.005-.014,0Zm-.085-.109h0Zm-.254,2.454h0Zm-.1-2.418h.018l-.021,0S243.41,609.915,243.412,609.914Zm-.405.39h0Zm-.087-.085h0Zm-.254.085h0Zm-.236.265.039,0-.043,0Zm-.592.765s0,0,0,0h.02Zm-.007-2.9h0Zm-.2,1.931h0Zm-.659,1.17h-.024l-.01,0-.014-.005A.321.321,0,0,1,240.971,611.53Zm-.085-2.964h0Zm-.085,2.66h0Zm-.1-1.277h0Zm-.157.536h0l-.028,0s0,0,0-.005Zm-.172-.207h-.009l-.007,0Zm-.509.012h0Zm-.086-2.029h0Zm-.093-.036h.01l-.012,0Zm-.075.4-.011,0-.007,0Zm-.168.291h0Zm-.764,1.47h0Zm-.947,1.975.011,0h-.02Zm-.152-3.261h-.016C237.534,609.1,237.592,609.1,237.584,609.1Zm-.087,1.9h0Zm-.85-.982h0Zm-.173.073-.01,0,.016,0Zm.04.231,0,0-.037,0h.034Zm.009-1.448h0Zm-.3.245h0Zm-.509.7h0Zm-.178,1.033h0Zm-.075-.437h0Zm-.509,2.224h0Zm-.617.547h.028Zm-.017,15.867c-.135,0-.273-.006-.416-.008.14,0,.278,0,.416,0Zm.189,0h0Zm.338-2.947a1.986,1.986,0,0,1-.861-.077,1.293,1.293,0,0,1,.292.043h.693A.3.3,0,0,0,234.847,626.118Zm.367-.024c-.028,0-.058-.008-.087-.01h.461v.017A2.357,2.357,0,0,0,235.214,626.094Zm.71.072a.668.668,0,0,1,.015-.215h0l.391-.009a.39.39,0,0,0,.165.259A2.5,2.5,0,0,1,235.924,626.166Zm-.034,5.829h0c-.147-.659.291-.66.479-.531a.944.944,0,0,0,1.277-.056c.039-.033.1-.011.153-.023a.81.81,0,0,1,.24-.02c.064.261.44.3.551.531a.57.57,0,0,1-.11.112h-1.969Zm3.4,6.029c-.169.087-.34.166-.512.24a.751.751,0,0,1-.055-.09.738.738,0,0,1-.654.215c-.036-.009-.08.007-.108-.016a.654.654,0,0,0-.9-.04c-.132.092-.44.092-.337-.382h0l.437-.01h2.2A.649.649,0,0,0,239.288,638.023Zm2.988-6.891a.085.085,0,0,1-.051.051l-.463,0h-.16c-.018-.091.02-.214.112-.186-.042-.037-.233-.02-.35-.05h.937l.015.017a1.976,1.976,0,0,1-.226.031C242.052,631.115,242.161,631.126,242.276,631.133Zm7.376,9.677a3.066,3.066,0,0,1-.449-.009c.217.006.432,0,.646,0C249.783,640.8,249.718,640.805,249.652,640.81Zm.684-.017q.2,0,.4,0l.014,0C250.616,640.8,250.478,640.794,250.336,640.793Zm30.061.563a.407.407,0,0,0,.034-.034l.27,0Zm55.436-.9h-.081a.691.691,0,0,1,.049-.06l.036.009C335.835,640.422,335.834,640.437,335.833,640.456Zm.371.32,0,0h0Zm3.817.3h.316A.882.882,0,0,1,340.021,641.082Zm18.8-1.957.008-.01c.192,0,.385,0,.579,0A4.829,4.829,0,0,1,358.822,639.125Zm2.509-3.1c-.088.005-.176.006-.263,0a.563.563,0,0,1,.206-.073C361.364,635.963,361.348,635.993,361.331,636.023Zm5.909-5.272.008,0,.015,0Zm2.547-.8h0Zm-1.483.564h0Zm1.628-.49c-.08,0-.167.005-.256.006l.29-.022C369.958,630.016,369.957,630.023,369.931,630.025Zm.532-.306h0Zm-2.117-1.362c.1,0,.2.006.306.009.018.015.033.032.049.048-.152-.016-.315-.028-.506-.033h0C368.172,628.364,368.257,628.36,368.347,628.357Zm-.709.437a.007.007,0,0,0,0,.007l-.065,0Zm-.186-.508h-.219v-.024l.111,0h.036l.035,0,.037,0C367.444,628.273,367.443,628.282,367.452,628.286Zm.046-.078c-.088,0-.177,0-.267,0v-.015a.475.475,0,0,0-.146.014h-.2l-.028-.015a.147.147,0,0,0,0,.015c-.148,0-.29-.007-.425-.018l.006-.014c.32-.017.656-.006.98,0h.018a.2.2,0,0,0-.026.02C367.42,628.168,367.476,628.189,367.5,628.208Zm.763-1.5h0l0,0Zm-.427-.535h0Zm1.881-4.826.023-.02c.006.008.012.013.018.02Z" transform="translate(-227.646 -605.803)" fill="url(#linear-gradient)"/>
  <path id="Path_6483" data-name="Path 6483" d="M1069.11,665.489l-.184.235c.05-.006.1-.01.151-.016C1069.151,665.641,1069.1,665.565,1069.11,665.489Z" transform="translate(-924.94 -648.984)" fill="url(#linear-gradient)"/>
  <path id="Path_6484" data-name="Path 6484" d="M778.3,734.49l-3.038-.211A8.5,8.5,0,0,0,778.3,734.49Z" transform="translate(-680.91 -699.068)" fill="url(#linear-gradient)"/>
  <path id="Path_6485" data-name="Path 6485" d="M802.45,735.665a1.355,1.355,0,0,0,.266.011l.106-.026-.573-.2A2.092,2.092,0,0,1,802.45,735.665Z" transform="translate(-702.566 -699.897)" fill="url(#linear-gradient)"/>
  <path id="Path_6486" data-name="Path 6486" d="M746.4,614.15c0-.013-.011-.026-.019-.039-.018,0-.051.008-.051.012s.012.026.019.039C746.366,614.158,746.4,614.154,746.4,614.15Z" transform="translate(-656.224 -611.554)" fill="url(#linear-gradient)"/>
  <path id="Path_6487" data-name="Path 6487" d="M274.947,699.24c.68.023.617-.181.487-.362C274.988,698.869,274.97,699.056,274.947,699.24Z" transform="translate(-261.108 -673.211)" fill="url(#linear-gradient)"/>
  <path id="Path_6488" data-name="Path 6488" d="M264.063,699.626c0-.072,0-.145.007-.216H263.6C263.761,699.477,263.636,699.676,264.063,699.626Z" transform="translate(-253.077 -673.591)" fill="url(#linear-gradient)"/>
  <path id="Path_6489" data-name="Path 6489" d="M366.9,735.3c.368.177.3-.106.794-.073C367.675,735.008,366.85,735.079,366.9,735.3Z" transform="translate(-330.312 -699.646)" fill="url(#linear-gradient)"/>
  <path id="Path_6490" data-name="Path 6490" d="M423.928,738.019c0-.073.005-.144.007-.217C423.477,737.7,423.463,738.126,423.928,738.019Z" transform="translate(-389.573 -701.55)" fill="url(#linear-gradient)"/>
  <path id="Path_6491" data-name="Path 6491" d="M421.788,738.343c-.279.018-.366.125-.327.289h.476C422.009,738.48,421.834,738.44,421.788,738.343Z" transform="translate(-387.824 -701.944)" fill="url(#linear-gradient)"/>
  <path id="Path_6492" data-name="Path 6492" d="M393.825,739.689c.055.139.2-.046.163-.143C393.932,739.408,393.784,739.593,393.825,739.689Z" transform="translate(-350.138 -702.76)" fill="url(#linear-gradient)"/>
  <path id="Path_6493" data-name="Path 6493" d="M365.67,740.474a.873.873,0,0,0,.785.215C366.186,740.622,366.2,740.423,365.67,740.474Z" transform="translate(-329.404 -703.445)" fill="url(#linear-gradient)"/>
  <path id="Path_6494" data-name="Path 6494" d="M345.274,740.916c-.027-.062.064-.068.161-.073.067-.141-.718-.1-.478.073Z" transform="translate(-314.094 -703.652)" fill="url(#linear-gradient)"/>
  <path id="Path_6495" data-name="Path 6495" d="M270.863,741.382c0,.047,0,.1,0,.143l.794,0C271.474,741.476,271.048,741.191,270.863,741.382Z" transform="translate(-258.216 -704.048)" fill="url(#linear-gradient)"/>
  <path id="Path_6496" data-name="Path 6496" d="M362.367,742.194c.34.219,1.018-.087,0,0Z" transform="translate(-326.963 -704.657)" fill="url(#linear-gradient)"/>
  <path id="Path_6497" data-name="Path 6497" d="M267.654,742.779c-.281.065-.269.266-.642.289.29.245.56-.124.952-.073C267.911,742.9,267.69,742.88,267.654,742.779Z" transform="translate(-255.495 -705.082)" fill="url(#linear-gradient)"/>
  <path id="Path_6498" data-name="Path 6498" d="M263.783,743.013c-.042.277.909.237.951,0C264.446,743.145,264.334,742.953,263.783,743.013Z" transform="translate(-253.209 -705.239)" fill="url(#linear-gradient)"/>
  <path id="Path_6499" data-name="Path 6499" d="M301.09,743.863c-.111.05.619.2.474.07A.779.779,0,0,0,301.09,743.863Z" transform="translate(-279.595 -705.836)" fill="url(#linear-gradient)"/>
  <path id="Path_6500" data-name="Path 6500" d="M294.589,744.7c.128.21.4-.1.793,0C295.347,744.531,294.686,744.662,294.589,744.7Z" transform="translate(-275.004 -706.382)" fill="url(#linear-gradient)"/>
  <path id="Path_6501" data-name="Path 6501" d="M337.1,740.186l-.239.037c-.486-.052-.311.2-.8.148l-.24.037-.081.108a.373.373,0,0,0-.156.159l-.561-.049a.8.8,0,0,0,.789.068l-.081.11c.347-.014.5.056.468.215a.917.917,0,0,1,.947.068c.2-.1.9-.033.484-.217a6.5,6.5,0,0,0,1.9-.078,6.972,6.972,0,0,1-2.354-.714Z" transform="translate(-306.888 -703.172)" fill="url(#linear-gradient)"/>
  <path id="Path_6502" data-name="Path 6502" d="M348.186,737.385c-.384.244.566.287-.329.364.278.229,1.3.123,1.412.426.345.013.506-.059.482-.216.579.225,1.279-.047,1.9.138.394-.064.477-.269.8-.363a1.873,1.873,0,0,0,.946.14c.18-.111.455-.178.639-.288l1.974.316a2.945,2.945,0,0,0-2.207-.353l.082-.109c-.539-.089-1.424-.02-1.9-.139l-.082.109-.237-.036A8.077,8.077,0,0,1,348.186,737.385Z" transform="translate(-316.438 -701.207)" fill="url(#linear-gradient)"/>
  <path id="Path_6503" data-name="Path 6503" d="M374.344,739.165a8.95,8.95,0,0,0,2.69.137c.071-.15-.1-.191-.151-.288l-.234-.084.083-.132c-.15-.01-.109-.054-.039-.068a18.82,18.82,0,0,1-2.02.074l.075.109-.238.037C374.322,738.961,374.372,739.082,374.344,739.165Z" transform="translate(-335.85 -702.218)" fill="url(#linear-gradient)"/>
  <path id="Path_6504" data-name="Path 6504" d="M385.8,738.036c-.029-.058-.157-.072-.155-.145l0-.07-.234-.084.085-.133c-.271.028-.3-.056-.314-.144-.547.14-1.678.013-1.6.438l.29-.037.18.108C384.975,737.971,385.209,738.008,385.8,738.036Z" transform="translate(-342.65 -701.319)" fill="url(#linear-gradient)"/>
  <path id="Path_6505" data-name="Path 6505" d="M399.805,736.6l-.236-.035.082-.108c-.639-.109-1.475-.335-1.9.006l.075.107a3.423,3.423,0,0,0-.637.1l.084-.134c-.205-.086-.249-.027-.476,0l.077.108-.237-.036c-1.637.045-2.822-.3-3.808.157l.237.036-.083.109a8.483,8.483,0,0,0,3.169-.01c.293.009.089.244.306.287.212-.075.587-.071.8-.148l-.076-.108a2.64,2.64,0,0,0,.793,0l-.083.109c.489-.055.3.2.787.143a1.33,1.33,0,0,1,1.114-.149C399.928,736.788,399.506,736.735,399.805,736.6Z" transform="translate(-364.689 -700.489)" fill="url(#linear-gradient)"/>
  <path id="Path_6506" data-name="Path 6506" d="M420.968,735.792l.084-.109.236.036c.178-.27-.589-.111-.463-.359a23.772,23.772,0,0,1-3.013.08c-.1.123-.483.121-.641.22l.236.035-.477.073-.24.038.237.034c.133.176.568.1.866.092a1.785,1.785,0,0,0,.246-.167l-.083.109c.866.105,1.532.039,1.574.285.6.1.31-.2.8-.147l-.075-.109.24-.037C420.519,735.781,420.782,735.8,420.968,735.792Z" transform="translate(-384.264 -699.833)" fill="url(#linear-gradient)"/>
  <path id="Path_6507" data-name="Path 6507" d="M368.191,739.525c-.738-.339.056.4.156.072C368.373,739.511,368.265,739.56,368.191,739.525Z" transform="translate(-331.025 -702.716)" fill="url(#linear-gradient)"/>
  <path id="Path_6508" data-name="Path 6508" d="M352.429,741.343l-.24.036-.075-.108a5.233,5.233,0,0,0-1.118.292,8.15,8.15,0,0,0,2.85-.009C353.65,741.3,353.124,741.271,352.429,741.343Z" transform="translate(-318.632 -704.015)" fill="url(#linear-gradient)"/>
  <path id="Path_6509" data-name="Path 6509" d="M263.358,739.5a4.526,4.526,0,0,0,.555-.037Z" transform="translate(-252.91 -702.738)" fill="url(#linear-gradient)"/>
  <path id="Path_6510" data-name="Path 6510" d="M441.933,734.982l.792,0A5.553,5.553,0,0,0,441.933,734.982Z" transform="translate(-404.781 -699.557)" fill="url(#linear-gradient)"/>
  <path id="Path_6511" data-name="Path 6511" d="M269.064,738.867a2.707,2.707,0,0,0,.318-.036Z" transform="translate(-256.946 -702.289)" fill="url(#linear-gradient)"/>
  <path id="Path_6512" data-name="Path 6512" d="M275.493,742.383a.484.484,0,0,0-.057.145Z" transform="translate(-261.454 -704.802)" fill="url(#linear-gradient)"/>
  <path id="Path_6513" data-name="Path 6513" d="M331.8,741.184h.317A.824.824,0,0,0,331.8,741.184Z" transform="translate(-301.331 -703.942)" fill="url(#linear-gradient)"/>
  <path id="Path_6514" data-name="Path 6514" d="M350.614,736.718l-.792,0C350.086,736.734,350.351,736.719,350.614,736.718Z" transform="translate(-317.72 -700.794)" fill="url(#linear-gradient)"/>
  <path id="Path_6515" data-name="Path 6515" d="M432.123,736.875l.711.07a.3.3,0,0,1-.023-.036A1.305,1.305,0,0,0,432.123,736.875Z" transform="translate(-396.663 -700.883)" fill="url(#linear-gradient)"/>
  <path id="Path_6516" data-name="Path 6516" d="M417.269,736.422l-.1-.137C417.164,736.329,417.186,736.376,417.269,736.422Z" transform="translate(-384.249 -700.488)" fill="url(#linear-gradient)"/>
  <path id="Path_6517" data-name="Path 6517" d="M416.6,735.3c-.042-.007-.083-.011-.123-.016l.205.293c.013-.072.1-.139.134-.183A2.279,2.279,0,0,1,416.6,735.3Z" transform="translate(-383.695 -699.778)" fill="url(#linear-gradient)"/>
  <path id="Path_6518" data-name="Path 6518" d="M406.281,737.18l-.155-.144A.408.408,0,0,0,406.281,737.18Z" transform="translate(-375.128 -701.019)" fill="url(#linear-gradient)"/>
  <path id="Path_6519" data-name="Path 6519" d="M391.322,738.066l-.958.087A6.861,6.861,0,0,0,391.322,738.066Z" transform="translate(-347.615 -701.748)" fill="url(#linear-gradient)"/>
  <path id="Path_6520" data-name="Path 6520" d="M382.224,739a2.091,2.091,0,0,0,.692-.171Z" transform="translate(-341.606 -702.288)" fill="url(#linear-gradient)"/>
  <path id="Path_6521" data-name="Path 6521" d="M360.642,736.935l.311.216A1.2,1.2,0,0,0,360.642,736.935Z" transform="translate(-325.686 -700.948)" fill="url(#linear-gradient)"/>
  <path id="Path_6522" data-name="Path 6522" d="M317.086,731.569l-.395-.034A1.214,1.214,0,0,0,317.086,731.569Z" transform="translate(-290.639 -697.128)" fill="url(#linear-gradient)"/>
  <path id="Path_6523" data-name="Path 6523" d="M271.868,739.4c.182.1.353.16.5.257l-.381-.468C271.911,739.26,271.831,739.333,271.868,739.4Z" transform="translate(-258.923 -702.542)" fill="url(#linear-gradient)"/>
  <path id="Path_6524" data-name="Path 6524" d="M337.643,740.853a.447.447,0,0,0-.047-.145Z" transform="translate(-305.428 -703.617)" fill="url(#linear-gradient)"/>
  <path id="Path_6525" data-name="Path 6525" d="M336.545,741.2l-.5.092A2.725,2.725,0,0,0,336.545,741.2Z" transform="translate(-304.33 -703.968)" fill="url(#linear-gradient)"/>
  <path id="Path_6526" data-name="Path 6526" d="M429.768,737.026l.051-.074-.953.076A1.8,1.8,0,0,0,429.768,737.026Z" transform="translate(-393.994 -700.96)" fill="url(#linear-gradient)"/>
  <path id="Path_6527" data-name="Path 6527" d="M387.287,735.05a1.609,1.609,0,0,0,.286,0l-.364-.167C387.171,734.931,387.2,734.991,387.287,735.05Z" transform="translate(-345.26 -699.495)" fill="url(#linear-gradient)"/>
  <path id="Path_6528" data-name="Path 6528" d="M355.074,740.94a.533.533,0,0,0,.088-.289Z" transform="translate(-321.576 -703.577)" fill="url(#linear-gradient)"/>
  <path id="Path_6529" data-name="Path 6529" d="M240.641,634.279c-.3-.072-.3-.285-.855-.228A.99.99,0,0,0,240.641,634.279Z" transform="translate(-236.234 -626.171)" fill="url(#linear-gradient)"/>
  <path id="Path_6530" data-name="Path 6530" d="M251.065,634.692c0-.052-.008-.1-.012-.155l-.336,0,.012.155Z" transform="translate(-243.967 -626.529)" fill="url(#linear-gradient)"/>
  <path id="Path_6531" data-name="Path 6531" d="M232.154,642.56l-.336,0c0,.051.008.1.012.154l.336,0Z" transform="translate(-230.597 -632.348)" fill="url(#linear-gradient)"/>
  <path id="Path_6532" data-name="Path 6532" d="M232.1,657.932c.612-.171-.5-.6-.863-.3C231.14,657.914,231.962,657.757,232.1,657.932Z" transform="translate(-230.18 -643.211)" fill="url(#linear-gradient)"/>
  <path id="Path_6533" data-name="Path 6533" d="M239.042,653.347l.9.021A3.69,3.69,0,0,0,239.042,653.347Z" transform="translate(-235.708 -640.159)" fill="url(#linear-gradient)"/>
  <path id="Path_6534" data-name="Path 6534" d="M236.77,666.843l-.264-.153C236.545,666.767,236.57,666.833,236.77,666.843Z" transform="translate(-233.914 -649.852)" fill="url(#linear-gradient)"/>
  <path id="Path_6535" data-name="Path 6535" d="M245.456,667.384l.151.015-.184-.231C245.435,667.243,245.382,667.318,245.456,667.384Z" transform="translate(-240.217 -650.202)" fill="url(#linear-gradient)"/>
  <path id="Path_6536" data-name="Path 6536" d="M510.892,735.877a1.387,1.387,0,0,0,.266-.011,2.05,2.05,0,0,1,.2-.211l-.573.2Z" transform="translate(-461.667 -700.042)" fill="url(#linear-gradient)"/>
  <path id="Path_6537" data-name="Path 6537" d="M767.508,614.351h1.4A2.374,2.374,0,0,0,767.508,614.351Z" transform="translate(-674.065 -611.647)" fill="url(#linear-gradient)"/>
  <path id="Path_6538" data-name="Path 6538" d="M675.539,612.1a.142.142,0,0,0,.189-.1c.016-.113-.059-.188-.18-.228-.1,0-.175.039-.194.118C675.325,612.011,675.419,612.078,675.539,612.1Z" transform="translate(-597.64 -609.9)" fill="url(#linear-gradient)"/>
  <path id="Path_6539" data-name="Path 6539" d="M673.927,607.584c-.2,0-.2.2-.222.344h.37C674.032,607.807,674.175,607.589,673.927,607.584Z" transform="translate(-596.28 -606.937)" fill="url(#linear-gradient)"/>
  <path id="Path_6540" data-name="Path 6540" d="M763.854,614.325c.041,0,.079-.049.113-.071-.056-.082-.152-.068-.238-.062a.4.4,0,0,0-.148.053C763.627,614.373,763.753,614.332,763.854,614.325Z" transform="translate(-670.559 -611.608)" fill="url(#linear-gradient)"/>
  <path id="Path_6541" data-name="Path 6541" d="M675.048,608.8l-.077-.036.043.066Z" transform="translate(-597.263 -607.769)" fill="url(#linear-gradient)"/>
  <path id="Path_6542" data-name="Path 6542" d="M674.415,610.42l-.077-.036.042.066Z" transform="translate(-596.741 -608.918)" fill="url(#linear-gradient)"/>
  <path id="Path_6543" data-name="Path 6543" d="M404.11,606.09l-.077-.036.043.066Z" transform="translate(-373.391 -605.854)" fill="url(#linear-gradient)"/>
  <path id="Path_6544" data-name="Path 6544" d="M575.955,605.829v-.317l-.37.158A.4.4,0,0,0,575.955,605.829Z" transform="translate(-515.191 -605.471)" fill="url(#linear-gradient)"/>
  <path id="Path_6545" data-name="Path 6545" d="M576.889,606.641a.433.433,0,0,0,.15.054c.008,0,.029-.037.044-.057-.052-.018-.1-.039-.155-.054C576.829,606.556,576.81,606.582,576.889,606.641Z" transform="translate(-516.207 -606.221)" fill="url(#linear-gradient)"/>
  <path id="Path_6546" data-name="Path 6546" d="M571.786,606.94h.185Q571.879,606.777,571.786,606.94Z" transform="translate(-512.021 -606.423)" fill="url(#linear-gradient)"/>
  <path id="Path_6547" data-name="Path 6547" d="M572.5,607.172l-.077-.036.042.066Z" transform="translate(-512.527 -606.62)" fill="url(#linear-gradient)"/>
  <path id="Path_6548" data-name="Path 6548" d="M576.893,607.993l-.043.066.077-.036Z" transform="translate(-516.188 -607.226)" fill="url(#linear-gradient)"/>
  <path id="Path_6549" data-name="Path 6549" d="M398.335,605.412l.186.159C398.473,605.506,398.613,605.28,398.335,605.412Z" transform="translate(-353.468 -605.371)" fill="url(#linear-gradient)"/>
  <path id="Path_6550" data-name="Path 6550" d="M427.453,607.677h0Z" transform="translate(-392.736 -607.003)" fill="url(#linear-gradient)"/>
  <path id="Path_6551" data-name="Path 6551" d="M471.5,608.628c-.455-.178-.356.118-.37.317A.6.6,0,0,0,471.5,608.628Z" transform="translate(-428.87 -607.637)" fill="url(#linear-gradient)"/>
  <path id="Path_6552" data-name="Path 6552" d="M471.389,607.008c0-.008-.042-.014-.065-.021a.183.183,0,0,0-.024.067c0,.008.042.014.065.021A.186.186,0,0,0,471.389,607.008Z" transform="translate(-428.975 -606.514)" fill="url(#linear-gradient)"/>
  <path id="Path_6553" data-name="Path 6553" d="M909.609,616.222h1.4A2.375,2.375,0,0,0,909.609,616.222Z" transform="translate(-791.57 -612.97)" fill="url(#linear-gradient)"/>
  <path id="Path_6554" data-name="Path 6554" d="M817.64,613.975a.142.142,0,0,0,.188-.1c.016-.113-.059-.188-.18-.228-.1,0-.175.039-.194.118C817.425,613.881,817.519,613.948,817.64,613.975Z" transform="translate(-715.076 -611.223)" fill="url(#linear-gradient)"/>
  <path id="Path_6555" data-name="Path 6555" d="M816.027,609.455c-.2,0-.2.2-.222.344h.37C816.132,609.678,816.275,609.459,816.027,609.455Z" transform="translate(-713.715 -608.26)" fill="url(#linear-gradient)"/>
  <path id="Path_6556" data-name="Path 6556" d="M905.954,616.2c.041,0,.079-.049.113-.071-.056-.082-.152-.068-.238-.061a.4.4,0,0,0-.148.053C905.727,616.244,905.853,616.2,905.954,616.2Z" transform="translate(-787.995 -612.932)" fill="url(#linear-gradient)"/>
  <path id="Path_6557" data-name="Path 6557" d="M817.148,610.667l-.077-.036.043.066Z" transform="translate(-714.679 -609.092)" fill="url(#linear-gradient)"/>
  <path id="Path_6558" data-name="Path 6558" d="M816.515,612.291l-.077-.036.043.066Z" transform="translate(-714.156 -610.241)" fill="url(#linear-gradient)"/>
  <path id="Path_6559" data-name="Path 6559" d="M546.21,607.96l-.077-.036.043.066Z" transform="translate(-490.806 -607.177)" fill="url(#linear-gradient)"/>
  <path id="Path_6560" data-name="Path 6560" d="M712.767,609.894c.252.09.732.289.8-.274.016-.133.275-.234.352.031.028.1.076.276.133.215.276-.3.8.041,1.038-.33.087-.135.292-.23.091-.385-.16-.124-.275,0-.36.108-.112.149-.224.264-.408.064a1.454,1.454,0,0,0-.97,0c-.375.194-.477-.051-.512-.32-.093.067-.224.118-.271.2C712.527,609.453,712.423,609.771,712.767,609.894Z" transform="translate(-628.916 -607.943)" fill="url(#linear-gradient)"/>
  <path id="Path_6561" data-name="Path 6561" d="M708.725,610.835l.21-.7c-1.009-.336-1.28-.171-1.183.734A2.9,2.9,0,0,1,708.725,610.835Z" transform="translate(-624.591 -608.625)" fill="url(#linear-gradient)"/>
  <path id="Path_6562" data-name="Path 6562" d="M716.831,612.995a1.19,1.19,0,0,0-.633.21C716.648,613.4,716.648,613.4,716.831,612.995Z" transform="translate(-631.457 -610.765)" fill="url(#linear-gradient)"/>
  <path id="Path_6563" data-name="Path 6563" d="M723.541,611.108c-.072.174-.441.245-.28.6C723.519,611.543,723.632,611.38,723.541,611.108Z" transform="translate(-637.196 -609.43)" fill="url(#linear-gradient)"/>
  <path id="Path_6564" data-name="Path 6564" d="M718.055,607.7v-.317l-.37.159A.4.4,0,0,0,718.055,607.7Z" transform="translate(-632.625 -606.794)" fill="url(#linear-gradient)"/>
  <path id="Path_6565" data-name="Path 6565" d="M725.929,612.384c.058-.142.03-.16-.047-.1a2,2,0,0,0-.164.161.765.765,0,0,0,.105.058A1.232,1.232,0,0,0,725.929,612.384Z" transform="translate(-639.234 -610.239)" fill="url(#linear-gradient)"/>
  <path id="Path_6566" data-name="Path 6566" d="M718.99,608.511a.427.427,0,0,0,.15.054c.008,0,.029-.037.044-.057-.051-.018-.1-.039-.155-.054C718.93,608.427,718.911,608.453,718.99,608.511Z" transform="translate(-633.634 -607.545)" fill="url(#linear-gradient)"/>
  <path id="Path_6567" data-name="Path 6567" d="M713.886,608.81h.185C714.01,608.7,713.948,608.7,713.886,608.81Z" transform="translate(-629.443 -607.747)" fill="url(#linear-gradient)"/>
  <path id="Path_6568" data-name="Path 6568" d="M714.6,609.043l-.077-.036.043.066Z" transform="translate(-629.942 -607.943)" fill="url(#linear-gradient)"/>
  <path id="Path_6569" data-name="Path 6569" d="M718.993,609.863l-.043.066.077-.036Z" transform="translate(-633.603 -608.549)" fill="url(#linear-gradient)"/>
  <path id="Path_6570" data-name="Path 6570" d="M540.435,607.282l.186.159C540.573,607.376,540.713,607.15,540.435,607.282Z" transform="translate(-486.115 -606.694)" fill="url(#linear-gradient)"/>
  <path id="Path_6571" data-name="Path 6571" d="M569.553,609.548h0Z" transform="translate(-510.146 -608.326)" fill="url(#linear-gradient)"/>
  <path id="Path_6572" data-name="Path 6572" d="M613.489,608.878c0-.008-.042-.014-.065-.021a.184.184,0,0,0-.024.067c0,.008.042.014.065.021A.183.183,0,0,0,613.489,608.878Z" transform="translate(-546.39 -607.837)" fill="url(#linear-gradient)"/>
  <path id="Path_6573" data-name="Path 6573" d="M334.7,732.152h-1.4A2.373,2.373,0,0,0,334.7,732.152Z" transform="translate(-302.386 -697.564)" fill="url(#linear-gradient)"/>
  <path id="Path_6574" data-name="Path 6574" d="M430.766,738.351c.2,0,.2-.2.222-.344h-.37C430.66,738.128,430.517,738.346,430.766,738.351Z" transform="translate(-395.384 -701.706)" fill="url(#linear-gradient)"/>
  <path id="Path_6575" data-name="Path 6575" d="M341.08,732.16c-.046-.128-.173-.086-.274-.08-.042,0-.079.049-.113.071.056.082.152.068.238.062A.413.413,0,0,0,341.08,732.16Z" transform="translate(-310.982 -697.505)" fill="url(#linear-gradient)"/>
  <path id="Path_6576" data-name="Path 6576" d="M430.36,737.811l.077.036-.043-.066Z" transform="translate(-395.145 -701.546)" fill="url(#linear-gradient)"/>
  <path id="Path_6577" data-name="Path 6577" d="M701.3,740.517l.077.036-.043-.066Z" transform="translate(-619.017 -703.461)" fill="url(#linear-gradient)"/>
  <path id="Path_6578" data-name="Path 6578" d="M528.325,736.334c-.252-.09-.732-.289-.8.274-.016.133-.275.234-.352-.031-.028-.1-.076-.276-.133-.215-.276.3-.8-.041-1.038.33-.087.135-.292.23-.091.385.16.124.275.005.36-.108.112-.149.224-.264.408-.064a1.453,1.453,0,0,0,.969,0c.375-.194.477.051.512.319.092-.067.224-.118.271-.2C528.565,736.775,528.669,736.456,528.325,736.334Z" transform="translate(-474.406 -700.445)" fill="url(#linear-gradient)"/>
  <path id="Path_6579" data-name="Path 6579" d="M536.064,735.64l-.21.7c1.009.336,1.28.171,1.183-.734A2.906,2.906,0,0,1,536.064,735.64Z" transform="translate(-482.478 -700.01)" fill="url(#linear-gradient)"/>
  <path id="Path_6580" data-name="Path 6580" d="M523.3,736.069c.072-.174.441-.245.28-.6C523.326,735.634,523.213,735.8,523.3,736.069Z" transform="translate(-471.956 -699.908)" fill="url(#linear-gradient)"/>
  <path id="Path_6581" data-name="Path 6581" d="M528.744,740.172v.317l.37-.159A.4.4,0,0,0,528.744,740.172Z" transform="translate(-476.48 -703.238)" fill="url(#linear-gradient)"/>
  <path id="Path_6582" data-name="Path 6582" d="M521.18,735.646c-.058.142-.03.16.047.1a2.027,2.027,0,0,0,.165-.161.773.773,0,0,0-.106-.058A1.319,1.319,0,0,0,521.18,735.646Z" transform="translate(-470.186 -699.952)" fill="url(#linear-gradient)"/>
  <path id="Path_6583" data-name="Path 6583" d="M528.117,739.831a.435.435,0,0,0-.15-.054c-.008,0-.029.037-.044.057.051.018.1.04.155.054C528.177,739.915,528.2,739.889,528.117,739.831Z" transform="translate(-475.783 -702.958)" fill="url(#linear-gradient)"/>
  <path id="Path_6584" data-name="Path 6584" d="M533.361,739.631h-.185Q533.269,739.793,533.361,739.631Z" transform="translate(-480.116 -702.855)" fill="url(#linear-gradient)"/>
  <path id="Path_6585" data-name="Path 6585" d="M532.911,739.435l.077.036-.043-.066Z" transform="translate(-479.882 -702.695)" fill="url(#linear-gradient)"/>
  <path id="Path_6586" data-name="Path 6586" d="M528.515,738.614l.043-.066-.077.036Z" transform="translate(-476.22 -702.089)" fill="url(#linear-gradient)"/>
  <path id="Path_6587" data-name="Path 6587" d="M706.811,740.873l-.186-.159C706.673,740.779,706.533,741,706.811,740.873Z" transform="translate(-623.443 -703.621)" fill="url(#linear-gradient)"/>
  <path id="Path_6588" data-name="Path 6588" d="M667.01,736.112c-.068-.061-.217.125-.159.208.223.324.317.763.886.813-.033-.361-.176-.754.37-.95C667.761,736.017,667.367,736.433,667.01,736.112Z" transform="translate(-590.792 -700.357)" fill="url(#linear-gradient)"/>
  <path id="Path_6589" data-name="Path 6589" d="M633.195,737.241c.455.178.356-.118.37-.317A.6.6,0,0,0,633.195,737.241Z" transform="translate(-562.801 -700.94)" fill="url(#linear-gradient)"/>
  <path id="Path_6590" data-name="Path 6590" d="M633.99,739.546c0,.008.042.014.065.021a.185.185,0,0,0,.024-.067c0-.008-.042-.014-.065-.021A.186.186,0,0,0,633.99,739.546Z" transform="translate(-563.404 -702.747)" fill="url(#linear-gradient)"/>
  <path id="Path_6591" data-name="Path 6591" d="M624.721,613.061a1.72,1.72,0,0,0-.3.012c-.068.017.1.024.219.027q1.084.028,2.177.053c.125,0,.229,0,.231-.02-.064-.005-.137-.016-.235-.018Q625.774,613.086,624.721,613.061Z" transform="translate(-555.97 -610.811)" fill="url(#linear-gradient)"/>
  <path id="Path_6592" data-name="Path 6592" d="M407.8,611.65c-.37.006-.736.014-1.1.023a.816.816,0,0,0-.272.026,1.544,1.544,0,0,0,.335.016h.355c.281,0,.574.006.831-.01.155-.01.375-.02.334-.038A2.689,2.689,0,0,0,407.8,611.65Z" transform="translate(-375.52 -609.812)" fill="url(#linear-gradient)"/>
  <path id="Path_6593" data-name="Path 6593" d="M493.707,610.531a1.263,1.263,0,0,0,.2-.014c.025-.013-.1-.019-.219-.019h-2.33C492.109,610.541,492.909,610.536,493.707,610.531Z" transform="translate(-445.858 -608.997)" fill="url(#linear-gradient)"/>
  <path id="Path_6594" data-name="Path 6594" d="M484.822,610.5c.1,0,.166-.007.159-.018a1.525,1.525,0,0,0-.292-.01.673.673,0,0,0-.133.013A1.111,1.111,0,0,0,484.822,610.5Z" transform="translate(-439.968 -608.976)" fill="url(#linear-gradient)"/>
  <path id="Path_6595" data-name="Path 6595" d="M522.513,611.537a.592.592,0,0,0-.119.011c-.018.008.016.017.132.016.049,0,.092-.006.125-.009C522.647,611.544,522.628,611.536,522.513,611.537Z" transform="translate(-471.213 -609.733)" fill="url(#linear-gradient)"/>
  <path id="Path_6596" data-name="Path 6596" d="M1005.473,628.5a1.741,1.741,0,0,0-.3.012c-.069.018.1.024.219.027l2.177.053c.125,0,.229,0,.231-.02-.064-.005-.137-.016-.235-.018Z" transform="translate(-879.831 -620.893)" fill="url(#linear-gradient)"/>
  <path id="Path_6597" data-name="Path 6597" d="M1067.913,632.222a2.844,2.844,0,0,0,.594.028c.167,0,.4.006.363-.017a3.719,3.719,0,0,0-.621-.033A.848.848,0,0,0,1067.913,632.222Z" transform="translate(-924.223 -623.634)" fill="url(#linear-gradient)"/>
  <path id="Path_6598" data-name="Path 6598" d="M1048.435,696.069c-.067.021.147.021.3.026.454.013.912.021,1.389.012.211,0,.424,0,.632,0a2.2,2.2,0,0,0,.5-.015c.031-.025-.233-.028-.452-.029-.661-.005-1.331,0-1.981-.018A1.856,1.856,0,0,0,1048.435,696.069Z" transform="translate(-910.436 -671.145)" fill="url(#linear-gradient)"/>
  <path id="Path_6599" data-name="Path 6599" d="M1041.214,687.217c-.055.023.176.019.316.025.682.029,1.414,0,1.917.013a2.767,2.767,0,0,0,.588-.011c.029-.022-.187-.027-.386-.029l-2.087-.015A1.852,1.852,0,0,0,1041.214,687.217Z" transform="translate(-905.33 -664.728)" fill="url(#linear-gradient)"/>
  <path id="Path_6600" data-name="Path 6600" d="M1062.041,691.314a2.884,2.884,0,0,0,.654.035,1.372,1.372,0,0,0,.363-.017,3.269,3.269,0,0,0-.648-.039A1.227,1.227,0,0,0,1062.041,691.314Z" transform="translate(-920.07 -667.696)" fill="url(#linear-gradient)"/>
  <path id="Path_6601" data-name="Path 6601" d="M1054.971,682.457a2.855,2.855,0,0,0,.594.028c.167,0,.4.006.363-.017a3.674,3.674,0,0,0-.62-.034A.847.847,0,0,0,1054.971,682.457Z" transform="translate(-915.067 -661.269)" fill="url(#linear-gradient)"/>
  <path id="Path_6602" data-name="Path 6602" d="M1051.46,695.869a1.262,1.262,0,0,0-.187.014c-.042.013.058.018.189.018a.459.459,0,0,0,.164-.017A.424.424,0,0,0,1051.46,695.869Z" transform="translate(-912.445 -671.014)" fill="url(#linear-gradient)"/>
  <path id="Path_6603" data-name="Path 6603" d="M1047.18,687.039a1.273,1.273,0,0,0-.133-.014c-.065,0-.143.008-.154.013a.3.3,0,0,0,.1.013C1047.09,687.053,1047.19,687.05,1047.18,687.039Z" transform="translate(-909.353 -664.599)" fill="url(#linear-gradient)"/>
  <path id="Path_6604" data-name="Path 6604" d="M1044.5,687.023a.533.533,0,0,0-.12-.013.352.352,0,0,0-.171.017c.038,0,.078.01.13.011C1044.464,687.04,1044.51,687.031,1044.5,687.023Z" transform="translate(-907.457 -664.588)" fill="url(#linear-gradient)"/>
</svg>
