<svg xmlns="http://www.w3.org/2000/svg" xmlns:xlink="http://www.w3.org/1999/xlink" width="50.291" height="50.291" viewBox="0 0 50.291 50.291">
  <defs>
    <clipPath id="clip-path">
      <rect id="Rectangle_2516" data-name="Rectangle 2516" width="50.291" height="50.291" transform="translate(1122.866 1803.866)" fill="#07f"/>
    </clipPath>
    <linearGradient id="linear-gradient" x1="0.5" x2="0.5" y2="1" gradientUnits="objectBoundingBox">
      <stop offset="0" stop-color="#141c60"/>
      <stop offset="1" stop-color="#4549a4"/>
    </linearGradient>
  </defs>
  <g id="op1" transform="translate(-1122.866 -1803.866)" clip-path="url(#clip-path)">
    <g id="shopping-cart" transform="translate(1122.866 1803.866)">
      <path id="Path_8986" data-name="Path 8986" d="M26.406,0H14.473V25.572L17.6,34.948h8.808Z" fill="#ea9d2d"/>
      <path id="Path_8987" data-name="Path 8987" d="M29.816,6.819H34.93v4.316H29.816Z" fill="#fbb540"/>
      <path id="Path_8988" data-name="Path 8988" d="M18.735,0H22.2V3.463H18.735Z" fill="#d9d9d9"/>
      <path id="Path_8989" data-name="Path 8989" d="M20.439,6.819V34.948H42.492l1.761-6.056V6.819Z" fill="#fbb540"/>
      <path id="Path_8990" data-name="Path 8990" d="M17.882,6.819h2.557V34.1H17.882Z" fill="#d68f29"/>
      <path id="Path_8991" data-name="Path 8991" d="M29.816,6.819H34.93v4.316H29.816Z" fill="#f0f0f0"/>
      <g id="Group_4974" data-name="Group 4974">
        <path id="Path_8992" data-name="Path 8992" d="M19.587,50.291A3.41,3.41,0,1,1,23,46.882,3.41,3.41,0,0,1,19.587,50.291Zm0-5.114a1.7,1.7,0,1,0,1.7,1.7A1.7,1.7,0,0,0,19.587,45.177Z" fill="url(#linear-gradient)"/>
        <path id="Path_8993" data-name="Path 8993" d="M38.34,50.291a3.41,3.41,0,1,1,3.41-3.41A3.41,3.41,0,0,1,38.34,50.291Zm0-5.114a1.7,1.7,0,1,0,1.7,1.7A1.7,1.7,0,0,0,38.34,45.177Z" fill="url(#linear-gradient)"/>
      </g>
      <path id="SVGCleanerId_0" d="M24.627,35.8H42.6a.71.71,0,0,0,.389-.107.779.779,0,0,0,.245-.193,1.055,1.055,0,0,0,.159-.265c.007-.019.019-.033.025-.052l5.9-20.457a.8.8,0,0,0,.01-.118.79.79,0,0,0,.026-.118c0-.018-.009-.032-.01-.05a.847.847,0,0,0-.035-.17.564.564,0,0,0-.139-.282.8.8,0,0,0-.1-.124.768.768,0,0,0-.13-.085.838.838,0,0,0-.155-.085.45.45,0,0,0-.045-.023.71.71,0,0,0-.12-.01.741.741,0,0,0-.115-.022H11.4L8.451,4.012a.852.852,0,0,0-.815-.6H1.793a.852.852,0,1,0,0,1.7H7L16.126,34.9l-2.484,5.678a.852.852,0,0,0,.781,1.193H42.6a.852.852,0,1,0,0-1.7H15.722L17.587,35.8Zm-8.532-6.819h5.929L23.5,34.1H17.661Zm-2.088-6.819h6.052l1.474,5.114H15.6c-.011,0-.02.006-.031.006Zm33.357-6.819L45.89,20.457h-5.9l1.474-5.114ZM43.925,27.277h-5.9L39.5,22.162h5.9ZM41.96,34.1h-5.9l1.474-5.114h5.9Zm-11.292,0V28.981h5.095L34.288,34.1Zm-5.4,0L23.8,28.981h5.165V34.1Zm5.4-6.819V22.162h7.06l-1.474,5.114Zm7.55-6.819h-7.55V15.343h9.025Zm-9.255,0H21.341l-1.477-5.114h9.1Zm0,1.7v5.114H23.307l-1.474-5.114ZM18.093,15.343l1.475,5.114H13.485l-1.566-5.114Z" fill="#3b869e"/>
      <g id="Group_4975" data-name="Group 4975">
        <path id="SVGCleanerId_0_1_" d="M24.627,35.8H42.6a.71.71,0,0,0,.389-.107.779.779,0,0,0,.245-.193,1.055,1.055,0,0,0,.159-.265c.007-.019.019-.033.025-.052l5.9-20.457a.8.8,0,0,0,.01-.118.79.79,0,0,0,.026-.118c0-.018-.009-.032-.01-.05a.847.847,0,0,0-.035-.17.564.564,0,0,0-.139-.282.8.8,0,0,0-.1-.124.768.768,0,0,0-.13-.085.838.838,0,0,0-.155-.085.45.45,0,0,0-.045-.023.71.71,0,0,0-.12-.01.741.741,0,0,0-.115-.022H11.4L8.451,4.012a.852.852,0,0,0-.815-.6H1.793a.852.852,0,1,0,0,1.7H7L16.126,34.9l-2.484,5.678a.852.852,0,0,0,.781,1.193H42.6a.852.852,0,1,0,0-1.7H15.722L17.587,35.8Zm-8.532-6.819h5.929L23.5,34.1H17.661Zm-2.088-6.819h6.052l1.474,5.114H15.6c-.011,0-.02.006-.031.006Zm33.357-6.819L45.89,20.457h-5.9l1.474-5.114ZM43.925,27.277h-5.9L39.5,22.162h5.9ZM41.96,34.1h-5.9l1.474-5.114h5.9Zm-11.292,0V28.981h5.095L34.288,34.1Zm-5.4,0L23.8,28.981h5.165V34.1Zm5.4-6.819V22.162h7.06l-1.474,5.114Zm7.55-6.819h-7.55V15.343h9.025Zm-9.255,0H21.341l-1.477-5.114h9.1Zm0,1.7v5.114H23.307l-1.474-5.114ZM18.093,15.343l1.475,5.114H13.485l-1.566-5.114Z" fill="#5f27cd"/>
      </g>
    </g>
  </g>
</svg>
