<svg xmlns="http://www.w3.org/2000/svg" xmlns:xlink="http://www.w3.org/1999/xlink" width="50.291" height="50.291" viewBox="0 0 50.291 50.291">
  <defs>
    <clipPath id="clip-path">
      <rect id="Rectangle_2516" data-name="Rectangle 2516" width="50.291" height="50.291" transform="translate(1122.866 1803.866)" fill="#07f"/>
    </clipPath>
  </defs>
  <g id="op3" transform="translate(-1122.866 -1803.866)" clip-path="url(#clip-path)">
    <g id="delivery-truck_1_" data-name="delivery-truck (1)" transform="translate(1122.866 1803.866)">
      <path id="Path_8958" data-name="Path 8958" d="M32.949,37.718l1.914-13.873h5.891l-.868,6.937h8.671l-.939,6.937Z" fill="#fbb540"/>
      <path id="Path_8959" data-name="Path 8959" d="M19.943,12.573H36.418L32.949,37.718H8.671l2.75-19.943" fill="#dbdbdb"/>
      <g id="Group_4961" data-name="Group 4961">
        <path id="Path_8960" data-name="Path 8960" d="M16.475,46.389a3.468,3.468,0,1,1,3.468-3.468A3.468,3.468,0,0,1,16.475,46.389Zm0-5.2a1.734,1.734,0,1,0,1.734,1.734A1.734,1.734,0,0,0,16.475,41.187Z" fill="#62666a"/>
        <path id="Path_8961" data-name="Path 8961" d="M39.886,46.389a3.468,3.468,0,1,1,3.468-3.468A3.468,3.468,0,0,1,39.886,46.389Zm0-5.2a1.734,1.734,0,1,0,1.734,1.734A1.734,1.734,0,0,0,39.886,41.187Z" fill="#62666a"/>
      </g>
      <path id="Path_8962" data-name="Path 8962" d="M48.557,30.782H39.886l.867-6.937h2.666a5.3,5.3,0,0,1,5.26,5.959Z" fill="#d9d9d9"/>
      <path id="Path_8963" data-name="Path 8963" d="M43.419,23.845h-.932l-.867,6.937h6.937l.122-.978a5.3,5.3,0,0,0-5.26-5.959Z" fill="#f0f0f0"/>
      <path id="Path_8964" data-name="Path 8964" d="M40.753,23.845h-5.89l.479-3.468h4.544Z" fill="#ea9d2d"/>
      <g id="Group_4962" data-name="Group 4962">
        <circle id="Ellipse_727" data-name="Ellipse 727" cx="6.937" cy="6.937" r="6.937" transform="translate(5.853 3.902)" fill="#fbb540"/>
        <path id="Path_8965" data-name="Path 8965" d="M3.468,21.244h5.2v1.734h-5.2Z" fill="#fbb540"/>
        <path id="Path_8966" data-name="Path 8966" d="M0,31.649H5.2v1.734H0Z" fill="#fbb540"/>
        <path id="Path_8967" data-name="Path 8967" d="M1.734,26.446h5.2V28.18h-5.2Z" fill="#fbb540"/>
      </g>
      <g id="Group_4963" data-name="Group 4963">
        <path id="Path_8968" data-name="Path 8968" d="M15.126,13.294l-2.6-1.734a.867.867,0,0,1-.386-.721V6.5h1.734v3.872l2.215,1.474Z" fill="#d68f29"/>
        <path id="Path_8969" data-name="Path 8969" d="M38.152,33.383h6.937v1.734H38.152Z" fill="#d68f29"/>
      </g>
      <g id="Group_4964" data-name="Group 4964">
        <path id="Path_8970" data-name="Path 8970" d="M21.677,33.383h6.937v1.734H21.677Z" fill="#b9b9b9"/>
        <path id="Path_8971" data-name="Path 8971" d="M18.209,33.383h1.734v1.734H18.209Z" fill="#b9b9b9"/>
        <path id="Path_8972" data-name="Path 8972" d="M14.74,33.383h1.734v1.734H14.74Z" fill="#b9b9b9"/>
        <path id="Path_8973" data-name="Path 8973" d="M42.487,42.921h7.8v-5.2H6.07v5.2H42.487Z" fill="#b9b9b9"/>
      </g>
      <path id="Path_8974" data-name="Path 8974" d="M35.342,20.377l-.479,3.468H36.6l.479-3.468Z" fill="#b47923"/>
      <path id="Path_8975" data-name="Path 8975" d="M34.863,23.845,32.949,37.718h1.734L36.6,23.845Z" fill="#d68f29"/>
    </g>
  </g>
</svg>
