<svg xmlns="http://www.w3.org/2000/svg" xmlns:xlink="http://www.w3.org/1999/xlink" width="50.291" height="50.291" viewBox="0 0 50.291 50.291">
  <defs>
    <clipPath id="clip-path">
      <rect id="Rectangle_2516" data-name="Rectangle 2516" width="50.291" height="50.291" fill="#07f"/>
    </clipPath>
  </defs>
  <g id="op6" clip-path="url(#clip-path)">
    <g id="gift_2_" data-name="gift (2)" transform="translate(0 0.008)">
      <path id="Path_8820" data-name="Path 8820" d="M41.33,25.9V42.573H6.312V25.9" transform="translate(1.209 4.951)" fill="#4549a4"/>
      <path id="Path_8821" data-name="Path 8821" d="M6.312,25.9H41.33v4.169H6.312V25.9Z" transform="translate(1.209 4.951)" fill="#141c60"/>
      <path id="Path_8822" data-name="Path 8822" d="M3.513,10.5H45.2V28.845H3.513V10.5Z" transform="translate(0.673 2.003)" fill="#341f97"/>
      <g id="Group_4903" data-name="Group 4903" transform="translate(11.69 1.668)">
        <path id="Path_8823" data-name="Path 8823" d="M16.109,28.845V10.5H27.781V45.52H16.109V28.845Z" transform="translate(-8.605 0.335)" fill="#ffc200"/>
        <path id="Path_8824" data-name="Path 8824" d="M15.135,12.245A5.329,5.329,0,0,1,9.811,6.921V6.729A5.323,5.323,0,0,1,20.077,4.753l3,7.492Z" transform="translate(-9.811 -1.407)" fill="#ffc200"/>
      </g>
      <path id="Path_8825" data-name="Path 8825" d="M17.613,8.374H14.6A1.988,1.988,0,0,1,12.61,6.385h0V6.194A1.988,1.988,0,0,1,14.6,4.205h0a1.989,1.989,0,0,1,1.847,1.251Z" transform="translate(2.415 0.797)" fill="#f0f0f0"/>
      <path id="Path_8826" data-name="Path 8826" d="M29.011,12.245a5.329,5.329,0,0,0,5.323-5.323V6.729A5.323,5.323,0,0,0,24.069,4.753l-3,7.492Z" transform="translate(4.035 0.262)" fill="#ffc200"/>
      <path id="Path_8827" data-name="Path 8827" d="M25.206,8.374H28.22a1.988,1.988,0,0,0,1.988-1.988V6.194a1.989,1.989,0,0,0-3.835-.738Z" transform="translate(4.827 0.797)" fill="#f0f0f0"/>
      <g id="Group_4904" data-name="Group 4904" transform="translate(0 0)">
        <path id="Path_8828" data-name="Path 8828" d="M38.5.007h1.667V1.674H38.5Z" transform="translate(7.372 -0.007)" fill="#141c60"/>
        <path id="Path_8829" data-name="Path 8829" d="M36.4,2.106h1.667V3.773H36.4Z" transform="translate(6.97 0.395)" fill="#141c60"/>
        <path id="Path_8830" data-name="Path 8830" d="M38.5,4.205h1.667V5.873H38.5Z" transform="translate(7.372 0.797)" fill="#141c60"/>
        <path id="Path_8831" data-name="Path 8831" d="M40.6,2.106h1.668V3.773H40.6Z" transform="translate(7.774 0.395)" fill="#141c60"/>
        <path id="Path_8832" data-name="Path 8832" d="M2.814.007H4.481V1.674H2.814Z" transform="translate(0.539 -0.007)" fill="#141c60"/>
        <path id="Path_8833" data-name="Path 8833" d="M.714,2.106H2.382V3.773H.714Z" transform="translate(0.137 0.395)" fill="#141c60"/>
        <path id="Path_8834" data-name="Path 8834" d="M2.814,4.205H4.481V5.873H2.814Z" transform="translate(0.539 0.797)" fill="#141c60"/>
        <path id="Path_8835" data-name="Path 8835" d="M4.913,2.106H6.58V3.773H4.913Z" transform="translate(0.941 0.395)" fill="#141c60"/>
        <path id="Path_8836" data-name="Path 8836" d="M39.2,37.793h1.667v1.668H39.2Z" transform="translate(7.506 7.229)" fill="#141c60"/>
        <path id="Path_8837" data-name="Path 8837" d="M37.8,39.193h1.668v1.668H37.8Z" transform="translate(7.238 7.497)" fill="#141c60"/>
        <path id="Path_8838" data-name="Path 8838" d="M39.2,40.593h1.667V42.26H39.2Z" transform="translate(7.506 7.765)" fill="#141c60"/>
        <path id="Path_8839" data-name="Path 8839" d="M40.6,39.193h1.668v1.668H40.6Z" transform="translate(7.774 7.497)" fill="#141c60"/>
        <path id="Path_8840" data-name="Path 8840" d="M1.369,37.793l1.667-.035.035,1.667L1.4,39.46Z" transform="translate(0.262 7.222)" fill="#141c60"/>
        <path id="Path_8841" data-name="Path 8841" d="M0,39.221l1.667-.035L1.7,40.853l-1.667.035Z" transform="translate(0 7.496)" fill="#141c60"/>
        <path id="Path_8842" data-name="Path 8842" d="M1.429,40.6,3.1,40.565l.035,1.667-1.668.035Z" transform="translate(0.274 7.76)" fill="#141c60"/>
        <path id="Path_8843" data-name="Path 8843" d="M2.814,39.193H4.481v1.668H2.814Z" transform="translate(0.539 7.497)" fill="#141c60"/>
      </g>
      <g id="Group_4905" data-name="Group 4905" transform="translate(12.508 10.005)">
        <path id="Path_8844" data-name="Path 8844" d="M16.109,25.9H27.781v4.169H16.109V25.9Z" transform="translate(-9.423 -5.054)" fill="#f5bd0a"/>
        <path id="Path_8845" data-name="Path 8845" d="M33.517,8.4H22.072l-1,2.5h7.94a5.318,5.318,0,0,0,4.506-2.5Z" transform="translate(-8.473 -8.404)" fill="#f5bd0a"/>
        <path id="Path_8846" data-name="Path 8846" d="M10.5,8.4A5.318,5.318,0,0,0,15,10.9h7.94l-1-2.5Z" transform="translate(-10.498 -8.404)" fill="#f5bd0a"/>
      </g>
    </g>
  </g>
</svg>
