<svg xmlns="http://www.w3.org/2000/svg" xmlns:xlink="http://www.w3.org/1999/xlink" width="50.291" height="50.291" viewBox="0 0 50.291 50.291">
  <defs>
    <clipPath id="clip-path">
      <rect id="Rectangle_2516" data-name="Rectangle 2516" width="50.291" height="50.291" transform="translate(1122.866 1803.866)" fill="#07f"/>
    </clipPath>
  </defs>
  <g id="op7" transform="translate(-1122.866 -1803.866)" clip-path="url(#clip-path)">
    <g id="paint-can_4_" data-name="paint-can (4)" transform="translate(1122.866 1803.866)">
      <path id="Path_8994" data-name="Path 8994" d="M31.4,2.038h-12.5c-6.932,0-12.571,5.169-12.571,11.523V19.2a3.379,3.379,0,0,0,3.489,3.247h2.364a.77.77,0,0,0,0-1.54H9.811A1.842,1.842,0,0,1,7.862,19.2V13.561c0-5.5,4.948-9.983,11.031-9.983H31.4c6.083,0,11.031,4.478,11.031,9.983V19.2A1.842,1.842,0,0,1,40.48,20.9H37.8a.77.77,0,0,0,0,1.54h2.68A3.378,3.378,0,0,0,43.969,19.2V13.561C43.969,7.207,38.33,2.038,31.4,2.038Z" fill="#787680"/>
      <path id="Path_8995" data-name="Path 8995" d="M38.637,15.2v30.33a4.761,4.761,0,0,1-4.759,4.759H16.412a4.772,4.772,0,0,1-4.759-4.759V15.2a2.161,2.161,0,0,1,.018-.283,2.247,2.247,0,0,1,2.23-1.965H36.389a2.247,2.247,0,0,1,2.23,1.966A2.144,2.144,0,0,1,38.637,15.2Z" fill="#d8d7da"/>
      <path id="Path_8996" data-name="Path 8996" d="M38.637,15.2v30.33a4.745,4.745,0,0,1-.115,1.038,4.755,4.755,0,0,1-.486.025H20.57a4.772,4.772,0,0,1-4.759-4.759V12.954H36.389a2.247,2.247,0,0,1,2.23,1.966A2.127,2.127,0,0,1,38.637,15.2Z" fill="#e0e0e2"/>
      <path id="Path_8997" data-name="Path 8997" d="M36.389,12.954H13.9A2.249,2.249,0,0,0,11.654,15.2v3.19H14.93a2.092,2.092,0,0,1,2.092,2.092v5.731a2.479,2.479,0,0,0,2.257,2.49A2.445,2.445,0,0,0,21.9,26.271l0,7.13a2.441,2.441,0,0,0,4.881,0V20.484a2.092,2.092,0,0,1,2.092-2.092h.694a2.092,2.092,0,0,1,2.092,2.092v5.731a2.479,2.479,0,0,0,2.257,2.49,2.445,2.445,0,0,0,2.625-2.434V20.484a2.092,2.092,0,0,1,2.092-2.092h0V15.2A2.249,2.249,0,0,0,36.389,12.954Z" fill="#fbb540"/>
      <path id="Path_8998" data-name="Path 8998" d="M31.745,1.232V4.3a1.236,1.236,0,0,1-1.232,1.232H19.778A1.236,1.236,0,0,1,18.546,4.3V1.232A1.236,1.236,0,0,1,19.778,0H30.513A1.236,1.236,0,0,1,31.745,1.232Z" fill="#c6c5ca"/>
      <path id="Path_8999" data-name="Path 8999" d="M31.745,1.232V2.653H23.269a1.236,1.236,0,0,1-1.232-1.232V0h8.477A1.236,1.236,0,0,1,31.745,1.232Z" fill="#d8d7da"/>
      <g id="Group_4976" data-name="Group 4976">
        <path id="Path_9000" data-name="Path 9000" d="M24.346,32.367a2.448,2.448,0,0,1-2.44-2.44l0-6.856c-.01-.021-.015,0-.015,0a2.447,2.447,0,0,1-2.609,2.16,2.479,2.479,0,0,1-2.257-2.49v3.473a2.478,2.478,0,0,0,2.257,2.49A2.446,2.446,0,0,0,21.9,26.271l0,7.129a2.44,2.44,0,0,0,4.881,0V29.926a2.445,2.445,0,0,1-2.44,2.44Z" fill="#e79000"/>
        <path id="Path_9001" data-name="Path 9001" d="M35.829,24.522a2.438,2.438,0,0,1-1.909.709,2.479,2.479,0,0,1-2.257-2.49v3.473a2.478,2.478,0,0,0,2.257,2.49,2.444,2.444,0,0,0,2.624-2.433V22.8A2.435,2.435,0,0,1,35.829,24.522Z" fill="#e79000"/>
      </g>
    </g>
  </g>
</svg>
