<svg xmlns="http://www.w3.org/2000/svg" xmlns:xlink="http://www.w3.org/1999/xlink" width="515" height="1043" viewBox="0 0 515 1043">
  <defs>
    <clipPath id="clip-path">
      <rect width="515" height="1043" fill="none"/>
    </clipPath>
    <clipPath id="clip-path-2">
      <rect id="Rectangle_6150" data-name="Rectangle 6150" width="508" height="955" transform="translate(673 1470.704)" fill="rgba(68,68,68,0.67)"/>
    </clipPath>
    <clipPath id="clip-path-3">
      <rect id="Rectangle_6155" data-name="Rectangle 6155" width="497" height="1022" transform="translate(673 1471)" fill="#fff"/>
    </clipPath>
  </defs>
  <g id="Repeat_Grid_1" data-name="Repeat Grid 1" clip-path="url(#clip-path)">
    <g id="Group_4941" data-name="Group 4941" transform="translate(-663 -1471)">
      <ellipse id="Ellipse_723" data-name="Ellipse 723" cx="225.5" cy="20.5" rx="225.5" ry="20.5" transform="translate(663 2473)" fill="#efeeee"/>
      <g id="Mask_Group_195" data-name="Mask Group 195" transform="translate(-3 4.296)" opacity="0.51" clip-path="url(#clip-path-2)">
        <g id="Group_21" data-name="Group 21" transform="translate(748.802 1471.505)">
          <path id="Path_48" data-name="Path 48" d="M519,83.993c-1.6,2.725-4.21,4.844-10.853,5.9s-.441,10.8,10.587,8.932C522.856,98.128,519,83.993,519,83.993Z" transform="translate(-237.539 35.894)" fill="rgba(68,68,68,0.67)" fill-rule="evenodd"/>
          <path id="Path_49" data-name="Path 49" d="M467.816,107.926c-21.2,20.427-71.217,130.491-71.217,156.682,0,47.844,41.126,121.028,41.126,121.028s1.223,3.587,3.846,4.195,11.158-34.422,14.067-34.976,3.609-1.371,3.459-6.474-21.185-72.237-21.185-72.237,3.216-4.406.385-8.334L463.807,224S487.357,154.315,467.816,107.926Z" transform="translate(-392.265 69.927)" fill="rgba(68,68,68,0.67)" fill-rule="evenodd"/>
          <path id="Path_50" data-name="Path 50" d="M488.256,120.249c.225-1.783,11.381-12.573,11.381-12.573A31.76,31.76,0,0,1,519.3,119.135c8.235,10.274,30.486,45.03,30.486,45.03L590.8,216.773s-5.127,25.635-22.958,25.635-42.787-15.561-67.429-29.18S488.256,120.249,488.256,120.249Z" transform="translate(-266.422 69.572)" fill="rgba(68,68,68,0.67)" fill-rule="evenodd"/>
          <path id="Path_51" data-name="Path 51" d="M435.516,217.2,422.987,234l-3.493,22.488c-15.266,42.073,4.251,124.523,8.15,168.487,7.344,82.77,16.809,189.665,18,220.149,2.89,73.656,10.71,126.3,10.247,131.266s3.846,13.326,10,13.885,12.573-2.918,20.069-4.931l.148-.039,0,0c2.979-.879,3.178-5.1,3.178-5.1l3.5-87.88h0c-.24-13.365-.22-50.717.254-66.237.349-11.219,3.694-148.961,5.74-233.855.932-38.515,9.325-76.26,9.325-76.26l-27.659-91.315Z" transform="translate(-367.885 225.315)" fill="rgba(68,68,68,0.67)" fill-rule="evenodd"/>
          <path id="Path_52" data-name="Path 52" d="M435.349,217.2,422.82,234l-3.493,22.488c-3.19,8.79-4.854,19.345-5.466,30.939,21.277,9.463,52.461,19.6,92.211,22.372l-25.794-85.141Z" transform="translate(-367.718 225.315)" fill="rgba(68,68,68,0.67)" fill-rule="evenodd"/>
          <path id="Path_53" data-name="Path 53" d="M543.939,217.376l3.245,12.146c21.362,16.164,21.934,75.136,22.6,102.676,2.73,113.336-10.446,240.954-6.883,446.864,0,0,1.066,7.029-6.014,8.906s-23.31.492-28.185-.693c-3.541-1.463-6.222-2.96-7.283-4-.76-.756-1.3-4.28-1.666-9.334-12.948-175.72-25.2-325.887-62.948-500-5.847-26.95-19.488-39.261-19.488-39.261Z" transform="translate(-334.363 225.567)" fill="rgba(68,68,68,0.67)" fill-rule="evenodd"/>
          <path id="Path_54" data-name="Path 54" d="M543.939,217.376l3.245,12.146c15.089,11.42,19.8,44.192,21.508,72.159-39.661,8.964-74.739,10.083-104.6,7.123q-3.477-17.282-7.283-34.865c-5.847-26.95-19.488-39.261-19.488-39.261Z" transform="translate(-334.363 225.567)" fill="rgba(68,68,68,0.67)" fill-rule="evenodd"/>
          <path id="Path_55" data-name="Path 55" d="M540.952,102.608l57.017,12.275c-4.546,12.2-21.391,40.123.775,105.551,0,0-17.184,82.886-17.184,93.947,0,7.862,4.093,46.759,6.8,63.941,2.173,13.75,4.251,20.045-10.746,27.776-27.911,14.394-94.531,31.29-156.581,2.248-12.716-15.4,1.245-50.044,10.822-78.016.928-14.709-11.212-93.521-8.356-111.175l16.8-103.667,47.8-12.6Z" transform="translate(-364.754 62.365)" fill="rgba(68,68,68,0.67)" fill-rule="evenodd"/>
          <path id="Path_56" data-name="Path 56" d="M507.409,102.608l16.271,3.5-3.822,4.05c-21.546,22.835-63.447,28.107-80.324-3.316l15.024-3.962Z" transform="translate(-331.211 62.365)" fill="rgba(68,68,68,0.67)" fill-rule="evenodd"/>
          <path id="Path_57" data-name="Path 57" d="M498.588,85.441H445.737v41.85c11.647,21.885,40.658,12.684,52.851-.233Z" transform="translate(-322.39 37.953)" fill="rgba(68,68,68,0.67)" fill-rule="evenodd"/>
          <g id="Group_14" data-name="Group 14" transform="translate(85.325 83.663)">
            <path id="Path_58" data-name="Path 58" d="M442.968,69.048c-.371.051-.734.116-1.1.191l-.01,0h0a15.018,15.018,0,1,0,12.558,2.931c.412,4.432-.257,9.923-5.907,10.512l.1-8.659C448.653,70.523,445.373,68.935,442.968,69.048Z" transform="translate(-430.039 -69.028)" fill="rgba(68,68,68,0.67)" fill-rule="evenodd"/>
            <path id="Path_59" data-name="Path 59" d="M486.16,69.04c.373.046.739.107,1.1.179l.01,0v0a15.022,15.022,0,1,1-12.51,3.105c-.354,4.44.388,9.918,6.05,10.429l-.223-8.656C480.492,70.595,483.755,68.957,486.16,69.04Z" transform="translate(-374.264 -69.037)" fill="rgba(68,68,68,0.67)" fill-rule="evenodd"/>
          </g>
          <path id="Path_60" data-name="Path 60" d="M486.033,187.925c28.037,0,51.424-34.591,51.424-61.9V89.741a51.568,51.568,0,0,0-51.415-51.412h-.01a51.569,51.569,0,0,0-51.412,51.412v35.514C434.621,155.184,455.024,187.925,486.033,187.925Z" transform="translate(-338.197 -29.041)" fill="rgba(68,68,68,0.67)" fill-rule="evenodd"/>
          <g id="Group_15" data-name="Group 15" transform="translate(113.035 111.232)">
            <path id="Path_61" data-name="Path 61" d="M448.737,80.421a7.128,7.128,0,1,1-7.256,6.995A7.125,7.125,0,0,1,448.737,80.421Z" transform="translate(-441.479 -80.42)" fill="rgba(68,68,68,0.67)" fill-rule="evenodd"/>
            <path id="Path_62" data-name="Path 62" d="M471.6,80.89a7.127,7.127,0,1,1-7.259,6.992A7.127,7.127,0,0,1,471.6,80.89Z" transform="translate(-408.977 -79.753)" fill="rgba(68,68,68,0.67)" fill-rule="evenodd"/>
          </g>
          <path id="Path_63" data-name="Path 63" d="M463.643,67.2a2.153,2.153,0,1,0,1.78,3.921c.014-.007,6.51-3.078,12.711.819a2.162,2.162,0,0,0,2.3-3.66C472.248,63.132,463.667,67.192,463.643,67.2Z" transform="translate(-298.727 9.843)" fill="rgba(68,68,68,0.67)" fill-rule="evenodd"/>
          <path id="Path_64" data-name="Path 64" d="M442.555,67.952a2.154,2.154,0,1,0,2.1,3.764c.017-.007,6.242-3.6,12.737-.216a2.162,2.162,0,0,0,2-3.836C450.8,63.2,442.579,67.94,442.555,67.952Z" transform="translate(-328.487 9.949)" fill="rgba(68,68,68,0.67)" fill-rule="evenodd"/>
          <path id="Path_65" data-name="Path 65" d="M456.744,79.093c-.954,2.6-2.633,7.312-2.487,8.1.2,1.1,5.893,2.124,7.39.673,1-.969-.24-5.219-1.32-8.077C458.851,75.9,458.037,75.591,456.744,79.093Z" transform="translate(-310.288 25.46)" fill="rgba(68,68,68,0.67)" fill-rule="evenodd"/>
          <g id="Group_16" data-name="Group 16" transform="translate(137.039 121.597)">
            <path id="Path_66" data-name="Path 66" d="M451.39,86.687a10.8,10.8,0,1,0,21.6,0,1.993,1.993,0,0,0-1.988-1.988H453.378A1.991,1.991,0,0,0,451.39,86.687Z" transform="translate(-451.39 -84.699)" fill="rgba(68,68,68,0.67)" fill-rule="evenodd"/>
            <path id="Path_67" data-name="Path 67" d="M468.114,84.7H452.659v1.826a1.736,1.736,0,0,0,1.732,1.729h11.991a1.734,1.734,0,0,0,1.732-1.729Z" transform="translate(-449.585 -84.698)" fill="rgba(68,68,68,0.67)" fill-rule="evenodd"/>
            <path id="Path_68" data-name="Path 68" d="M452.617,90.566a10.806,10.806,0,0,0,15.661,0,10.806,10.806,0,0,0-15.661,0Z" transform="translate(-449.645 -81.133)" fill="rgba(68,68,68,0.67)" fill-rule="evenodd"/>
          </g>
          <path id="Path_69" data-name="Path 69" d="M593.943,279.055,609.1,392.3s.446,5.793-2.674,7.356-102.32,39.232-189.7,0c0,0-6.912-3.122-5.576-12.708s24.523-104.771,24.523-104.771l-6.021-99.867a31.208,31.208,0,0,1,0-9.7c.894-4.459,13.7-36.231,13.7-36.231s1.783-5.8,11.592-5.8H580.665s4.013-.78,6.242,4.459,18.165,63.309,18.165,63.309Z" transform="translate(-371.816 102.088)" fill="rgba(68,68,68,0.67)" fill-rule="evenodd"/>
          <path id="Path_70" data-name="Path 70" d="M437.685,104.366s1.715-.678,2.979-3.572,2.005-16.336,2.005-16.336,10.63-7.392,13.454-12.2-9.952-19.938-9.952-19.938c-6.484,2.994-14.065,18.606-13.692,24.891.543,9.225,1.068,19.4,1.068,19.4S438,97.524,437.685,104.366Z" transform="translate(-341.261 -9.149)" fill="rgba(68,68,68,0.67)" fill-rule="evenodd"/>
          <path id="Path_71" data-name="Path 71" d="M443.574,108.739a3.368,3.368,0,1,0-6.188-2.659c-.027.063-9.613,22-10.519,69.044a3.356,3.356,0,1,0,6.711.1C434.458,129.588,443.545,108.8,443.574,108.739Z" transform="translate(-349.223 64.403)" fill="rgba(68,68,68,0.67)" fill-rule="evenodd"/>
          <path id="Path_72" data-name="Path 72" d="M511.692,144.651H435.9a3.579,3.579,0,0,0-3.568,3.568v45.476a41.586,41.586,0,0,0,41.462,41.462h0a41.583,41.583,0,0,0,41.463-41.462V148.219A3.575,3.575,0,0,0,511.692,144.651Z" transform="translate(-341.452 122.151)" fill="rgba(68,68,68,0.67)" fill-rule="evenodd"/>
          <rect id="Rectangle_21" data-name="Rectangle 21" width="82.926" height="4.904" transform="translate(90.88 282.627)" fill="rgba(68,68,68,0.67)"/>
          <path id="Path_73" data-name="Path 73" d="M488.144,104.366s-1.715-.678-2.977-3.572-2.01-16.336-2.01-16.336-10.625-7.392-13.449-12.2,9.952-19.938,9.952-19.938c6.484,2.994,14.057,18.606,13.689,24.891-.547,9.225-1.073,19.4-1.073,19.4S487.831,97.524,488.144,104.366Z" transform="translate(-288.883 -9.149)" fill="rgba(68,68,68,0.67)" fill-rule="evenodd"/>
          <path id="Path_74" data-name="Path 74" d="M490.021,34.494s-23.653,4.679-34.187,9.829-20.011,32.3-23.758,44c0,0-.819,6.319.467,10.768,0,0,24.731-10.3,57.477-10.3s57.474,10.3,57.474,10.3c1.291-4.449.47-10.768.47-10.768-3.742-11.7-13.222-38.852-23.755-44S490.021,34.494,490.021,34.494Z" transform="translate(-342.18 -34.494)" fill="rgba(68,68,68,0.67)" fill-rule="evenodd"/>
          <path id="Path_75" data-name="Path 75" d="M548.6,75.64l2.57,6.455s.446,4.459-1.674,5.8c-.6.38-3.388-.981-7.695-3.117-42.46-21.091-60.274-20.292-102.57.6-3.611,1.783-5.934,2.858-6.484,2.514-2.117-1.337-1.671-5.8-1.671-5.8l2.562-6.455C462.21,41.1,520.038,41.1,548.6,75.64Z" transform="translate(-343.288 -12.825)" fill="rgba(68,68,68,0.67)" fill-rule="evenodd"/>
          <path id="Path_76" data-name="Path 76" d="M493.639,108.739a3.367,3.367,0,1,0-6.186-2.659c-.027.063-9.611,22-10.516,69.044a3.355,3.355,0,1,0,6.709.1C484.523,129.588,493.61,108.8,493.639,108.739Z" transform="translate(-278.023 64.403)" fill="rgba(68,68,68,0.67)" fill-rule="evenodd"/>
          <g id="Group_17" data-name="Group 17" transform="translate(113.79 88.852)">
            <path id="Path_77" data-name="Path 77" d="M462.632,79.99a1.686,1.686,0,1,0,3.371,0,5.415,5.415,0,0,1,1.589-3.846l0-.007a5.453,5.453,0,0,1,7.695,0l.007.007a5.407,5.407,0,0,1,1.591,3.846,1.682,1.682,0,1,0,3.364,0,8.789,8.789,0,0,0-2.575-6.22l0-.007a8.8,8.8,0,0,0-12.452-.007l0,.007A8.786,8.786,0,0,0,462.632,79.99Z" transform="translate(-412.155 -71.179)" fill="rgba(68,68,68,0.67)" fill-rule="evenodd"/>
            <path id="Path_78" data-name="Path 78" d="M441.791,79.99a1.686,1.686,0,0,0,3.372,0,5.425,5.425,0,0,1,1.589-3.846l0-.007a5.453,5.453,0,0,1,7.695,0l.007.007a5.407,5.407,0,0,1,1.591,3.846,1.682,1.682,0,1,0,3.364,0,8.789,8.789,0,0,0-2.574-6.22l0-.007a8.8,8.8,0,0,0-12.452-.007l0,.007A8.786,8.786,0,0,0,441.791,79.99Z" transform="translate(-441.791 -71.179)" fill="rgba(68,68,68,0.67)" fill-rule="evenodd"/>
          </g>
          <g id="Group_18" data-name="Group 18" transform="translate(244.387 130.149)">
            <path id="Rectangle_22" data-name="Rectangle 22" d="M2.761,0H108.3a2.759,2.759,0,0,1,2.759,2.759v155.43a2.76,2.76,0,0,1-2.76,2.76H2.762A2.762,2.762,0,0,1,0,158.187V2.761A2.761,2.761,0,0,1,2.761,0Z" transform="translate(0 0)" fill="rgba(68,68,68,0.67)"/>
            <rect id="Rectangle_23" data-name="Rectangle 23" width="94.08" height="142.674" rx="1.021" transform="translate(8.489 9.137)" fill="rgba(68,68,68,0.67)"/>
            <path id="Rectangle_24" data-name="Rectangle 24" d="M1.495,0H39.743a1.5,1.5,0,0,1,1.5,1.5V5.75a1.5,1.5,0,0,1-1.5,1.5H1.5A1.5,1.5,0,0,1,0,5.749V1.495A1.495,1.495,0,0,1,1.495,0Z" transform="translate(34.911 5.515)" fill="rgba(68,68,68,0.67)"/>
            <path id="Path_79" data-name="Path 79" d="M535.3,103.618a2.9,2.9,0,1,0-2.9-2.9A2.9,2.9,0,0,0,535.3,103.618Z" transform="translate(-443.544 -74.59)" fill="rgba(68,68,68,0.67)" fill-rule="evenodd"/>
            <path id="Path_80" data-name="Path 80" d="M567.8,98.42H503.935a1.455,1.455,0,0,0-1.451,1.451h0a1.453,1.453,0,0,0,1.451,1.448H567.8a1.453,1.453,0,0,0,1.451-1.448h0A1.455,1.455,0,0,0,567.8,98.42Z" transform="translate(-486.082 -73.74)" fill="rgba(68,68,68,0.67)" fill-rule="evenodd"/>
            <path id="Path_81" data-name="Path 81" d="M535.3,109.37a2.9,2.9,0,1,0-2.9-2.9A2.9,2.9,0,0,0,535.3,109.37Z" transform="translate(-443.544 -66.411)" fill="rgba(68,68,68,0.67)" fill-rule="evenodd"/>
            <path id="Path_82" data-name="Path 82" d="M567.8,104.173H503.935a1.453,1.453,0,0,0-1.451,1.448h0a1.453,1.453,0,0,0,1.451,1.448H567.8a1.453,1.453,0,0,0,1.451-1.448h0A1.453,1.453,0,0,0,567.8,104.173Z" transform="translate(-486.082 -65.559)" fill="rgba(68,68,68,0.67)" fill-rule="evenodd"/>
            <path id="Path_83" data-name="Path 83" d="M535.3,115.122a2.9,2.9,0,1,0-2.9-2.9A2.9,2.9,0,0,0,535.3,115.122Z" transform="translate(-443.544 -58.231)" fill="rgba(68,68,68,0.67)" fill-rule="evenodd"/>
            <path id="Path_84" data-name="Path 84" d="M567.8,109.924H503.935a1.453,1.453,0,0,0-1.451,1.451h0a1.453,1.453,0,0,0,1.451,1.448H567.8a1.453,1.453,0,0,0,1.451-1.448h0A1.453,1.453,0,0,0,567.8,109.924Z" transform="translate(-486.082 -57.381)" fill="rgba(68,68,68,0.67)" fill-rule="evenodd"/>
            <path id="Path_85" data-name="Path 85" d="M535.3,120.874a2.9,2.9,0,1,0-2.9-2.9A2.9,2.9,0,0,0,535.3,120.874Z" transform="translate(-443.544 -50.052)" fill="rgba(68,68,68,0.67)" fill-rule="evenodd"/>
            <path id="Path_86" data-name="Path 86" d="M567.8,115.676H503.935a1.453,1.453,0,0,0-1.451,1.451h0a1.453,1.453,0,0,0,1.451,1.448H567.8a1.453,1.453,0,0,0,1.451-1.448h0A1.453,1.453,0,0,0,567.8,115.676Z" transform="translate(-486.082 -49.201)" fill="rgba(68,68,68,0.67)" fill-rule="evenodd"/>
            <path id="Path_87" data-name="Path 87" d="M535.3,126.626a2.9,2.9,0,1,0-2.9-2.9A2.9,2.9,0,0,0,535.3,126.626Z" transform="translate(-443.544 -41.872)" fill="rgba(68,68,68,0.67)" fill-rule="evenodd"/>
            <path id="Path_88" data-name="Path 88" d="M567.8,121.428H503.935a1.453,1.453,0,0,0-1.451,1.451h0a1.455,1.455,0,0,0,1.451,1.451H567.8a1.455,1.455,0,0,0,1.451-1.451h0A1.453,1.453,0,0,0,567.8,121.428Z" transform="translate(-486.082 -41.022)" fill="rgba(68,68,68,0.67)" fill-rule="evenodd"/>
            <path id="Path_89" data-name="Path 89" d="M535.3,132.379a2.9,2.9,0,1,0-2.9-2.9A2.9,2.9,0,0,0,535.3,132.379Z" transform="translate(-443.544 -33.694)" fill="rgba(68,68,68,0.67)" fill-rule="evenodd"/>
            <path id="Path_90" data-name="Path 90" d="M567.8,127.18H503.935a1.455,1.455,0,0,0-1.451,1.451h0a1.454,1.454,0,0,0,1.451,1.448H567.8a1.454,1.454,0,0,0,1.451-1.448h0A1.455,1.455,0,0,0,567.8,127.18Z" transform="translate(-486.082 -32.843)" fill="rgba(68,68,68,0.67)" fill-rule="evenodd"/>
            <path id="Path_91" data-name="Path 91" d="M535.3,138.131a2.9,2.9,0,1,0-2.9-2.9A2.9,2.9,0,0,0,535.3,138.131Z" transform="translate(-443.544 -25.515)" fill="rgba(68,68,68,0.67)" fill-rule="evenodd"/>
            <path id="Path_92" data-name="Path 92" d="M567.8,132.932H503.935a1.453,1.453,0,0,0-1.451,1.448h0a1.453,1.453,0,0,0,1.451,1.451H567.8a1.453,1.453,0,0,0,1.451-1.451h0A1.453,1.453,0,0,0,567.8,132.932Z" transform="translate(-486.082 -24.663)" fill="rgba(68,68,68,0.67)" fill-rule="evenodd"/>
            <path id="Path_93" data-name="Path 93" d="M535.3,143.882a2.9,2.9,0,1,0-2.9-2.9A2.9,2.9,0,0,0,535.3,143.882Z" transform="translate(-443.544 -17.334)" fill="rgba(68,68,68,0.67)" fill-rule="evenodd"/>
            <path id="Path_94" data-name="Path 94" d="M567.8,138.684H503.935a1.454,1.454,0,0,0-1.451,1.448h0a1.453,1.453,0,0,0,1.451,1.448H567.8a1.453,1.453,0,0,0,1.451-1.448h0A1.454,1.454,0,0,0,567.8,138.684Z" transform="translate(-486.082 -16.484)" fill="rgba(68,68,68,0.67)" fill-rule="evenodd"/>
            <path id="Path_95" data-name="Path 95" d="M535.3,149.635a2.9,2.9,0,1,0-2.9-2.9A2.9,2.9,0,0,0,535.3,149.635Z" transform="translate(-443.544 -9.156)" fill="rgba(68,68,68,0.67)" fill-rule="evenodd"/>
            <path id="Path_96" data-name="Path 96" d="M567.8,144.436H503.935a1.453,1.453,0,0,0-1.451,1.451h0a1.453,1.453,0,0,0,1.451,1.448H567.8a1.453,1.453,0,0,0,1.451-1.448h0A1.453,1.453,0,0,0,567.8,144.436Z" transform="translate(-486.082 -8.304)" fill="rgba(68,68,68,0.67)" fill-rule="evenodd"/>
          </g>
          <g id="Group_19" data-name="Group 19" transform="translate(0 982.434)">
            <path id="Path_97" data-name="Path 97" d="M484.329,454.745s1.012-14.624,9.238-14.624H509.63c5.44,0,10.754,8.954,12.272,15.518a9.662,9.662,0,0,1,6.45,7.162c1.141,5.67,3.672,26.858,4.05,28.95s1.77,9.853-6.45,9.853h-58.7c-5.186,0-4.551-4.035-4.551-6.351s1.136-10.892,3.919-15.368S484.329,454.745,484.329,454.745Z" transform="translate(-298.305 -440.121)" fill="rgba(68,68,68,0.67)" fill-rule="evenodd"/>
            <path id="Path_98" data-name="Path 98" d="M472.172,454.745s1.012-14.624,9.237-14.624h16.063c5.44,0,10.756,8.954,12.272,15.518l-6.607,14.738a11.968,11.968,0,0,1-8.68,3.311H475.878s-4.89-1.005-4.645-5.762S472.172,454.745,472.172,454.745Z" transform="translate(-286.148 -440.121)" fill="rgba(68,68,68,0.67)" fill-rule="evenodd"/>
            <path id="Path_99" data-name="Path 99" d="M532.109,460.587c.135,1.022.235,1.751.293,2.061.383,2.085,1.77,9.853-6.45,9.853h-58.7c-5.186,0-4.551-4.035-4.551-6.351a36.267,36.267,0,0,1,.656-5.563Z" transform="translate(-298.305 -411.018)" fill="rgba(68,68,68,0.67)" fill-rule="evenodd"/>
            <path id="Path_100" data-name="Path 100" d="M475.277,443.617s-26.41,23.256-35.984,25.1-30.542,3.694-35,6.273-8.584,13.471-9.078,15.5-1.652,9.228,4.786,9.228H518.2c4.953,0,5.944-2.766,5.944-6.828s-2.974-8.116-2.974-8.116v-22.7c0-4.98-2.638-9.041-8.417-9.407-9.969-.637-20.858,5.091-27.306-5.428C482.589,442.571,481.342,438.957,475.277,443.617Z" transform="translate(-394.809 -438.235)" fill="rgba(68,68,68,0.67)" fill-rule="evenodd"/>
            <path id="Path_101" data-name="Path 101" d="M448.8,443.617s-25.329,22.295-35.366,24.954c3.65,4.035,9.971,6.009,12.747,5.789,3.638-.291,30.929-12.786,33.4-16.126s-.109-10.221-.109-10.221h0c-.174-.252-.344-.509-.509-.777C456.108,442.571,454.86,438.957,448.8,443.617Z" transform="translate(-368.328 -438.235)" fill="rgba(68,68,68,0.67)" fill-rule="evenodd"/>
            <path id="Path_102" data-name="Path 102" d="M397.4,459.336a41.452,41.452,0,0,0-2.185,5.716c-.5,2.03-1.652,9.228,4.786,9.228H518.2c4.953,0,5.944-2.768,5.944-6.83s-2.969-8.114-2.969-8.114Z" transform="translate(-394.809 -412.797)" fill="rgba(68,68,68,0.67)" fill-rule="evenodd"/>
          </g>
          <g id="Group_20" data-name="Group 20" transform="translate(280.284 113.503)">
            <path id="Path_103" data-name="Path 103" d="M512.209,103.143c-.559-4.277-1.686-13.188-1.676-15.363.017-2.882,6.646-5.641,9.673-3.621,2.18,1.451,2.238-3.284,6.883-2.761s2.565,4.965,6.74,2.458c1.957-1.175,5.852-.506,7.971,1.916,1.635,1.867,2.119-1.109,5.449,0a4.284,4.284,0,0,1,3.277,4.449c-.051,2.112-2.645,14.222-3.12,15.775s-2.534,3.137-6.3,1.892c0,0-4.7,2.538-8.484.882a13.229,13.229,0,0,1-9.036-.734C517.533,109.944,512.9,108.444,512.209,103.143Z" transform="translate(-510.533 -81.357)" fill="rgba(68,68,68,0.67)" fill-rule="evenodd"/>
            <path id="Path_104" data-name="Path 104" d="M516.661,102.464l-1.715-16.5a.582.582,0,0,1,.565-.62.655.655,0,0,1,.748.453l1.712,16.5a.573.573,0,0,1-.557.62.656.656,0,0,1-.753-.45Zm17.518-.216-.445-14.6a.673.673,0,0,1,1.32-.034l.448,14.6a.674.674,0,0,1-1.322.034Zm-10.03-15.3a.591.591,0,0,1,.606-.586.628.628,0,0,1,.707.5l1.555,16.208a.594.594,0,0,1-.608.584.625.625,0,0,1-.71-.492Z" transform="translate(-504.265 -75.701)" fill="rgba(68,68,68,0.67)" fill-rule="evenodd"/>
          </g>
        </g>
      </g>
      <g id="Mask_Group_196" data-name="Mask Group 196" clip-path="url(#clip-path-3)">
        <g id="Group_4939" data-name="Group 4939" transform="translate(352.349 1437)">
          <path id="Path_8883" data-name="Path 8883" d="M518.7,83.993c-1.562,2.666-4.118,4.739-10.618,5.774s-.431,10.566,10.357,8.739C522.478,97.821,518.7,83.993,518.7,83.993Z" transform="translate(151.461 67.788)" fill="#d77f68" fill-rule="evenodd"/>
          <path id="Path_8884" data-name="Path 8884" d="M466.271,107.926C445.534,127.91,396.6,235.587,396.6,261.211c0,46.807,40.234,118.4,40.234,118.4s1.2,3.509,3.763,4.1,10.916-33.675,13.762-34.218,3.53-1.341,3.384-6.334-20.726-70.67-20.726-70.67,3.147-4.31.377-8.153l24.958-42.862S485.389,153.309,466.271,107.926Z" transform="translate(2.451 100.564)" fill="#ffc200" fill-rule="evenodd"/>
          <path id="Path_8885" data-name="Path 8885" d="M488.187,119.976c.22-1.744,11.134-12.3,11.134-12.3a31.071,31.071,0,0,1,19.236,11.21c8.056,10.051,29.825,44.054,29.825,44.054l40.125,51.468s-5.016,25.079-22.46,25.079-41.859-15.224-65.966-28.548S488.187,119.976,488.187,119.976Z" transform="translate(123.645 100.222)" fill="#ffc200" fill-rule="evenodd"/>
          <path id="Path_8886" data-name="Path 8886" d="M435.044,217.2l-12.257,16.432-3.417,22c-14.935,41.16,4.158,121.823,7.973,164.833,7.184,80.975,16.444,185.552,17.61,215.375C447.78,707.9,455.431,759.4,454.979,764.259s3.763,13.037,9.779,13.584,12.3-2.855,19.634-4.824l.145-.038,0,0c2.914-.86,3.109-4.985,3.109-4.985l3.422-85.975h0c-.235-13.075-.216-49.617.249-64.8.341-10.975,3.614-145.731,5.616-228.784.912-37.68,9.123-74.606,9.123-74.606L479,224.492Z" transform="translate(25.93 250.212)" fill="#341f97" fill-rule="evenodd"/>
          <path id="Path_8887" data-name="Path 8887" d="M434.883,217.2l-12.257,16.432-3.417,22c-3.121,8.6-4.748,18.925-5.348,30.268,20.816,9.258,51.323,19.176,90.211,21.887l-25.235-83.295Z" transform="translate(26.091 250.212)" fill="#142036" fill-rule="evenodd"/>
          <path id="Path_8888" data-name="Path 8888" d="M541.627,217.376l3.175,11.883c20.9,15.814,21.458,73.506,22.11,100.45,2.67,110.878-10.22,235.729-6.734,437.173,0,0,1.043,6.876-5.883,8.713s-22.8.481-27.574-.678A26.285,26.285,0,0,1,519.6,771c-.744-.739-1.268-4.187-1.63-9.132-12.667-171.909-24.65-318.819-61.583-489.16-5.72-26.365-19.065-38.409-19.065-38.409Z" transform="translate(58.214 250.455)" fill="#341f97" fill-rule="evenodd"/>
          <path id="Path_8889" data-name="Path 8889" d="M541.627,217.376l3.175,11.883c14.762,11.172,19.373,43.234,21.041,70.594-38.8,8.769-73.118,9.864-102.336,6.969q-3.4-16.907-7.125-34.109c-5.72-26.365-19.065-38.409-19.065-38.409Z" transform="translate(58.214 250.455)" fill="#142036" fill-rule="evenodd"/>
          <path id="Path_8890" data-name="Path 8890" d="M538.241,102.608l55.78,12.009c-4.448,11.937-20.927,39.253.758,103.262,0,0-16.812,81.089-16.812,91.91,0,7.691,4,45.745,6.656,62.555,2.125,13.452,4.159,19.61-10.513,27.173-27.306,14.082-92.481,30.611-153.185,2.2-12.44-15.07,1.218-48.958,10.587-76.324.907-14.39-10.968-91.493-8.175-108.764l16.44-101.419,46.759-12.331Z" transform="translate(28.945 93.281)" fill="#ffcf60" fill-rule="evenodd"/>
          <path id="Path_8891" data-name="Path 8891" d="M505.937,102.608l15.918,3.429L518.116,110c-21.079,22.34-62.071,27.5-78.582-3.244l14.7-3.876Z" transform="translate(61.25 93.281)" fill="#f4bd7a" fill-rule="evenodd"/>
          <path id="Path_8892" data-name="Path 8892" d="M497.442,85.441h-51.7v40.942c11.395,21.411,39.777,12.409,51.7-.227Z" transform="translate(69.745 69.771)" fill="#d77f68" fill-rule="evenodd"/>
          <g id="Group_4932" data-name="Group 4932" transform="translate(478.284 116.343)">
            <path id="Path_8893" data-name="Path 8893" d="M442.688,69.048c-.363.05-.718.114-1.076.187l-.01,0h0a14.692,14.692,0,1,0,12.286,2.867c.4,4.336-.251,9.708-5.779,10.284l.1-8.471C448.249,70.491,445.041,68.937,442.688,69.048Z" transform="translate(-430.039 -69.029)" fill="#d77f68" fill-rule="evenodd"/>
            <path id="Path_8894" data-name="Path 8894" d="M485.793,69.04c.365.045.723.1,1.076.175l.01,0v0a14.7,14.7,0,1,1-12.238,3.038c-.346,4.343.379,9.7,5.919,10.2l-.218-8.469C480.249,70.561,483.44,68.959,485.793,69.04Z" transform="translate(-376.324 -69.037)" fill="#d77f68" fill-rule="evenodd"/>
          </g>
          <path id="Path_8895" data-name="Path 8895" d="M484.918,184.68c27.429,0,50.309-33.841,50.309-60.557v-35.5a50.45,50.45,0,0,0-50.3-50.3h-.009a50.451,50.451,0,0,0-50.3,50.3V123.37C434.621,152.65,454.582,184.68,484.918,184.68Z" transform="translate(54.521 5.252)" fill="#e6ad83" fill-rule="evenodd"/>
          <g id="Group_4933" data-name="Group 4933" transform="translate(505.394 143.314)">
            <path id="Path_8896" data-name="Path 8896" d="M448.58,80.421a6.973,6.973,0,1,1-7.1,6.843A6.97,6.97,0,0,1,448.58,80.421Z" transform="translate(-441.479 -80.42)" fill="#d7766d" fill-rule="evenodd"/>
            <path id="Path_8897" data-name="Path 8897" d="M471.439,80.89a6.972,6.972,0,1,1-7.1,6.841A6.973,6.973,0,0,1,471.439,80.89Z" transform="translate(-410.177 -79.777)" fill="#d7766d" fill-rule="evenodd"/>
          </g>
          <path id="Path_8898" data-name="Path 8898" d="M463.616,67.171a2.107,2.107,0,1,0,1.742,3.836c.014-.007,6.369-3.012,12.435.8a2.115,2.115,0,0,0,2.253-3.58C472.034,63.187,463.639,67.159,463.616,67.171Z" transform="translate(92.534 42.699)" fill="#273048" fill-rule="evenodd"/>
          <path id="Path_8899" data-name="Path 8899" d="M442.531,67.9a2.107,2.107,0,1,0,2.05,3.682c.017-.007,6.106-3.519,12.461-.211a2.115,2.115,0,0,0,1.952-3.753C450.6,63.251,442.555,67.893,442.531,67.9Z" transform="translate(63.873 42.802)" fill="#273048" fill-rule="evenodd"/>
          <path id="Path_8900" data-name="Path 8900" d="M456.69,79.04c-.934,2.547-2.576,7.153-2.433,7.928.194,1.078,5.765,2.078,7.229.659.976-.948-.235-5.106-1.291-7.9C458.751,75.913,457.955,75.614,456.69,79.04Z" transform="translate(81.399 57.74)" fill="#ebbf9e" fill-rule="evenodd"/>
          <g id="Group_4934" data-name="Group 4934" transform="translate(528.876 153.454)">
            <path id="Path_8901" data-name="Path 8901" d="M451.39,86.644a10.568,10.568,0,1,0,21.136,0A1.95,1.95,0,0,0,470.58,84.7H453.335A1.948,1.948,0,0,0,451.39,86.644Z" transform="translate(-451.39 -84.699)" fill="#273048" fill-rule="evenodd"/>
            <path id="Path_8902" data-name="Path 8902" d="M467.779,84.7h-15.12v1.787a1.7,1.7,0,0,0,1.694,1.692h11.731a1.7,1.7,0,0,0,1.694-1.692Z" transform="translate(-449.652 -84.698)" fill="#fff" fill-rule="evenodd"/>
            <path id="Path_8903" data-name="Path 8903" d="M452.617,90.493a10.571,10.571,0,0,0,15.321,0,10.571,10.571,0,0,0-15.321,0Z" transform="translate(-449.71 -81.264)" fill="#d26070" fill-rule="evenodd"/>
          </g>
          <path id="Path_8904" data-name="Path 8904" d="M589.975,275.834l14.831,110.788s.436,5.668-2.616,7.2-100.1,38.381-185.588,0c0,0-6.763-3.054-5.455-12.433s23.991-102.5,23.991-102.5l-5.891-97.7a30.531,30.531,0,0,1,0-9.487c.874-4.362,13.4-35.445,13.4-35.445s1.744-5.67,11.34-5.67h123s3.926-.763,6.106,4.362,17.771,61.936,17.771,61.936Z" transform="translate(22.144 131.537)" fill="#341f97" fill-rule="evenodd"/>
          <path id="Path_8905" data-name="Path 8905" d="M437.572,103.237s1.678-.663,2.914-3.495,1.962-15.982,1.962-15.982,10.4-7.232,13.163-11.937-9.736-19.506-9.736-19.506c-6.343,2.929-13.76,18.2-13.395,24.351.531,9.025,1.045,18.977,1.045,18.977S437.877,96.544,437.572,103.237Z" transform="translate(51.571 24.408)" fill="#273048" fill-rule="evenodd"/>
          <path id="Path_8906" data-name="Path 8906" d="M443.212,108.638a3.295,3.295,0,1,0-6.054-2.6c-.026.062-9.4,21.52-10.291,67.547a3.283,3.283,0,1,0,6.566.1C434.293,129.034,443.183,108.7,443.212,108.638Z" transform="translate(43.902 95.244)" fill="#273048" fill-rule="evenodd"/>
          <path id="Path_8907" data-name="Path 8907" d="M509.971,144.651H435.822a3.5,3.5,0,0,0-3.49,3.49v44.49A40.684,40.684,0,0,0,472.9,233.194h0a40.681,40.681,0,0,0,40.563-40.563v-44.49A3.5,3.5,0,0,0,509.971,144.651Z" transform="translate(51.387 150.859)" fill="#141c60" fill-rule="evenodd"/>
          <rect id="Rectangle_6151" data-name="Rectangle 6151" width="81.127" height="4.798" transform="translate(483.719 310.992)" fill="#273048"/>
          <path id="Path_8908" data-name="Path 8908" d="M487.735,103.237s-1.678-.663-2.912-3.495-1.967-15.982-1.967-15.982-10.4-7.232-13.158-11.937,9.736-19.506,9.736-19.506c6.343,2.929,13.753,18.2,13.392,24.351-.536,9.025-1.05,18.977-1.05,18.977S487.429,96.544,487.735,103.237Z" transform="translate(102.014 24.408)" fill="#273048" fill-rule="evenodd"/>
          <path id="Path_8909" data-name="Path 8909" d="M488.759,34.494s-23.141,4.578-33.445,9.615-19.577,31.6-23.242,43.047c0,0-.8,6.182.457,10.535a161.91,161.91,0,0,1,112.458,0c1.263-4.353.46-10.535.46-10.535-3.661-11.447-12.935-38.009-23.24-43.047S488.759,34.494,488.759,34.494Z" transform="translate(50.685)" fill="#341f97" fill-rule="evenodd"/>
          <path id="Path_8910" data-name="Path 8910" d="M546.054,75.078l2.514,6.315s.436,4.362-1.637,5.67c-.59.372-3.315-.96-7.528-3.05-41.539-20.634-58.967-19.852-100.345.59-3.533,1.744-5.805,2.8-6.343,2.46-2.071-1.308-1.635-5.67-1.635-5.67l2.507-6.315C461.534,41.284,518.108,41.284,546.054,75.078Z" transform="translate(49.619 20.869)" fill="#5f27cd" fill-rule="evenodd"/>
          <path id="Path_8911" data-name="Path 8911" d="M493.277,108.638a3.294,3.294,0,1,0-6.052-2.6c-.026.062-9.4,21.52-10.288,67.547a3.282,3.282,0,1,0,6.563.1C484.359,129.034,493.249,108.7,493.277,108.638Z" transform="translate(112.472 95.244)" fill="#273048" fill-rule="evenodd"/>
          <g id="Group_4935" data-name="Group 4935" transform="translate(506.132 121.419)">
            <path id="Path_8912" data-name="Path 8912" d="M462.632,79.8a1.649,1.649,0,0,0,3.3,0,5.3,5.3,0,0,1,1.554-3.763l0-.007a5.334,5.334,0,0,1,7.528,0l.007.007a5.289,5.289,0,0,1,1.557,3.763,1.646,1.646,0,1,0,3.291,0,8.6,8.6,0,0,0-2.519-6.085l0-.007a8.609,8.609,0,0,0-12.182-.007l0,.007A8.6,8.6,0,0,0,462.632,79.8Z" transform="translate(-413.249 -71.179)" fill="#142036" fill-rule="evenodd"/>
            <path id="Path_8913" data-name="Path 8913" d="M441.791,79.8a1.649,1.649,0,0,0,3.3,0,5.307,5.307,0,0,1,1.554-3.763l0-.007a5.334,5.334,0,0,1,7.528,0l.007.007A5.289,5.289,0,0,1,455.74,79.8a1.646,1.646,0,1,0,3.291,0,8.6,8.6,0,0,0-2.519-6.085l0-.007a8.609,8.609,0,0,0-12.182-.007l0,.007A8.6,8.6,0,0,0,441.791,79.8Z" transform="translate(-441.791 -71.179)" fill="#142036" fill-rule="evenodd"/>
          </g>
          <g id="Group_4936" data-name="Group 4936" transform="translate(633.897 161.821)">
            <path id="Rectangle_6152" data-name="Rectangle 6152" d="M2.761,0H105.893a2.759,2.759,0,0,1,2.759,2.759V154.7a2.76,2.76,0,0,1-2.76,2.76H2.762A2.762,2.762,0,0,1,0,154.7V2.761A2.761,2.761,0,0,1,2.761,0Z" transform="translate(0 0)" fill="#847bff"/>
            <rect id="Rectangle_6153" data-name="Rectangle 6153" width="92.04" height="139.58" rx="1.021" transform="translate(8.305 8.939)" fill="#fff"/>
            <path id="Rectangle_6154" data-name="Rectangle 6154" d="M1.495,0H38.849a1.5,1.5,0,0,1,1.5,1.5v4.1a1.5,1.5,0,0,1-1.5,1.5H1.5A1.5,1.5,0,0,1,0,5.592v-4.1A1.495,1.495,0,0,1,1.495,0Z" transform="translate(34.154 5.395)" fill="#c17b14"/>
            <path id="Path_8914" data-name="Path 8914" d="M535.237,103.492a2.835,2.835,0,1,0-2.839-2.834A2.84,2.84,0,0,0,535.237,103.492Z" transform="translate(-445.471 -75.094)" fill="#341f97" fill-rule="evenodd"/>
            <path id="Path_8915" data-name="Path 8915" d="M566.387,98.42H503.9a1.423,1.423,0,0,0-1.419,1.419h0a1.421,1.421,0,0,0,1.419,1.417h62.483a1.421,1.421,0,0,0,1.419-1.417h0A1.423,1.423,0,0,0,566.387,98.42Z" transform="translate(-486.438 -74.275)" fill="#273048" fill-rule="evenodd"/>
            <path id="Path_8916" data-name="Path 8916" d="M535.237,109.244a2.835,2.835,0,1,0-2.839-2.836A2.839,2.839,0,0,0,535.237,109.244Z" transform="translate(-445.471 -67.217)" fill="#341f97" fill-rule="evenodd"/>
            <path id="Path_8917" data-name="Path 8917" d="M566.387,104.173H503.9a1.421,1.421,0,0,0-1.419,1.417h0a1.421,1.421,0,0,0,1.419,1.417h62.483a1.421,1.421,0,0,0,1.419-1.417h0A1.421,1.421,0,0,0,566.387,104.173Z" transform="translate(-486.438 -66.396)" fill="#273048" fill-rule="evenodd"/>
            <path id="Path_8918" data-name="Path 8918" d="M535.237,115a2.835,2.835,0,1,0-2.839-2.834A2.84,2.84,0,0,0,535.237,115Z" transform="translate(-445.471 -59.339)" fill="#341f97" fill-rule="evenodd"/>
            <path id="Path_8919" data-name="Path 8919" d="M566.387,109.924H503.9a1.422,1.422,0,0,0-1.419,1.419h0a1.421,1.421,0,0,0,1.419,1.417h62.483a1.421,1.421,0,0,0,1.419-1.417h0A1.422,1.422,0,0,0,566.387,109.924Z" transform="translate(-486.438 -58.52)" fill="#273048" fill-rule="evenodd"/>
            <path id="Path_8920" data-name="Path 8920" d="M535.237,120.748a2.835,2.835,0,1,0-2.839-2.834A2.839,2.839,0,0,0,535.237,120.748Z" transform="translate(-445.471 -51.462)" fill="#341f97" fill-rule="evenodd"/>
            <path id="Path_8921" data-name="Path 8921" d="M566.387,115.676H503.9a1.422,1.422,0,0,0-1.419,1.419h0a1.421,1.421,0,0,0,1.419,1.417h62.483a1.421,1.421,0,0,0,1.419-1.417h0A1.422,1.422,0,0,0,566.387,115.676Z" transform="translate(-486.438 -50.643)" fill="#273048" fill-rule="evenodd"/>
            <path id="Path_8922" data-name="Path 8922" d="M535.237,126.5a2.835,2.835,0,1,0-2.839-2.836A2.841,2.841,0,0,0,535.237,126.5Z" transform="translate(-445.471 -43.585)" fill="#341f97" fill-rule="evenodd"/>
            <path id="Path_8923" data-name="Path 8923" d="M566.387,121.428H503.9a1.422,1.422,0,0,0-1.419,1.419h0a1.423,1.423,0,0,0,1.419,1.419h62.483a1.423,1.423,0,0,0,1.419-1.419h0A1.422,1.422,0,0,0,566.387,121.428Z" transform="translate(-486.438 -42.766)" fill="#273048" fill-rule="evenodd"/>
            <path id="Path_8924" data-name="Path 8924" d="M535.237,132.254a2.836,2.836,0,1,0-2.839-2.834A2.84,2.84,0,0,0,535.237,132.254Z" transform="translate(-445.471 -35.709)" fill="#341f97" fill-rule="evenodd"/>
            <path id="Path_8925" data-name="Path 8925" d="M566.387,127.18H503.9a1.423,1.423,0,0,0-1.419,1.419h0a1.423,1.423,0,0,0,1.419,1.417h62.483a1.423,1.423,0,0,0,1.419-1.417h0A1.423,1.423,0,0,0,566.387,127.18Z" transform="translate(-486.438 -34.888)" fill="#273048" fill-rule="evenodd"/>
            <path id="Path_8926" data-name="Path 8926" d="M535.237,138.006a2.836,2.836,0,1,0-2.839-2.836A2.841,2.841,0,0,0,535.237,138.006Z" transform="translate(-445.471 -27.831)" fill="#341f97" fill-rule="evenodd"/>
            <path id="Path_8927" data-name="Path 8927" d="M566.387,132.932H503.9a1.421,1.421,0,0,0-1.419,1.417h0a1.422,1.422,0,0,0,1.419,1.419h62.483a1.422,1.422,0,0,0,1.419-1.419h0A1.421,1.421,0,0,0,566.387,132.932Z" transform="translate(-486.438 -27.011)" fill="#273048" fill-rule="evenodd"/>
            <path id="Path_8928" data-name="Path 8928" d="M535.237,143.756a2.835,2.835,0,1,0-2.839-2.836A2.841,2.841,0,0,0,535.237,143.756Z" transform="translate(-445.471 -19.953)" fill="#341f97" fill-rule="evenodd"/>
            <path id="Path_8929" data-name="Path 8929" d="M566.387,138.684H503.9a1.423,1.423,0,0,0-1.419,1.417h0a1.421,1.421,0,0,0,1.419,1.417h62.483a1.421,1.421,0,0,0,1.419-1.417h0A1.423,1.423,0,0,0,566.387,138.684Z" transform="translate(-486.438 -19.134)" fill="#273048" fill-rule="evenodd"/>
            <path id="Path_8930" data-name="Path 8930" d="M535.237,149.51a2.836,2.836,0,1,0-2.839-2.836A2.841,2.841,0,0,0,535.237,149.51Z" transform="translate(-445.471 -12.077)" fill="#341f97" fill-rule="evenodd"/>
            <path id="Path_8931" data-name="Path 8931" d="M566.387,144.436H503.9a1.422,1.422,0,0,0-1.419,1.419h0a1.421,1.421,0,0,0,1.419,1.417h62.483a1.421,1.421,0,0,0,1.419-1.417h0A1.422,1.422,0,0,0,566.387,144.436Z" transform="translate(-486.438 -11.257)" fill="#273048" fill-rule="evenodd"/>
          </g>
          <g id="Group_4937" data-name="Group 4937" transform="translate(394.809 995.623)">
            <path id="Path_8932" data-name="Path 8932" d="M483.86,454.428s.99-14.307,9.037-14.307h15.714c5.322,0,10.521,8.76,12.006,15.181a9.453,9.453,0,0,1,6.31,7.006c1.116,5.547,3.592,26.275,3.962,28.323s1.732,9.639-6.31,9.639H467.15c-5.073,0-4.452-3.948-4.452-6.213s1.111-10.656,3.834-15.034S483.86,454.428,483.86,454.428Z" transform="translate(-301.87 -440.121)" fill="#ab5c2f" fill-rule="evenodd"/>
            <path id="Path_8933" data-name="Path 8933" d="M472.151,454.428s.99-14.307,9.037-14.307H496.9c5.322,0,10.523,8.76,12.006,15.181l-6.464,14.418a11.709,11.709,0,0,1-8.492,3.239H475.777s-4.784-.983-4.545-5.637S472.151,454.428,472.151,454.428Z" transform="translate(-290.162 -440.121)" fill="#753831" fill-rule="evenodd"/>
            <path id="Path_8934" data-name="Path 8934" d="M530.6,460.587c.133,1,.23,1.713.287,2.016.374,2.04,1.732,9.639-6.31,9.639H467.15c-5.073,0-4.452-3.948-4.452-6.213a35.48,35.48,0,0,1,.642-5.443Z" transform="translate(-301.87 -412.093)" fill="#c17b14" fill-rule="evenodd"/>
            <path id="Path_8935" data-name="Path 8935" d="M473.532,443.57s-25.837,22.752-35.2,24.555-29.879,3.613-34.237,6.137-8.4,13.179-8.881,15.165-1.616,9.028,4.682,9.028H515.522c4.846,0,5.815-2.706,5.815-6.68s-2.91-7.94-2.91-7.94V461.623c0-4.872-2.58-8.845-8.234-9.2-9.753-.623-20.406,4.981-26.714-5.31C480.686,442.546,479.465,439.011,473.532,443.57Z" transform="translate(-394.809 -438.305)" fill="#ab5c2f" fill-rule="evenodd"/>
            <path id="Path_8936" data-name="Path 8936" d="M448.031,443.57s-24.78,21.811-34.6,24.413c3.571,3.948,9.755,5.879,12.471,5.663,3.559-.284,30.258-12.509,32.673-15.776s-.107-10-.107-10h0c-.171-.246-.336-.5-.5-.761C455.182,442.546,453.962,439.011,448.031,443.57Z" transform="translate(-369.306 -438.305)" fill="#753831" fill-rule="evenodd"/>
            <path id="Path_8937" data-name="Path 8937" d="M397.349,459.336a40.554,40.554,0,0,0-2.137,5.592c-.486,1.986-1.616,9.028,4.682,9.028H515.522c4.846,0,5.815-2.708,5.815-6.682s-2.905-7.938-2.905-7.938Z" transform="translate(-394.809 -413.806)" fill="#c17b14" fill-rule="evenodd"/>
          </g>
          <g id="Group_4938" data-name="Group 4938" transform="translate(669.015 145.536)">
            <path id="Path_8938" data-name="Path 8938" d="M512.173,102.67c-.547-4.185-1.649-12.9-1.64-15.03.017-2.82,6.5-5.519,9.464-3.542,2.133,1.419,2.189-3.213,6.734-2.7s2.509,4.857,6.594,2.405c1.915-1.149,5.725-.5,7.8,1.874,1.6,1.827,2.073-1.085,5.331,0a4.191,4.191,0,0,1,3.206,4.353c-.05,2.066-2.588,13.914-3.052,15.432s-2.479,3.068-6.166,1.851c0,0-4.6,2.483-8.3.863a12.942,12.942,0,0,1-8.841-.718C517.381,109.324,512.848,107.857,512.173,102.67Z" transform="translate(-510.533 -81.357)" fill="#e6ad83" fill-rule="evenodd"/>
            <path id="Path_8939" data-name="Path 8939" d="M516.624,102.093l-1.678-16.146a.57.57,0,0,1,.552-.607.641.641,0,0,1,.732.443l1.675,16.143a.561.561,0,0,1-.545.607.641.641,0,0,1-.737-.441Zm17.138-.211L533.327,87.6a.658.658,0,0,1,1.291-.033l.438,14.283a.659.659,0,0,1-1.294.033ZM523.95,86.914a.578.578,0,0,1,.592-.573.614.614,0,0,1,.692.486l1.521,15.857a.581.581,0,0,1-.595.571.612.612,0,0,1-.694-.481Z" transform="translate(-504.497 -75.91)" fill="#d77f68" fill-rule="evenodd"/>
          </g>
        </g>
      </g>
    </g>
  </g>
</svg>
