<svg xmlns="http://www.w3.org/2000/svg" xmlns:xlink="http://www.w3.org/1999/xlink" width="537.211" height="534.978" viewBox="0 0 537.211 534.978">
  <defs>
    <linearGradient id="linear-gradient" x1="0.5" x2="0.5" y2="1" gradientUnits="objectBoundingBox">
      <stop offset="0" stop-color="#141c60"/>
      <stop offset="1" stop-color="#4549a4"/>
    </linearGradient>
    <linearGradient id="linear-gradient-2" x1="0.5" x2="0.5" y2="1" gradientUnits="objectBoundingBox">
      <stop offset="0" stop-color="#3f4894"/>
      <stop offset="1" stop-color="#686dd4"/>
    </linearGradient>
    <clipPath id="clip-path">
      <rect id="Rectangle_181" data-name="Rectangle 181" width="40.056" height="39.204" transform="translate(0 0)" fill="#fff" stroke="#707070" stroke-width="1"/>
    </clipPath>
    <clipPath id="clip-path-2">
      <rect id="Rectangle_6129" data-name="Rectangle 6129" width="40.056" height="39.204" transform="translate(0)" fill="#fff" stroke="#707070" stroke-width="1"/>
    </clipPath>
    <clipPath id="clip-path-3">
      <rect id="Rectangle_180" data-name="Rectangle 180" width="28.5" height="27.966" transform="matrix(0.766, -0.643, 0.643, 0.766, 0, 18.32)" fill="#fff" stroke="#707070" stroke-width="1"/>
    </clipPath>
    <clipPath id="clip-path-4">
      <rect id="Rectangle_204" data-name="Rectangle 204" width="28.5" height="27.966" fill="#fff" stroke="#707070" stroke-width="1"/>
    </clipPath>
    <clipPath id="clip-path-5">
      <rect id="Rectangle_178" data-name="Rectangle 178" width="96" height="95" transform="translate(0 0.001)" fill="#fff" stroke="#707070" stroke-width="1"/>
    </clipPath>
    <clipPath id="clip-path-6">
      <rect id="Rectangle_179" data-name="Rectangle 179" width="71" height="70" rx="10" transform="translate(0 0)" fill="#fff" stroke="#707070" stroke-width="1"/>
    </clipPath>
    <clipPath id="clip-path-7">
      <rect id="Rectangle_11" data-name="Rectangle 11" width="64.575" height="117.288" fill="none"/>
    </clipPath>
    <linearGradient id="linear-gradient-3" x1="1.015" y1="-0.179" x2="0.144" y2="0.969" gradientUnits="objectBoundingBox">
      <stop offset="0" stop-color="#fff"/>
      <stop offset="1" stop-color="#fff" stop-opacity="0"/>
    </linearGradient>
    <linearGradient id="linear-gradient-4" x1="1.242" y1="-0.185" x2="0.079" y2="0.889" xlink:href="#linear-gradient-3"/>
    <clipPath id="clip-path-8">
      <rect id="Rectangle_181-2" data-name="Rectangle 181" width="58.552" height="57.306" transform="translate(0 27.488) rotate(-28)" fill="#fff" stroke="#707070" stroke-width="1"/>
    </clipPath>
  </defs>
  <g id="sss" transform="translate(-200 -166.555)">
    <g id="Group_4812" data-name="Group 4812" transform="translate(200 167.055)">
      <g id="Group_4811" data-name="Group 4811" transform="translate(0 0)">
        <g id="Construction-bro" transform="translate(0 0)">
          <g id="freepik--background-simple--inject-2" transform="translate(22.998 33.696)">
            <path id="Path_6378" data-name="Path 6378" d="M206.174,26.374s-51.3,3.078-100.629,41.07c-42.941,33.13-66.762,82.59-69.242,136.4C34.657,239.368,43.143,274,53.4,307.733c13.177,43.39,21.684,92.817,49.161,129.9,42.844,57.71,125.669,82.055,194.932,71.721,44.747-6.669,92.026-32.061,105.8-78.016,5.1-17,7.588-35.267,16.3-50.988,10.431-18.831,29.368-29.828,43.742-45.164,17.751-18.937,24.912-42.535,29.336-67.5C507.058,186.573,476.3,117.77,420.792,67.445S229.793,18.156,206.174,26.374Z" transform="translate(-36.098 -22.109)" fill="#dcdcdc" opacity="0.63"/>
          </g>
          <g id="freepik--Clouds--inject-2" transform="translate(22.726)">
            <path id="Path_6379" data-name="Path 6379" d="M223.123,70.711c-7.3-3.982-10.631-.664-13.286-3.982s7.312-11.958-12.587-20.6c0,0-1.327-18.6-28.608-19.259s-19.923,18.6-27.235,23.241-9.292-2.655-16.6,2-3.971,13.949-9.933,15.277-13.949-5.985-21.25-1.327-7.358,8.628-10.654,8.628-9.967-2.655-13.949,0-8.628,5.985-8.628,5.985H228.444S230.447,74.693,223.123,70.711Z" transform="translate(-60.39 -26.855)" fill="none" stroke="#263238" stroke-linecap="round" stroke-linejoin="round" stroke-width="1"/>
            <path id="Path_6380" data-name="Path 6380" d="M116.105,62.79A22.372,22.372,0,0,1,113.13,64.2" transform="translate(-52.779 -21.669)" fill="none" stroke="#263238" stroke-linecap="round" stroke-linejoin="round" stroke-width="1"/>
            <path id="Path_6381" data-name="Path 6381" d="M151.221,35.68a11.352,11.352,0,0,0-6.488,8.1c-1.213,6.088-4.051,10.139-7.289,10.539s-15.4-.8-17.439,3.65a18.058,18.058,0,0,0-1.144,4.074" transform="translate(-51.952 -25.582)" fill="none" stroke="#263238" stroke-linecap="round" stroke-linejoin="round" stroke-width="1"/>
            <path id="Path_6382" data-name="Path 6382" d="M168.435,122.047c-2.849-1.556-4.142-.263-5.184-1.556s2.849-4.68-4.932-8.01c0,0-.515-7.266-11.157-7.53s-7.793,7.266-10.642,9.086-3.639-1.041-6.488.778-1.556,5.447-3.891,5.962-5.458-2.289-8.308-.515-2.861,3.433-4.154,3.433-3.891-1.041-5.447,0-3.433,2.289-3.433,2.289h65.661S171.3,123.6,168.435,122.047Z" transform="translate(-53.981 -15.586)" fill="none" stroke="#263238" stroke-linecap="round" stroke-linejoin="round" stroke-width="1"/>
            <path id="Path_6383" data-name="Path 6383" d="M126.614,119a9.407,9.407,0,0,1-1.144.538" transform="translate(-50.998 -13.557)" fill="none" stroke="#263238" stroke-linecap="round" stroke-linejoin="round" stroke-width="1"/>
            <path id="Path_6384" data-name="Path 6384" d="M140.345,108.36a4.44,4.44,0,0,0-2.54,3.17c-.469,2.38-1.579,3.959-2.849,4.12s-6.019-.32-6.809,1.419a6.867,6.867,0,0,0-.446,1.591" transform="translate(-50.676 -15.093)" fill="none" stroke="#263238" stroke-linecap="round" stroke-linejoin="round" stroke-width="1"/>
            <path id="Path_6385" data-name="Path 6385" d="M449.09,108.785c-2.861-1.556-4.154-.252-5.2-1.556s2.861-4.669-4.932-8.01c0,0-.515-7.266-11.157-7.518s-7.781,7.266-10.642,9.074-3.628-1.03-6.488.778-1.556,5.458-3.891,5.973-5.447-2.289-8.308-.515-2.849,3.364-4.154,3.364-3.891-1.03-5.447,0-3.376,2.266-3.376,2.266h65.661S451.939,110.353,449.09,108.785Z" transform="translate(-13.471 -17.498)" fill="none" stroke="#263238" stroke-linecap="round" stroke-linejoin="round" stroke-width="1"/>
            <path id="Path_6386" data-name="Path 6386" d="M407.274,105.7a8.084,8.084,0,0,1-1.144.549" transform="translate(-10.494 -15.477)" fill="none" stroke="#263238" stroke-linecap="round" stroke-linejoin="round" stroke-width="1"/>
            <path id="Path_6387" data-name="Path 6387" d="M420.993,95.11a4.406,4.406,0,0,0-2.529,3.17c-.481,2.369-1.591,3.959-2.861,4.108s-6.019-.309-6.809,1.43a6.568,6.568,0,0,0-.435,1.591" transform="translate(-10.172 -17.005)" fill="none" stroke="#263238" stroke-linecap="round" stroke-linejoin="round" stroke-width="1"/>
          </g>
          <g id="freepik--floor-1--inject-2" transform="translate(0 497.479)">
            <line id="Line_90" data-name="Line 90" x2="537.211" fill="#fff" stroke="#263238" stroke-miterlimit="10" stroke-width="1"/>
          </g>
        </g>
      </g>
      <g id="Group_336" data-name="Group 336" transform="translate(1.31 24.326)">
        <circle id="Ellipse_18" data-name="Ellipse 18" cx="3.294" cy="3.294" r="3.294" transform="translate(21.897 379.652)" fill="none" stroke="#ffc200" stroke-linecap="round" stroke-linejoin="round" stroke-width="1"/>
        <circle id="Ellipse_721" data-name="Ellipse 721" cx="3.294" cy="3.294" r="3.294" transform="translate(430.593 500.913)" fill="none" stroke="#ffc200" stroke-linecap="round" stroke-linejoin="round" stroke-width="1"/>
        <g id="Component_8_13" data-name="Component 8 – 13" transform="translate(55.707 503.562)">
          <path id="Path_80" data-name="Path 80" d="M389.37,300.506a3.294,3.294,0,1,1-3.294-3.294A3.3,3.3,0,0,1,389.37,300.506Z" transform="translate(-382.781 -297.212)" fill="url(#linear-gradient)"/>
        </g>
        <g id="Group_61" data-name="Group 61" transform="translate(0 123.862)">
          <line id="Line_21" data-name="Line 21" y2="7.088" transform="translate(3.544)" fill="none" stroke="#4549a4" stroke-linecap="round" stroke-linejoin="round" stroke-width="1"/>
          <line id="Line_22" data-name="Line 22" x1="7.088" transform="translate(0 3.544)" fill="none" stroke="#4549a4" stroke-linecap="round" stroke-linejoin="round" stroke-width="1"/>
        </g>
        <g id="Group_4810" data-name="Group 4810" transform="matrix(0.719, 0.695, -0.695, 0.719, 500.853, 158.325)">
          <line id="Line_21-2" data-name="Line 21" y2="7.088" transform="translate(3.544 0)" fill="none" stroke="#ffc200" stroke-linecap="round" stroke-linejoin="round" stroke-width="1"/>
          <line id="Line_22-2" data-name="Line 22" x1="7.088" transform="translate(0 3.544)" fill="none" stroke="#ffc200" stroke-linecap="round" stroke-linejoin="round" stroke-width="1"/>
        </g>
        <g id="Group_4833" data-name="Group 4833" transform="matrix(0.105, 0.995, -0.995, 0.105, 276.094, 125.441)">
          <line id="Line_21-3" data-name="Line 21" y2="7.088" transform="translate(3.544)" fill="none" stroke="#ffc200" stroke-linecap="round" stroke-linejoin="round" stroke-width="1"/>
          <line id="Line_22-3" data-name="Line 22" x1="7.088" transform="translate(0 3.544)" fill="none" stroke="#ffc200" stroke-linecap="round" stroke-linejoin="round" stroke-width="1"/>
        </g>
        <path id="Path_46" data-name="Path 46" d="M144.074,228.1a4.118,4.118,0,1,1-4.118-4.12A4.118,4.118,0,0,1,144.074,228.1Z" transform="translate(301.756 122.965)" fill="#4549a4"/>
        <g id="Component_6_12" data-name="Component 6 – 12" transform="translate(325.314)">
          <path id="Path_323" data-name="Path 323" d="M144.074,228.1a4.118,4.118,0,1,1-4.118-4.12A4.118,4.118,0,0,1,144.074,228.1Z" transform="translate(-135.838 -223.977)" fill="#4549a4"/>
        </g>
        <g id="Component_6_13" data-name="Component 6 – 13" transform="translate(94.423 196.837)">
          <path id="Path_323-2" data-name="Path 323" d="M140.583,226.351a2.372,2.372,0,1,1-2.372-2.374A2.372,2.372,0,0,1,140.583,226.351Z" transform="translate(-135.838 -223.977)" fill="#4549a4"/>
        </g>
        <g id="Component_6_14" data-name="Component 6 – 14" transform="translate(309.423 273.837)">
          <path id="Path_323-3" data-name="Path 323" d="M140.583,226.351a2.372,2.372,0,1,1-2.372-2.374A2.372,2.372,0,0,1,140.583,226.351Z" transform="translate(-135.838 -223.977)" fill="url(#linear-gradient-2)"/>
        </g>
        <g id="Component_7_19" data-name="Component 7 – 19" transform="translate(326.027 288.433) rotate(39)">
          <line id="Line_25" data-name="Line 25" y2="3.313" transform="translate(1.656)" fill="none" stroke="#5f27cd" stroke-linecap="round" stroke-linejoin="round" stroke-width="1"/>
          <line id="Line_26" data-name="Line 26" x1="3.313" transform="translate(0 1.656)" fill="none" stroke="#5f27cd" stroke-linecap="round" stroke-linejoin="round" stroke-width="1"/>
        </g>
      </g>
      <g id="Mask_Group_8" data-name="Mask Group 8" transform="matrix(-0.839, 0.545, -0.545, -0.839, 248.011, 280.692)" opacity="0.79" clip-path="url(#clip-path)">
        <g id="paint-roller" transform="translate(1.76 0)">
          <path id="Path_352" data-name="Path 352" d="M17.121,16.578H15.658a.593.593,0,0,1,0-1.186h1.463a3.225,3.225,0,0,0,3.221-3.221V9.628a3.225,3.225,0,0,0-3.221-3.221H4.407A4.412,4.412,0,0,1,0,2V.593a.593.593,0,1,1,1.186,0V2A3.225,3.225,0,0,0,4.407,5.221H17.121a4.412,4.412,0,0,1,4.407,4.407v2.543A4.412,4.412,0,0,1,17.121,16.578Z" transform="translate(15.01 18.013)" fill="#989898"/>
          <path id="Path_353" data-name="Path 353" d="M3.762.077A1.326,1.326,0,0,0,4.205,0V2.069A1.328,1.328,0,0,1,2.877,3.4H1.328A1.328,1.328,0,0,1,0,2.069V0C.291.1.121.077,3.762.077Z" transform="translate(13.611 15.114)" fill="#e1e1e1"/>
          <path id="Path_354" data-name="Path 354" d="M29.877,10.291H1.328A1.328,1.328,0,0,1,0,8.963V1.328A1.328,1.328,0,0,1,1.328,0H29.877a1.328,1.328,0,0,1,1.328,1.328V8.963A1.328,1.328,0,0,1,29.877,10.291Z" transform="translate(0 28.913)" fill="#cacbcc"/>
          <path id="Path_355" data-name="Path 355" d="M29.877,4.671H1.328A1.328,1.328,0,0,0,0,6V1.328A1.328,1.328,0,0,1,1.328,0H29.877a1.328,1.328,0,0,1,1.328,1.328V6A1.328,1.328,0,0,0,29.877,4.671Z" transform="translate(0 28.913)" fill="#bababa"/>
          <path id="Path_359" data-name="Path 359" d="M0,10.291H26.219V0H0Z" transform="translate(2.523 28.913)" fill="#ffcf60"/>
          <rect id="Rectangle_200" data-name="Rectangle 200" width="26.219" height="4.671" transform="translate(2.523 28.913)" fill="#ffc200"/>
          <path id="Path_356" data-name="Path 356" d="M1.679,2.069A1.327,1.327,0,0,0,2.942,3.394c-.1,0,.193,0-1.614,0A1.328,1.328,0,0,1,0,2.069V0C.28.1.342.077,1.679.077Z" transform="translate(13.611 15.114)" fill="#bababa"/>
          <path id="Path_357" data-name="Path 357" d="M4.648,15.271H1.328A1.328,1.328,0,0,1,0,13.943V1.328A1.328,1.328,0,0,1,1.328,0h3.32A1.328,1.328,0,0,1,5.976,1.328c0,1.9,0,12.414,0,12.615A1.328,1.328,0,0,1,4.648,15.271Z" transform="translate(12.725 0)" fill="#4549a4"/>
          <path id="Path_358" data-name="Path 358" d="M1.679,1.328V13.943a1.328,1.328,0,0,0,1.328,1.328H1.328A1.328,1.328,0,0,1,0,13.943V1.328A1.328,1.328,0,0,1,1.328,0H3.007A1.328,1.328,0,0,0,1.679,1.328Z" transform="translate(12.725 0)" fill="#141c60"/>
        </g>
      </g>
      <g id="Mask_Group_105" data-name="Mask Group 105" transform="matrix(0.921, 0.391, -0.391, 0.921, 375.653, 134.75)" opacity="0.81" clip-path="url(#clip-path-2)">
        <g id="paint-can_2_" data-name="paint-can (2)" transform="translate(5.354 0)">
          <path id="Path_6388" data-name="Path 6388" d="M19.548,0H9.8C4.4,0,0,4.03,0,8.983v4.394a2.634,2.634,0,0,0,2.72,2.531H4.563a.6.6,0,0,0,0-1.2H2.72A1.436,1.436,0,0,1,1.2,13.376V8.983C1.2,4.692,5.058,1.2,9.8,1.2h9.748c4.742,0,8.6,3.491,8.6,7.782v4.394a1.436,1.436,0,0,1-1.519,1.331h-2.09a.6.6,0,0,0,0,1.2h2.09a2.634,2.634,0,0,0,2.72-2.531V8.983C29.348,4.03,24.951,0,19.548,0Z" transform="translate(0 1.588)" fill="#787680"/>
          <path id="Path_6389" data-name="Path 6389" d="M21.035,1.753V25.4a3.711,3.711,0,0,1-3.71,3.71H3.71A3.72,3.72,0,0,1,0,25.4V1.753a1.685,1.685,0,0,1,.014-.221A1.752,1.752,0,0,1,1.753,0H19.282a1.752,1.752,0,0,1,1.738,1.533A1.671,1.671,0,0,1,21.035,1.753Z" transform="translate(4.156 10.098)" fill="#ffc200"/>
          <path id="Path_6390" data-name="Path 6390" d="M17.794,1.753V25.4a3.7,3.7,0,0,1-.09.809,3.706,3.706,0,0,1-.379.019H3.71A3.72,3.72,0,0,1,0,22.515V0H16.041a1.752,1.752,0,0,1,1.738,1.533A1.658,1.658,0,0,1,17.794,1.753Z" transform="translate(7.398 10.098)" fill="#ffcf60"/>
          <path id="Path_6391" data-name="Path 6391" d="M19.282,0H1.753A1.753,1.753,0,0,0,0,1.753V4.239H2.554A1.631,1.631,0,0,1,4.185,5.87v4.467a1.932,1.932,0,0,0,1.759,1.941,1.906,1.906,0,0,0,2.046-1.9l0,5.558a1.9,1.9,0,0,0,3.805,0V5.87A1.631,1.631,0,0,1,13.427,4.24h.541A1.631,1.631,0,0,1,15.6,5.87v4.467a1.932,1.932,0,0,0,1.759,1.941,1.906,1.906,0,0,0,2.046-1.9V5.87A1.631,1.631,0,0,1,21.035,4.24h0V1.753A1.753,1.753,0,0,0,19.282,0Z" transform="translate(4.156 10.098)" fill="#fff"/>
          <path id="Path_6392" data-name="Path 6392" d="M10.289.96V3.349a.963.963,0,0,1-.96.96H.96A.963.963,0,0,1,0,3.349V.96A.963.963,0,0,1,.96,0H9.329A.963.963,0,0,1,10.289.96Z" transform="translate(9.529 0)" fill="#341f97"/>
          <path id="Path_6393" data-name="Path 6393" d="M7.568.96V2.068H.96A.963.963,0,0,1,0,1.108V0H6.608A.963.963,0,0,1,7.568.96Z" transform="translate(12.25 0)" fill="#847bff"/>
          <g id="Group_4809" data-name="Group 4809" transform="translate(8.341 17.728)">
            <path id="Path_6394" data-name="Path 6394" d="M5.709,7.5a1.908,1.908,0,0,1-1.9-1.9L3.8.256c-.008-.016-.012,0-.012,0a1.9,1.9,0,0,1-.547,1.131,1.9,1.9,0,0,1-1.487.553A1.932,1.932,0,0,1,0,0V2.708A1.932,1.932,0,0,0,1.759,4.649,1.907,1.907,0,0,0,3.8,2.752l0,5.558a1.9,1.9,0,0,0,3.8,0V5.6a1.906,1.906,0,0,1-1.9,1.9Z" fill="#dfdfdf"/>
            <path id="Path_6395" data-name="Path 6395" d="M3.247,1.388a1.9,1.9,0,0,1-1.488.553A1.932,1.932,0,0,1,0,0V2.708A1.932,1.932,0,0,0,1.759,4.649,1.905,1.905,0,0,0,3.8,2.752V.043A1.9,1.9,0,0,1,3.247,1.388Z" transform="translate(11.414 0)" fill="#dfdfdf"/>
          </g>
        </g>
      </g>
      <g id="Mask_Group_7" data-name="Mask Group 7" transform="matrix(-0.999, -0.035, 0.035, -0.999, 165.509, 180.833)" opacity="0.65" clip-path="url(#clip-path-3)">
        <g id="brush" transform="matrix(0.788, -0.616, 0.616, 0.788, 7.496, 14.069)">
          <path id="Path_341" data-name="Path 341" d="M2.563,0A2.563,2.563,0,0,0,0,2.563L.712,9.969h3.76l.712-7.406A2.563,2.563,0,0,0,2.563,0Zm.029,3.367a.813.813,0,1,1,.813-.813A.813.813,0,0,1,2.592,3.367Z" transform="translate(4.137 0.004)" fill="#4549a4"/>
          <path id="Path_342" data-name="Path 342" d="M3.091.047A2.578,2.578,0,0,0,0,2.567L.712,9.973h1L1,2.567A2.564,2.564,0,0,1,3.091.047Z" transform="translate(4.137)" fill="#141c60"/>
          <path id="Path_343" data-name="Path 343" d="M12.391,0H1.066A1.066,1.066,0,0,0,0,1.066v5.2H13.457v-5.2A1.066,1.066,0,0,0,12.391,0Z" transform="translate(0 9.925)" fill="#777371"/>
          <path id="Path_344" data-name="Path 344" d="M8.533,0H.928A11.117,11.117,0,0,0,0,4.46,11.234,11.234,0,0,0,.147,6.27H9.6v-5.2A1.066,1.066,0,0,0,8.533,0Z" transform="translate(3.858 9.925)" fill="#989898"/>
          <path id="Path_345" data-name="Path 345" d="M0,0V6.55A1.066,1.066,0,0,0,1.066,7.616H12.391A1.066,1.066,0,0,0,13.457,6.55V0Z" transform="translate(0 15.778)" fill="#f7830f"/>
          <path id="Path_346" data-name="Path 346" d="M4.49,7.616H8.446A1.066,1.066,0,0,0,9.512,6.55V0H0A11.147,11.147,0,0,0,4.49,7.616Z" transform="translate(3.945 15.778)" fill="#ffa92c"/>
          <g id="Group_345" data-name="Group 345" transform="translate(1.968 18.865)">
            <path id="Path_347" data-name="Path 347" d="M.354,0A.354.354,0,0,0,0,.354V4.529H.707V.354A.354.354,0,0,0,.354,0Z" fill="#fcc454"/>
            <path id="Path_348" data-name="Path 348" d="M.354,0A.354.354,0,0,0,0,.354V3.187H.707V.354A.354.354,0,0,0,.354,0Z" transform="translate(2.271 1.342)" fill="#fcc454"/>
            <path id="Path_349" data-name="Path 349" d="M.354,0A.354.354,0,0,0,0,.354V4.529H.707V.354A.354.354,0,0,0,.354,0Z" transform="translate(6.491)" fill="#fcc454"/>
            <path id="Path_350" data-name="Path 350" d="M.354,0A.354.354,0,0,0,0,.354V3.187H.707V.354A.354.354,0,0,0,.354,0Z" transform="translate(8.762 1.342)" fill="#fcc454"/>
          </g>
          <rect id="Rectangle_198" data-name="Rectangle 198" width="13.457" height="1.931" transform="translate(0 14.265)" fill="#c4c2c2"/>
          <path id="Path_351" data-name="Path 351" d="M0,.121a11.234,11.234,0,0,0,.147,1.81H9.6V0H0C0,.04,0,.081,0,.121Z" transform="translate(3.858 14.264)" fill="#e1e1e1"/>
        </g>
      </g>
      <g id="Mask_Group_10" data-name="Mask Group 10" transform="translate(398.023 288.471)" clip-path="url(#clip-path-4)">
        <g id="brush_1_" data-name="brush (1)" transform="translate(0.265 0)">
          <path id="Path_377" data-name="Path 377" d="M10.463,19.013c-.074-.044.206.227-3.405-3.385a.283.283,0,0,0-.365-.03C-.394,20.675.023,20.323.007,20.51s-.325-.184,5.325,5.467a.283.283,0,0,0,.428-.033l4.785-6.521A.283.283,0,0,0,10.463,19.013Z" transform="translate(0 1.906)" fill="#cc7954"/>
          <path id="Path_378" data-name="Path 378" d="M.807,21.17c7.226-5.175,6.833-4.9,6.875-4.917l-.625-.625a.283.283,0,0,0-.365-.03L.124,20.3a.283.283,0,0,0-.035.43l.605.605A.294.294,0,0,1,.807,21.17Z" transform="translate(0.001 1.906)" fill="#b25f42"/>
          <g id="Group_347" data-name="Group 347" transform="translate(6.829 10.454)">
            <path id="Path_379" data-name="Path 379" d="M12.577,9.313l-2.986,2.62,4.129,4.129,2.622-2.984Z" transform="translate(-5.651 -9.313)" fill="#bababa"/>
            <path id="Path_380" data-name="Path 380" d="M10.276,19.452l2.438-2.438L8.626,12.926,6.344,15.208a.894.894,0,0,0,0,1.264l2.845,2.845A.893.893,0,0,0,10.276,19.452Z" transform="translate(-6.082 -8.869)" fill="#bababa"/>
          </g>
          <path id="Path_381" data-name="Path 381" d="M7.132,15.969,9.4,13.7l-.775-.775L6.344,15.208a.894.894,0,0,0,0,1.264l.608.608A.963.963,0,0,1,7.132,15.969Z" transform="translate(0.747 1.585)" fill="#949992"/>
          <path id="Path_382" data-name="Path 382" d="M26.07.419C24.988-.663,23.387.7,23.353.732L12.087,10.617,15.872,14.4,25.757,3.136C25.787,3.1,27.152,1.5,26.07.419Z" transform="translate(1.484 -0.002)" fill="rgba(255,194,0,0.55)"/>
          <path id="Path_383" data-name="Path 383" d="M10.468,12.753l2.956-2.594h0l-.847-.847-2.986,2.62Z" transform="translate(1.178 1.141)" fill="#949992"/>
          <path id="Path_384" data-name="Path 384" d="M12.964,11.437h0L24.23,1.552A2.671,2.671,0,0,1,26.388.889,1.412,1.412,0,0,0,26.07.419C24.988-.663,23.387.7,23.353.732L12.087,10.617l.847.847Z" transform="translate(1.484 -0.002)" fill="#ffc200"/>
          <g id="Group_348" data-name="Group 348" transform="translate(1.422 21.32)">
            <path id="Path_385" data-name="Path 385" d="M3.794,19.115,1.266,21.642l.6.6,2.527-2.527a.424.424,0,0,0-.6-.6Z" transform="translate(-1.266 -18.991)" fill="#ffa92c"/>
            <path id="Path_386" data-name="Path 386" d="M4.065,21.4,2.6,22.862l.6.6L4.665,22a.424.424,0,0,0-.6-.6Z" transform="translate(-1.102 -18.71)" fill="#ffa92c"/>
          </g>
          <path id="Path_387" data-name="Path 387" d="M13.928,15.709,9.88,11.661a1,1,0,0,0-1.415,0,1.091,1.091,0,0,0-.414.828.993.993,0,0,0,.293.708l4.048,4.048a.994.994,0,0,0,.708.293,1.091,1.091,0,0,0,.828-.414A1,1,0,0,0,13.928,15.709Z" transform="translate(0.989 1.393)" fill="#efefef"/>
          <path id="Path_388" data-name="Path 388" d="M13.071,16.472,9.023,12.424a1,1,0,0,1-.255-.979,1.275,1.275,0,0,0-.424.328,1,1,0,0,0,0,1.415l4.048,4.048a.994.994,0,0,0,.708.293,1.091,1.091,0,0,0,.828-.414.993.993,0,0,0,.255-.436A1,1,0,0,1,13.071,16.472Z" transform="translate(0.989 1.403)" fill="#e1e1e1"/>
        </g>
      </g>
    </g>
    <g id="صورة2" transform="translate(273.141 356.951)">
      <g id="Group_336-2" data-name="Group 336">
        <g id="Group_335" data-name="Group 335">
          <g id="Mask_Group_2" data-name="Mask Group 2" transform="translate(18.86 213.049)" clip-path="url(#clip-path-5)">
            <g id="Group_329" data-name="Group 329" transform="translate(-0.607 30.079)">
              <path id="Path_285" data-name="Path 285" d="M166.754,88c0,.961-5.146,1.741-11.495,1.741S143.764,88.96,143.764,88s5.147-1.738,11.495-1.738S166.754,87.041,166.754,88Z" transform="translate(-136.9 -34.599)" fill="#36d2de"/>
              <path id="Path_286" data-name="Path 286" d="M172.754,92.036c0,.96-5.146,1.74-11.495,1.74s-11.495-.78-11.495-1.74,5.149-1.742,11.495-1.742S172.754,91.074,172.754,92.036Z" transform="translate(-134.662 -33.095)" fill="#36d2de"/>
              <path id="Path_287" data-name="Path 287" d="M175.636,95.783c0,.64-3.423,1.156-7.645,1.156s-7.646-.516-7.646-1.156,3.424-1.157,7.646-1.157S175.636,95.142,175.636,95.783Z" transform="translate(-130.716 -31.479)" fill="#36d2de"/>
              <path id="Path_288" data-name="Path 288" d="M175.912,90.38c0,1.428-8.315,2.591-18.574,2.591s-18.573-1.163-18.573-2.591,8.315-2.591,18.573-2.591S175.912,88.949,175.912,90.38Z" transform="translate(-138.765 -34.029)" fill="#36d2de"/>
              <path id="Path_289" data-name="Path 289" d="M222.046,99.183l-70.962-.56-6.817-43.48H227.8Z" transform="translate(-136.712 -46.206)" fill="#e99300"/>
              <path id="Path_290" data-name="Path 290" d="M220.019,88.791c0,3.471-15.854,8.5-35.411,8.5s-35.413-5.029-35.413-8.5,15.855-6.283,35.413-6.283S220.019,85.321,220.019,88.791Z" transform="translate(-134.875 -35.999)" fill="#e99300"/>
              <path id="Path_291" data-name="Path 291" d="M218.408,68.159l-2.26,21.954a91.933,91.933,0,0,1-32.433,5.968,98.292,98.292,0,0,1-30.092-5.227l-2.246-21.4a214.611,214.611,0,0,0,31.9,2.563C196.042,72.021,209.962,69.851,218.408,68.159Z" transform="translate(-134.061 -41.351)" fill="#fffcf3"/>
              <path id="Path_292" data-name="Path 292" d="M233.373,55.8a2.323,2.323,0,0,0-1.131-.265,7.9,7.9,0,0,0-3.595,1.307l-.468.3,1.19,1.87.468-.3a6.29,6.29,0,0,1,2.378-.964.924.924,0,0,1,0,.095c0,13.138-15.271,28.348-29.533,34.314a7.919,7.919,0,0,0-3.741,2.929,2.978,2.978,0,0,1-2.507,1.477c-.761.11-4.517.188-9.133.188-4.409,0-7.973-.076-8.473-.179a2.838,2.838,0,0,1-2.249-1.464,6.069,6.069,0,0,0-3.494-2.65C158.127,87.289,142.65,73.181,142.613,58.4a1.175,1.175,0,0,1,.262-.023,8.627,8.627,0,0,1,2.956.836l.5.235.939-2.007-.5-.236a10.5,10.5,0,0,0-3.872-1.039,2.819,2.819,0,0,0-1.546.389,2.132,2.132,0,0,0-.965,1.88c0,15.693,16.259,30.687,31.976,36.118a3.922,3.922,0,0,1,2.389,1.807,4.943,4.943,0,0,0,3.632,2.382c.968.2,6.114.222,8.281.222,4.255,0,9.194-.081,10.093-.211a5.051,5.051,0,0,0,3.965-2.349,5.706,5.706,0,0,1,2.82-2.2c14.919-6.239,30.893-22.339,30.893-36.36A2.163,2.163,0,0,0,233.373,55.8Z" transform="translate(-138.159 -46.06)" fill="#b8b8b8"/>
              <path id="Path_293" data-name="Path 293" d="M230.555,62.043c0,4.936-19.67,8.937-43.935,8.937s-43.933-4-43.933-8.937V55.458c5.562-3.638,21.894-2.338,41.608-2.338,25.27,0,46.191,1.142,46.261,2.338Z" transform="translate(-137.302 -47.045)" fill="#fdc000"/>
              <path id="Path_294" data-name="Path 294" d="M206.686,59.924V59.87C206.789,59.9,206.789,59.924,206.686,59.924Z" transform="translate(-113.43 -44.443)" fill="#fdc000"/>
              <path id="Path_295" data-name="Path 295" d="M225.411,58.743c-6.408,3.281-22.362,5.831-39.937,5.831s-33.385-2.55-39.716-5.831c6.331-3.006,22.142-4.922,39.716-4.922S219,55.738,225.411,58.743Z" transform="translate(-136.156 -46.699)" fill="#fdc000"/>
              <path id="Path_296" data-name="Path 296" d="M185.475,53.821c17.574,0,33.529,1.917,39.937,4.922-6.408,3.281-22.362,5.831-39.937,5.831s-33.385-2.55-39.716-5.831C152.09,55.738,167.9,53.821,185.475,53.821Z" transform="translate(-136.156 -46.699)" fill="#e99300"/>
              <path id="Path_297" data-name="Path 297" d="M230.555,57.046c0,4.646-19.822,9.463-44.087,9.463s-43.781-4.817-43.781-9.463,19.67-8.412,43.933-8.412S230.555,52.4,230.555,57.046Z" transform="translate(-137.302 -48.634)" fill="#e99300"/>
              <path id="Path_298" data-name="Path 298" d="M225.411,58.743c-6.408,3.281-22.362,5.831-39.937,5.831s-33.385-2.55-39.716-5.831c6.331-3.006,22.142-4.922,39.716-4.922S219,55.738,225.411,58.743Z" transform="translate(-136.156 -46.699)" fill="#36d2de"/>
              <path id="Path_299" data-name="Path 299" d="M154.288,59.938s5.938,3.29,5.753,5.876-4.573,13.711,2.307,13.711c3.7,0,1.654-9.118,1.479-9.733-1.013-3.562,5.5-3.161,5.79,0s2.156,4.19,2.9,2.157,2.982-4.715,4.645-3.847,2.6,2.78,4.6,2.738c1.687-.036,6.581-5.5,11.058-8.852A168.432,168.432,0,0,1,154.288,59.938Z" transform="translate(-132.975 -44.418)" fill="#00aeb7"/>
              <path id="Rectangle_184" data-name="Rectangle 184" d="M1.616,0H16.252a1.615,1.615,0,0,1,1.615,1.615V4.471a1.615,1.615,0,0,1-1.615,1.615H1.615A1.615,1.615,0,0,1,0,4.471V1.616A1.616,1.616,0,0,1,1.616,0Z" transform="translate(40.32 47.816)" fill="#4549a4"/>
            </g>
          </g>
          <g id="Mask_Group_5" data-name="Mask Group 5" transform="translate(242.859 238.049)" clip-path="url(#clip-path-6)">
            <g id="Group_334" data-name="Group 334" transform="translate(7.893 6.234)">
              <g id="Group_332" data-name="Group 332" transform="translate(0)">
                <path id="Path_313" data-name="Path 313" d="M52.592,366.538c0,2.952,9.287,5.344,20.741,5.344s20.742-2.392,20.742-5.344-9.287-5.343-20.742-5.343S52.592,363.587,52.592,366.538Z" transform="translate(-52.592 -361.195)" fill="#36d2de"/>
                <path id="Path_314" data-name="Path 314" d="M52.592,410.681c0,2.953,9.287,7.1,20.741,7.1s20.742-4.152,20.742-7.1-9.287-5.341-20.742-5.341S52.592,407.732,52.592,410.681Z" transform="translate(-52.592 -353.799)" fill="#36d2de"/>
                <rect id="Rectangle_186" data-name="Rectangle 186" width="41.484" height="51.228" transform="translate(0 5.342)" fill="#36d2de"/>
                <path id="Path_315" data-name="Path 315" d="M54.452,367.6c0,.717.613,1.4,1.717,2.009,2.95,1.64,9.389,2.772,16.857,2.772s13.905-1.131,16.857-2.772c1.1-.613,1.716-1.292,1.716-2.009,0-2.639-8.316-4.788-18.573-4.788S54.452,364.957,54.452,367.6Z" transform="translate(-52.287 -360.925)" fill="#1a5887"/>
                <path id="Path_316" data-name="Path 316" d="M55.922,369.029c2.95,1.64,9.389,2.772,16.857,2.772s13.905-1.131,16.857-2.772c-2.952-1.65-9.39-2.782-16.857-2.782S58.872,367.38,55.922,369.029Z" transform="translate(-52.04 -360.349)" fill="#ca3100"/>
                <path id="Path_317" data-name="Path 317" d="M54.055,382.736v20.79c3.4,2.914,10.437,5.611,18.573,5.611,8.523,0,15.84-2.954,19.035-6.036V382.736c-3.29,3.012-10.474,5.828-18.8,5.828-8.137,0-15.17-2.695-18.573-5.609A2.1,2.1,0,0,1,54.055,382.736Z" transform="translate(-51.888 -357.586)" fill="#fff"/>
                <path id="Path_318" data-name="Path 318" d="M89.032,369.131s1.187,2.522,0,7.72.245,7.715,0,10.229-6.215,5.97-5.587-1.573-.629-9.454-1.572-8.656-1.241,7.5-2.821,6.036-.447-5.442-1.894-6.036-2.828-.3-3.457,2.764-1.451,9.665-3.24,6.208.725-8.2-1.787-8.971-2.829,3.782-4.715,2.764-.314-5.319-3.143-4.584-1.571,2.28-2.828,1.82c-1.959-.654-4.388-5.713-4.388-5.713C54.947,371.8,77.336,376.952,89.032,369.131Z" transform="translate(-49.255 -359.865)" fill="#ca3100"/>
                <path id="Path_319" data-name="Path 319" d="M89.8,400.942s-27.739,6.28-34.863-13.2v13.964C55.028,403.99,75.72,411.158,89.8,400.942Z" transform="translate(-51.056 -356.747)" fill="#ca3100"/>
              </g>
              <g id="Group_333" data-name="Group 333" transform="translate(21.885 53.05)">
                <path id="Path_320" data-name="Path 320" d="M75.331,416.634c0-2.95-9.287-5.343-20.741-5.343s-20.741,2.392-20.741,5.343,9.285,5.343,20.741,5.343S75.331,419.584,75.331,416.634Z" transform="translate(-33.848 -410.523)" fill="#00aeb7"/>
                <path id="Path_321" data-name="Path 321" d="M72.851,415.416c0-2.641-8.315-4.783-18.573-4.783S35.7,412.775,35.7,415.416,44.02,420.2,54.278,420.2,72.851,418.057,72.851,415.416Z" transform="translate(-33.537 -410.633)" fill="#1a5887"/>
                <path id="Path_322" data-name="Path 322" d="M52.139,413.629c0,.5,1.657.908,3.7.908s3.7-.406,3.7-.908-1.657-.908-3.7-.908S52.139,413.126,52.139,413.629Z" transform="translate(-39.412 -410.283)" fill="#ca3100"/>
                <ellipse id="Ellipse_4" data-name="Ellipse 4" cx="8.877" cy="1.784" rx="8.877" ry="1.784" transform="translate(10.326 3.931)" fill="#ca3100"/>
              </g>
            </g>
          </g>
          <g id="Group_48" data-name="Group 48" transform="translate(76.489)">
            <g id="Group_45" data-name="Group 45" transform="translate(0 0)">
              <g id="Group_44" data-name="Group 44">
                <g id="Group_43" data-name="Group 43">
                  <g id="Group_40" data-name="Group 40">
                    <g id="Group_15" data-name="Group 15" transform="translate(13.86)">
                      <rect id="Rectangle_7" data-name="Rectangle 7" width="161.57" height="275.448" transform="translate(0.625 18.768)" fill="#4549a4"/>
                      <g id="Group_13" data-name="Group 13">
                        <g id="Group_10" data-name="Group 10">
                          <path id="Path_12" data-name="Path 12" d="M264.715,107.16l-143.5.03a12.211,12.211,0,0,0-12.208,12.215l.036,282.76a12.213,12.213,0,0,0,12.217,12.208l143.5-.03a12.215,12.215,0,0,0,12.208-12.215l-.038-282.76A12.211,12.211,0,0,0,264.715,107.16Zm6.49,286.5-156.434.032,0-267.744,156.434-.034Z" transform="translate(-109.009 -107.16)" fill="#141c60"/>
                        </g>
                        <path id="Path_13" data-name="Path 13" d="M178.846,267.713l-32.638.01a2.939,2.939,0,0,1-2.94-2.936h0a2.938,2.938,0,0,1,2.938-2.94l32.638-.011a2.937,2.937,0,0,1,2.938,2.938h0A2.939,2.939,0,0,1,178.846,267.713Z" transform="translate(-78.123 32.283)" fill="#fff"/>
                        <g id="Group_11" data-name="Group 11" transform="translate(79.951 5.349)">
                          <path id="Path_14" data-name="Path 14" d="M160,114.445a4.473,4.473,0,1,1-4.474-4.472A4.475,4.475,0,0,1,160,114.445Z" transform="translate(-151.055 -109.973)" fill="#8c40cc"/>
                        </g>
                        <g id="Group_12" data-name="Group 12" transform="translate(5.756 18.678)">
                          <rect id="Rectangle_8" data-name="Rectangle 8" width="156.435" height="8.644" fill="#55277d"/>
                        </g>
                      </g>
                      <g id="Group_14" data-name="Group 14" transform="translate(0.006 105.534)" opacity="0.2">
                        <path id="Path_15" data-name="Path 15" d="M130.4,176.7a13.977,13.977,0,0,0,13.976-13.976H116.42A13.977,13.977,0,0,0,130.4,176.7Z" transform="translate(-102.334 -162.599)"/>
                        <path id="Path_16" data-name="Path 16" d="M109.014,176.7c.036,0,.072.006.108.006A13.977,13.977,0,0,0,123.1,162.728H109.012Z" transform="translate(-109.012 -162.599)"/>
                        <path id="Path_17" data-name="Path 17" d="M145.1,176.7a13.977,13.977,0,0,0,13.976-13.976H131.12A13.977,13.977,0,0,0,145.1,176.7Z" transform="translate(-89.081 -162.599)"/>
                        <path id="Path_18" data-name="Path 18" d="M203.9,176.7c.034,0,.067-.006.1-.006l0-13.97H189.92A13.976,13.976,0,0,0,203.9,176.7Z" transform="translate(-36.072 -162.599)"/>
                        <path id="Path_19" data-name="Path 19" d="M159.864,176.636A13.976,13.976,0,0,0,173.84,162.66H145.888A13.976,13.976,0,0,0,159.864,176.636Z" transform="translate(-75.768 -162.66)"/>
                        <path id="Path_20" data-name="Path 20" d="M188.54,162.66H160.588A13.974,13.974,0,0,0,188.472,164a13.972,13.972,0,0,0,27.892-1.211H188.533C188.533,162.746,188.54,162.7,188.54,162.66Z" transform="translate(-62.515 -162.66)"/>
                      </g>
                    </g>
                    <g id="Group_39" data-name="Group 39">
                      <g id="Group_23" data-name="Group 23" transform="translate(0.001 22.248)">
                        <g id="Group_16" data-name="Group 16">
                          <path id="Path_21" data-name="Path 21" d="M118.871,118.86h23.052l-12.251,77.647H101.72Z" transform="translate(-101.72 -118.86)" fill="#fff"/>
                        </g>
                        <g id="Group_17" data-name="Group 17" transform="translate(27.952)">
                          <path id="Path_22" data-name="Path 22" d="M128.671,118.86h23.052l-7.351,77.647H116.42Z" transform="translate(-116.42 -118.86)" fill="#ffcf60"/>
                        </g>
                        <g id="Group_18" data-name="Group 18" transform="translate(55.904)">
                          <path id="Path_23" data-name="Path 23" d="M138.471,118.86h23.052l-2.45,77.647H131.12Z" transform="translate(-131.12 -118.86)" fill="#fff"/>
                        </g>
                        <g id="Group_19" data-name="Group 19" transform="translate(83.857)">
                          <path id="Path_24" data-name="Path 24" d="M148.27,118.86h23.052l2.45,77.647H145.82Z" transform="translate(-145.82 -118.86)" fill="#ffcf60"/>
                        </g>
                        <g id="Group_20" data-name="Group 20" transform="translate(109.359)">
                          <path id="Path_25" data-name="Path 25" d="M159.231,118.86h23.052l7.351,77.647H161.682Z" transform="translate(-159.231 -118.86)" fill="#fff"/>
                        </g>
                        <g id="Group_21" data-name="Group 21" transform="translate(132.41)">
                          <path id="Path_26" data-name="Path 26" d="M171.354,118.86h23.052l12.251,77.647H178.7Z" transform="translate(-171.354 -118.86)" fill="#ffcf60"/>
                        </g>
                        <g id="Group_22" data-name="Group 22" transform="translate(155.462)">
                          <path id="Path_27" data-name="Path 27" d="M183.477,118.86h23.052l17.151,77.647H195.728Z" transform="translate(-183.477 -118.86)" fill="#fff"/>
                        </g>
                      </g>
                      <g id="Group_31" data-name="Group 31" transform="translate(17.152)">
                        <g id="Group_24" data-name="Group 24">
                          <path id="Path_28" data-name="Path 28" d="M127.292,107.16h18.323l-11.823,22.248H110.74Z" transform="translate(-110.74 -107.16)" fill="#e8e8e8"/>
                        </g>
                        <g id="Group_25" data-name="Group 25" transform="translate(23.052)">
                          <path id="Path_29" data-name="Path 29" d="M134.686,107.16h18.323l-7.093,22.248H122.863Z" transform="translate(-122.863 -107.16)" fill="#ffc200"/>
                        </g>
                        <g id="Group_26" data-name="Group 26" transform="translate(46.104)">
                          <path id="Path_30" data-name="Path 30" d="M142.079,107.16H160.4l-2.365,22.248H134.986Z" transform="translate(-134.986 -107.16)" fill="#e8e8e8"/>
                        </g>
                        <g id="Group_27" data-name="Group 27" transform="translate(69.155)">
                          <path id="Path_31" data-name="Path 31" d="M149.473,107.16H167.8l2.365,22.248H147.109Z" transform="translate(-147.109 -107.16)" fill="#ffc200"/>
                        </g>
                        <g id="Group_28" data-name="Group 28" transform="translate(89.843)">
                          <path id="Path_32" data-name="Path 32" d="M157.988,107.16h18.323l7.094,22.248H160.353Z" transform="translate(-157.988 -107.16)" fill="#e8e8e8"/>
                        </g>
                        <g id="Group_29" data-name="Group 29" transform="translate(108.166)">
                          <path id="Path_33" data-name="Path 33" d="M167.624,107.16h18.323l11.823,22.248H174.717Z" transform="translate(-167.624 -107.16)" fill="#ffc200"/>
                        </g>
                        <g id="Group_30" data-name="Group 30" transform="translate(126.488)">
                          <path id="Path_34" data-name="Path 34" d="M177.26,107.16h18.323l16.552,22.248H189.082Z" transform="translate(-177.26 -107.16)" fill="#e8e8e8"/>
                        </g>
                      </g>
                      <g id="Group_32" data-name="Group 32" transform="translate(0 99.894)">
                        <path id="Path_35" data-name="Path 35" d="M115.7,173.67a13.977,13.977,0,0,0,13.976-13.976H101.72A13.977,13.977,0,0,0,115.7,173.67Z" transform="translate(-101.72 -159.694)" fill="#e8e8e8"/>
                      </g>
                      <g id="Group_33" data-name="Group 33" transform="translate(27.952 99.894)">
                        <path id="Path_36" data-name="Path 36" d="M130.4,173.67a13.977,13.977,0,0,0,13.976-13.976H116.42A13.977,13.977,0,0,0,130.4,173.67Z" transform="translate(-116.42 -159.694)" fill="#ffc200"/>
                      </g>
                      <g id="Group_34" data-name="Group 34" transform="translate(55.905 99.894)">
                        <path id="Path_37" data-name="Path 37" d="M145.1,173.67a13.977,13.977,0,0,0,13.976-13.976H131.12A13.977,13.977,0,0,0,145.1,173.67Z" transform="translate(-131.12 -159.694)" fill="#e8e8e8"/>
                      </g>
                      <g id="Group_35" data-name="Group 35" transform="translate(83.986 99.765)">
                        <path id="Path_38" data-name="Path 38" d="M159.864,173.6a13.976,13.976,0,0,0,13.976-13.976H145.888A13.976,13.976,0,0,0,159.864,173.6Z" transform="translate(-145.888 -159.626)" fill="#ffc200"/>
                      </g>
                      <g id="Group_36" data-name="Group 36" transform="translate(111.939 99.765)">
                        <path id="Path_39" data-name="Path 39" d="M174.564,173.6a13.976,13.976,0,0,0,13.976-13.976H160.588A13.976,13.976,0,0,0,174.564,173.6Z" transform="translate(-160.588 -159.626)" fill="#e8e8e8"/>
                      </g>
                      <g id="Group_37" data-name="Group 37" transform="translate(139.762 99.894)">
                        <path id="Path_40" data-name="Path 40" d="M189.2,173.67a13.977,13.977,0,0,0,13.976-13.976H175.22A13.976,13.976,0,0,0,189.2,173.67Z" transform="translate(-175.22 -159.694)" fill="#ffc200"/>
                      </g>
                      <g id="Group_38" data-name="Group 38" transform="translate(167.714 99.894)">
                        <path id="Path_41" data-name="Path 41" d="M203.9,173.67a13.977,13.977,0,0,0,13.976-13.976H189.92A13.976,13.976,0,0,0,203.9,173.67Z" transform="translate(-189.92 -159.694)" fill="#e8e8e8"/>
                      </g>
                    </g>
                  </g>
                </g>
              </g>
            </g>
            <rect id="Rectangle_9" data-name="Rectangle 9" width="84.55" height="133.865" transform="translate(56.971 152.64)" fill="#d4d4ff"/>
            <path id="Path_45" data-name="Path 45" d="M131.681,187.433v8.916h74.57V321.3h9.98V187.433Z" transform="translate(-74.71 -34.792)" fill="#8c8aff"/>
            <rect id="Rectangle_10" data-name="Rectangle 10" width="5.269" height="133.865" transform="translate(51.702 152.64)" fill="#3c1b87"/>
            <g id="Group_47" data-name="Group 47" transform="translate(61.79 165.316)">
              <g id="Group_46" data-name="Group 46" clip-path="url(#clip-path-7)">
                <path id="Path_47" data-name="Path 47" d="M163.053,312.637h-33.63L196.592,194.1h33.63Z" transform="translate(-138.536 -194.099)" fill="url(#linear-gradient-3)"/>
                <path id="Path_48" data-name="Path 48" d="M129.151,312.637h-3.412L192.909,194.1h3.412Z" transform="translate(-141.856 -194.099)" fill="url(#linear-gradient-4)"/>
              </g>
            </g>
          </g>
          <g id="Mask_Group_3" data-name="Mask Group 3" transform="translate(0 102.519) rotate(-7)" clip-path="url(#clip-path-8)">
            <g id="Group_328" data-name="Group 328" transform="translate(4.329 29.603) rotate(-31)">
              <g id="Group_327" data-name="Group 327" transform="translate(0 5.081)">
                <path id="Path_282" data-name="Path 282" d="M28.365,41.488a1.27,1.27,0,0,1-1.27-1.271V23.79L1.308,15.6a1.27,1.27,0,0,1-.885-1.169L0,1.311A1.27,1.27,0,0,1,.374.369,1.283,1.283,0,0,1,1.319,0L12.327.424a1.27,1.27,0,0,1-.1,2.538L2.583,2.59l.35,10.865L28.75,21.649a1.271,1.271,0,0,1,.885,1.211V40.218A1.27,1.27,0,0,1,28.365,41.488Z" transform="translate(0 0)" fill="#b8b8b8"/>
              </g>
              <rect id="Rectangle_182" data-name="Rectangle 182" width="6.435" height="22.014" rx="3.217" transform="translate(25.36 30.482)" fill="#4549a4"/>
              <rect id="Rectangle_183" data-name="Rectangle 183" width="42.758" height="14.817" transform="translate(7.198)" fill="#fdc000"/>
              <path id="Path_283" data-name="Path 283" d="M1.482,19.228a.741.741,0,0,1-.741.741h0A.741.741,0,0,1,0,19.228V.74A.741.741,0,0,1,.742,0h0a.74.74,0,0,1,.741.74Z" transform="translate(27.095 31.54)" fill="none"/>
              <path id="Path_284" data-name="Path 284" d="M.9,5.139a.452.452,0,0,1-.452.452h0A.452.452,0,0,1,0,5.139V.452A.452.452,0,0,1,.452,0h0A.451.451,0,0,1,.9.452Z" transform="translate(49.956 4.613)" fill="#db3e0b"/>
            </g>
          </g>
        </g>
      </g>
    </g>
  </g>
</svg>
